font.ufo
<glyph name="exclam" format="1">
  <advance width="234"/>
  <unicode hex="0021"/>
  <outline>
    <contour>
      <point x="50" y="631" type="line"/>
      <point x="70" y="212" type="line"/>
      <point x="164" y="212" type="line"/>
      <point x="184" y="631" type="line"/>
    </contour>
    <contour>
      <point x="56" y="0" type="line"/>
      <point x="177" y="0" type="line"/>
      <point x="177" y="135" type="line"/>
      <point x="56" y="135" type="line"/>
    </contour>
  </outline>
</glyph>
<glyph name="quotedbl" format="1">
  <advance width="333"/>
  <unicode hex="0022"/>
  <outline>
    <contour>
      <point x="37" y="631" type="line"/>
      <point x="37" y="395" type="line"/>
      <point x="140" y="395" type="line"/>
      <point x="140" y="631" type="line"/>
    </contour>
    <contour>
      <point x="193" y="631" type="line"/>
      <point x="193" y="395" type="line"/>
      <point x="296" y="395" type="line"/>
      <point x="296" y="631" type="line"/>
    </contour>
  </outline>
</glyph>
<glyph name="numbersign" format="1">
  <advance width="549"/>
  <unicode hex="0023"/>
  <outline>
    <contour>
      <point x="181" y="630" type="line"/>
      <point x="60" y="0" type="line"/>
      <point x="159" y="0" type="line"/>
      <point x="280" y="630" type="line"/>
    </contour>
    <contour>
      <point x="519" y="475" type="line"/>
      <point x="67" y="475" type="line"/>
      <point x="67" y="394" type="line"/>
      <point x="519" y="394" type="line"/>
    </contour>
    <contour>
      <point x="368" y="0" type="line"/>
      <point x="489" y="630" type="line"/>
      <point x="390" y="630" type="line"/>
      <point x="269" y="0" type="line"/>
    </contour>
    <contour>
      <point x="30" y="155" type="line"/>
      <point x="482" y="155" type="line"/>
      <point x="482" y="236" type="line"/>
      <point x="30" y="236" type="line"/>
    </contour>
  </outline>
</glyph>
<glyph name="dollar" format="1">
  <advance width="399"/>
  <unicode hex="0024"/>
  <outline>
    <contour>
      <point x="254" y="596" type="line"/>
      <point x="254" y="710" type="line"/>
      <point x="145" y="710" type="line"/>
      <point x="145" y="596" type="line"/>
    </contour>
    <contour>
      <point x="254" y="-79" type="line"/>
      <point x="254" y="35" type="line"/>
      <point x="145" y="35" type="line"/>
      <point x="145" y="-79" type="line"/>
    </contour>
    <contour>
      <point x="248" y="115" type="line"/>
      <point x="248" y="94"/>
      <point x="242" y="88"/>
      <point x="220" y="88" type="curve"/>
      <point x="182" y="88" type="line" smooth="yes"/>
      <point x="160" y="88"/>
      <point x="153" y="94"/>
      <point x="153" y="115" type="curve" smooth="yes"/>
      <point x="153" y="186" type="line"/>
      <point x="38" y="186" type="line"/>
      <point x="38" y="99" type="line" smooth="yes"/>
      <point x="38" y="36"/>
      <point x="70" y="0"/>
      <point x="147" y="0" type="curve" smooth="yes"/>
      <point x="255" y="0" type="line" smooth="yes"/>
      <point x="332" y="0"/>
      <point x="364" y="36"/>
      <point x="364" y="99" type="curve" smooth="yes"/>
      <point x="364" y="264" type="line" smooth="yes"/>
      <point x="364" y="327"/>
      <point x="334" y="362"/>
      <point x="259" y="362" type="curve" smooth="yes"/>
      <point x="180" y="362" type="line" smooth="yes"/>
      <point x="158" y="362"/>
      <point x="151" y="368"/>
      <point x="151" y="389" type="curve" smooth="yes"/>
      <point x="151" y="516" type="line" smooth="yes"/>
      <point x="151" y="537"/>
      <point x="158" y="543"/>
      <point x="180" y="543" type="curve" smooth="yes"/>
      <point x="218" y="543" type="line" smooth="yes"/>
      <point x="240" y="543"/>
      <point x="246" y="537"/>
      <point x="246" y="516" type="curve" smooth="yes"/>
      <point x="246" y="444" type="line"/>
      <point x="362" y="444" type="line"/>
      <point x="362" y="532" type="line" smooth="yes"/>
      <point x="362" y="595"/>
      <point x="330" y="631"/>
      <point x="254" y="631" type="curve" smooth="yes"/>
      <point x="144" y="631" type="line" smooth="yes"/>
      <point x="67" y="631"/>
      <point x="36" y="595"/>
      <point x="36" y="532" type="curve" smooth="yes"/>
      <point x="36" y="377" type="line" smooth="yes"/>
      <point x="36" y="314"/>
      <point x="64" y="277"/>
      <point x="139" y="277" type="curve" smooth="yes"/>
      <point x="220" y="277" type="line" smooth="yes"/>
      <point x="242" y="277"/>
      <point x="248" y="271"/>
      <point x="248" y="250" type="curve" smooth="yes"/>
    </contour>
  </outline>
</glyph>
<glyph name="percent" format="1">
  <advance width="716"/>
  <unicode hex="0025"/>
  <outline>
    <contour>
      <point x="283" y="547" type="line"/>
      <point x="283" y="601"/>
      <point x="258" y="631"/>
      <point x="194" y="631" type="curve" smooth="yes"/>
      <point x="117" y="631" type="line" smooth="yes"/>
      <point x="54" y="631"/>
      <point x="28" y="601"/>
      <point x="28" y="547" type="curve" smooth="yes"/>
      <point x="28" y="363" type="line" smooth="yes"/>
      <point x="28" y="310"/>
      <point x="54" y="280"/>
      <point x="117" y="280" type="curve"/>
      <point x="194" y="280" type="line" smooth="yes"/>
      <point x="258" y="280"/>
      <point x="283" y="310"/>
      <point x="283" y="363" type="curve" smooth="yes"/>
    </contour>
    <contour>
      <point x="688" y="267" type="line"/>
      <point x="688" y="322"/>
      <point x="662" y="351"/>
      <point x="599" y="351" type="curve"/>
      <point x="522" y="351" type="line"/>
      <point x="458" y="351"/>
      <point x="433" y="322"/>
      <point x="433" y="267" type="curve" smooth="yes"/>
      <point x="433" y="84" type="line" smooth="yes"/>
      <point x="433" y="30"/>
      <point x="458" y="0"/>
      <point x="522" y="0" type="curve" smooth="yes"/>
      <point x="599" y="0" type="line" smooth="yes"/>
      <point x="662" y="0"/>
      <point x="688" y="30"/>
      <point x="688" y="84" type="curve" smooth="yes"/>
    </contour>
    <contour>
      <point x="190" y="377" type="line"/>
      <point x="190" y="358"/>
      <point x="186" y="353"/>
      <point x="166" y="353" type="curve" smooth="yes"/>
      <point x="146" y="353" type="line" smooth="yes"/>
      <point x="126" y="353"/>
      <point x="121" y="358"/>
      <point x="121" y="377" type="curve" smooth="yes"/>
      <point x="121" y="533" type="line" smooth="yes"/>
      <point x="121" y="552"/>
      <point x="126" y="558"/>
      <point x="146" y="558" type="curve"/>
      <point x="166" y="558" type="line" smooth="yes"/>
      <point x="186" y="558"/>
      <point x="190" y="552"/>
      <point x="190" y="533" type="curve" smooth="yes"/>
    </contour>
    <contour>
      <point x="595" y="98" type="line"/>
      <point x="595" y="78"/>
      <point x="590" y="73"/>
      <point x="570" y="73" type="curve"/>
      <point x="550" y="73" type="line"/>
      <point x="530" y="73"/>
      <point x="526" y="78"/>
      <point x="526" y="98" type="curve" smooth="yes"/>
      <point x="526" y="253" type="line" smooth="yes"/>
      <point x="526" y="273"/>
      <point x="530" y="278"/>
      <point x="550" y="278" type="curve" smooth="yes"/>
      <point x="570" y="278" type="line" smooth="yes"/>
      <point x="590" y="278"/>
      <point x="595" y="273"/>
      <point x="595" y="253" type="curve" smooth="yes"/>
    </contour>
    <contour>
      <point x="469" y="631" type="line"/>
      <point x="158" y="0" type="line"/>
      <point x="247" y="0" type="line"/>
      <point x="559" y="631" type="line"/>
    </contour>
  </outline>
</glyph>
<glyph name="ampersand" format="1">
  <advance width="509"/>
  <unicode hex="0026"/>
  <outline>
    <contour>
      <point x="557" y="-35" type="line"/>
      <point x="243" y="332" type="line" smooth="yes"/>
      <point x="204" y="377"/>
      <point x="176" y="401"/>
      <point x="176" y="438" type="curve" smooth="yes"/>
      <point x="176" y="521" type="line"/>
      <point x="176" y="543"/>
      <point x="182" y="548"/>
      <point x="204" y="548" type="curve" smooth="yes"/>
      <point x="243" y="548" type="line" smooth="yes"/>
      <point x="265" y="548"/>
      <point x="271" y="543"/>
      <point x="271" y="521" type="curve" smooth="yes"/>
      <point x="271" y="445" type="line" smooth="yes"/>
      <point x="271" y="409"/>
      <point x="253" y="394"/>
      <point x="215" y="369" type="curve" smooth="yes"/>
      <point x="106" y="296" type="line" smooth="yes"/>
      <point x="53" y="264"/>
      <point x="36" y="241"/>
      <point x="36" y="189" type="curve" smooth="yes"/>
      <point x="36" y="99" type="line" smooth="yes"/>
      <point x="36" y="36"/>
      <point x="68" y="0"/>
      <point x="145" y="0" type="curve" smooth="yes"/>
      <point x="369" y="0" type="line" smooth="yes"/>
      <point x="445" y="0"/>
      <point x="481" y="36"/>
      <point x="481" y="99" type="curve" smooth="yes"/>
      <point x="481" y="236" type="line"/>
      <point x="389" y="236" type="line"/>
      <point x="389" y="111" type="line" smooth="yes"/>
      <point x="389" y="90"/>
      <point x="383" y="84"/>
      <point x="361" y="84" type="curve" smooth="yes"/>
      <point x="175" y="84" type="line" smooth="yes"/>
      <point x="153" y="84"/>
      <point x="146" y="90"/>
      <point x="146" y="111" type="curve" smooth="yes"/>
      <point x="146" y="178" type="line" smooth="yes"/>
      <point x="146" y="206"/>
      <point x="155" y="216"/>
      <point x="174" y="229" type="curve" smooth="yes"/>
      <point x="297" y="307" type="line" smooth="yes"/>
      <point x="352" y="342"/>
      <point x="382" y="373"/>
      <point x="382" y="447" type="curve" smooth="yes"/>
      <point x="382" y="532" type="line" smooth="yes"/>
      <point x="382" y="595"/>
      <point x="351" y="631"/>
      <point x="275" y="631" type="curve" smooth="yes"/>
      <point x="172" y="631" type="line"/>
      <point x="95" y="631"/>
      <point x="63" y="595"/>
      <point x="63" y="532" type="curve" smooth="yes"/>
      <point x="63" y="444" type="line" smooth="yes"/>
      <point x="63" y="395"/>
      <point x="96" y="357"/>
      <point x="139" y="306" type="curve" smooth="yes"/>
      <point x="439" y="-35" type="line"/>
    </contour>
  </outline>
</glyph>
<glyph name="quotesingle" format="1">
  <advance width="185"/>
  <unicode hex="0027"/>
  <outline>
    <contour>
      <point x="37" y="631" type="line"/>
      <point x="37" y="395" type="line"/>
      <point x="148" y="395" type="line"/>
      <point x="148" y="631" type="line"/>
    </contour>
  </outline>
</glyph>
<glyph name="parenleft" format="1">
  <advance width="285"/>
  <unicode hex="0028"/>
  <outline>
    <contour>
      <point x="45" y="410" type="curve"/>
      <point x="45" y="214" type="line"/>
      <point x="45" y="-34"/>
      <point x="126" y="-173"/>
      <point x="283" y="-173" type="curve" smooth="yes"/>
      <point x="296" y="-173" type="line"/>
      <point x="296" y="-77" type="line"/>
      <point x="284" y="-76" type="line" smooth="yes"/>
      <point x="197" y="-72"/>
      <point x="160" y="35"/>
      <point x="160" y="212" type="curve" smooth="yes"/>
      <point x="160" y="412" type="line" smooth="yes"/>
      <point x="160" y="589"/>
      <point x="197" y="696"/>
      <point x="284" y="700" type="curve" smooth="yes"/>
      <point x="296" y="701" type="line"/>
      <point x="296" y="797" type="line"/>
      <point x="283" y="797" type="line" smooth="yes"/>
      <point x="126" y="797"/>
      <point x="45" y="658"/>
    </contour>
  </outline>
</glyph>
<glyph name="parenright" format="1">
  <advance width="285"/>
  <unicode hex="0029"/>
  <outline>
    <contour>
      <point x="239" y="214" type="curve"/>
      <point x="239" y="410" type="line"/>
      <point x="239" y="658"/>
      <point x="158" y="797"/>
      <point x="1" y="797" type="curve" smooth="yes"/>
      <point x="-12" y="797" type="line"/>
      <point x="-12" y="701" type="line"/>
      <point x="0" y="700" type="line" smooth="yes"/>
      <point x="86" y="696"/>
      <point x="124" y="589"/>
      <point x="124" y="412" type="curve" smooth="yes"/>
      <point x="124" y="212" type="line" smooth="yes"/>
      <point x="124" y="35"/>
      <point x="86" y="-72"/>
      <point x="0" y="-76" type="curve" smooth="yes"/>
      <point x="-12" y="-77" type="line"/>
      <point x="-12" y="-173" type="line"/>
      <point x="1" y="-173" type="line" smooth="yes"/>
      <point x="158" y="-173"/>
      <point x="239" y="-34"/>
    </contour>
  </outline>
</glyph>
<glyph name="asterisk" format="1">
  <advance width="341"/>
  <unicode hex="002A"/>
  <outline>
    <contour>
      <point x="186" y="483" type="line"/>
      <point x="186" y="483"/>
      <point x="215" y="523"/>
      <point x="215" y="600" type="curve" smooth="yes"/>
      <point x="215" y="631" type="line"/>
      <point x="126" y="631" type="line"/>
      <point x="126" y="601" type="line" smooth="yes"/>
      <point x="126" y="523"/>
      <point x="155" y="483"/>
      <point x="155" y="483" type="curve"/>
    </contour>
    <contour>
      <point x="175" y="498" type="line"/>
      <point x="175" y="498"/>
      <point x="146" y="538"/>
      <point x="73" y="562" type="curve" smooth="yes"/>
      <point x="44" y="571" type="line"/>
      <point x="16" y="486" type="line"/>
      <point x="45" y="477" type="line" smooth="yes"/>
      <point x="119" y="452"/>
      <point x="166" y="469"/>
      <point x="166" y="469" type="curve"/>
    </contour>
    <contour>
      <point x="158" y="492" type="line"/>
      <point x="158" y="492"/>
      <point x="111" y="477"/>
      <point x="66" y="415" type="curve" smooth="yes"/>
      <point x="47" y="390" type="line"/>
      <point x="120" y="337" type="line"/>
      <point x="138" y="361" type="line" smooth="yes"/>
      <point x="184" y="424"/>
      <point x="183" y="474"/>
      <point x="183" y="474" type="curve"/>
    </contour>
    <contour>
      <point x="158" y="474" type="line"/>
      <point x="158" y="474"/>
      <point x="159" y="424"/>
      <point x="203" y="363" type="curve" smooth="yes"/>
      <point x="222" y="337" type="line"/>
      <point x="294" y="390" type="line"/>
      <point x="276" y="415" type="line" smooth="yes"/>
      <point x="231" y="478"/>
      <point x="183" y="492"/>
      <point x="183" y="492" type="curve"/>
    </contour>
    <contour>
      <point x="175" y="469" type="line"/>
      <point x="175" y="469"/>
      <point x="223" y="453"/>
      <point x="295" y="477" type="curve" smooth="yes"/>
      <point x="325" y="486" type="line"/>
      <point x="297" y="571" type="line"/>
      <point x="269" y="562" type="line" smooth="yes"/>
      <point x="194" y="539"/>
      <point x="166" y="498"/>
      <point x="166" y="498" type="curve"/>
    </contour>
  </outline>
</glyph>
<glyph name="plus" format="1">
  <advance width="439"/>
  <unicode hex="002B"/>
  <outline>
    <contour>
      <point x="21" y="270" type="line"/>
      <point x="418" y="270" type="line"/>
      <point x="418" y="359" type="line"/>
      <point x="21" y="359" type="line"/>
    </contour>
    <contour>
      <point x="164" y="511" type="line"/>
      <point x="164" y="118" type="line"/>
      <point x="275" y="118" type="line"/>
      <point x="275" y="511" type="line"/>
    </contour>
  </outline>
</glyph>
<glyph name="comma" format="1">
  <advance width="190"/>
  <unicode hex="002C"/>
  <outline>
    <contour>
      <point x="34" y="135" type="line"/>
      <point x="34" y="-142" type="line"/>
      <point x="72" y="-142" type="line"/>
      <point x="156" y="63" type="line"/>
      <point x="156" y="135" type="line"/>
    </contour>
  </outline>
</glyph>
<glyph name="hyphen" format="1">
  <advance width="323"/>
  <unicode hex="002D"/>
  <outline>
    <contour>
      <point x="40" y="255" type="line"/>
      <point x="283" y="255" type="line"/>
      <point x="283" y="338" type="line"/>
      <point x="40" y="338" type="line"/>
    </contour>
  </outline>
</glyph>
<glyph name="period" format="1">
  <advance width="190"/>
  <unicode hex="002E"/>
  <outline>
    <contour>
      <point x="34" y="0" type="line"/>
      <point x="156" y="0" type="line"/>
      <point x="156" y="135" type="line"/>
      <point x="34" y="135" type="line"/>
    </contour>
  </outline>
</glyph>
<glyph name="zero" format="1">
  <advance width="423"/>
  <unicode hex="0030"/>
  <outline>
    <contour>
      <point x="378" y="532" type="line"/>
      <point x="378" y="595"/>
      <point x="346" y="631"/>
      <point x="269" y="631" type="curve" smooth="yes"/>
      <point x="153" y="631" type="line" smooth="yes"/>
      <point x="76" y="631"/>
      <point x="44" y="595"/>
      <point x="44" y="532" type="curve" smooth="yes"/>
      <point x="44" y="99" type="line" smooth="yes"/>
      <point x="44" y="36"/>
      <point x="76" y="0"/>
      <point x="153" y="0" type="curve"/>
      <point x="269" y="0" type="line" smooth="yes"/>
      <point x="346" y="0"/>
      <point x="378" y="36"/>
      <point x="378" y="99" type="curve" smooth="yes"/>
    </contour>
    <contour>
      <point x="263" y="115" type="line"/>
      <point x="263" y="94"/>
      <point x="256" y="88"/>
      <point x="234" y="88" type="curve" smooth="yes"/>
      <point x="188" y="88" type="line" smooth="yes"/>
      <point x="166" y="88"/>
      <point x="160" y="94"/>
      <point x="160" y="115" type="curve"/>
      <point x="160" y="516" type="line" smooth="yes"/>
      <point x="160" y="537"/>
      <point x="166" y="543"/>
      <point x="188" y="543" type="curve" smooth="yes"/>
      <point x="234" y="543" type="line" smooth="yes"/>
      <point x="256" y="543"/>
      <point x="263" y="537"/>
      <point x="263" y="516" type="curve" smooth="yes"/>
    </contour>
  </outline>
</glyph>
<glyph name="five" format="1">
  <advance width="399"/>
  <unicode hex="0035"/>
  <outline>
    <contour>
      <point x="156" y="207" type="line"/>
      <point x="40" y="207" type="line"/>
      <point x="40" y="99" type="line" smooth="yes"/>
      <point x="40" y="36"/>
      <point x="72" y="0"/>
      <point x="149" y="0" type="curve" smooth="yes"/>
      <point x="256" y="0" type="line" smooth="yes"/>
      <point x="333" y="0"/>
      <point x="365" y="36"/>
      <point x="365" y="99" type="curve" smooth="yes"/>
      <point x="365" y="302" type="line" smooth="yes"/>
      <point x="365" y="364"/>
      <point x="333" y="401"/>
      <point x="256" y="401" type="curve" smooth="yes"/>
      <point x="113" y="401" type="line"/>
      <point x="113" y="313" type="line"/>
      <point x="222" y="313" type="line" smooth="yes"/>
      <point x="244" y="313"/>
      <point x="251" y="307"/>
      <point x="251" y="286" type="curve" smooth="yes"/>
      <point x="251" y="115" type="line" smooth="yes"/>
      <point x="251" y="94"/>
      <point x="244" y="88"/>
      <point x="222" y="88" type="curve" smooth="yes"/>
      <point x="184" y="88" type="line" smooth="yes"/>
      <point x="162" y="88"/>
      <point x="156" y="94"/>
      <point x="156" y="115" type="curve" smooth="yes"/>
    </contour>
    <contour>
      <point x="158" y="313" type="line"/>
      <point x="158" y="543" type="line"/>
      <point x="361" y="543" type="line"/>
      <point x="361" y="631" type="line"/>
      <point x="44" y="631" type="line"/>
      <point x="44" y="313" type="line"/>
    </contour>
  </outline>
</glyph>
<glyph name="eight" format="1">
  <advance width="421"/>
  <unicode hex="0038"/>
  <outline>
    <contour>
      <point x="155" y="252" type="line"/>
      <point x="155" y="273"/>
      <point x="161" y="279"/>
      <point x="183" y="279" type="curve" smooth="yes"/>
      <point x="215" y="279" type="line"/>
      <point x="215" y="358" type="line"/>
      <point x="183" y="358" type="line" smooth="yes"/>
      <point x="161" y="358"/>
      <point x="155" y="364"/>
      <point x="155" y="385" type="curve" smooth="yes"/>
      <point x="155" y="517" type="line" smooth="yes"/>
      <point x="155" y="538"/>
      <point x="161" y="544"/>
      <point x="183" y="544" type="curve" smooth="yes"/>
      <point x="215" y="544" type="line"/>
      <point x="215" y="631" type="line"/>
      <point x="152" y="631" type="line" smooth="yes"/>
      <point x="76" y="631"/>
      <point x="43" y="595"/>
      <point x="43" y="532" type="curve" smooth="yes"/>
      <point x="43" y="395" type="line" smooth="yes"/>
      <point x="43" y="356"/>
      <point x="55" y="329"/>
      <point x="85" y="319" type="curve"/>
      <point x="55" y="309"/>
      <point x="43" y="286"/>
      <point x="43" y="247" type="curve" smooth="yes"/>
      <point x="43" y="99" type="line" smooth="yes"/>
      <point x="43" y="36"/>
      <point x="76" y="0"/>
      <point x="152" y="0" type="curve" smooth="yes"/>
      <point x="214" y="0" type="line"/>
      <point x="214" y="87" type="line"/>
      <point x="183" y="87" type="line" smooth="yes"/>
      <point x="161" y="87"/>
      <point x="155" y="93"/>
      <point x="155" y="114" type="curve" smooth="yes"/>
    </contour>
    <contour>
      <point x="266" y="385" type="line"/>
      <point x="266" y="364"/>
      <point x="259" y="358"/>
      <point x="237" y="358" type="curve" smooth="yes"/>
      <point x="206" y="358" type="line"/>
      <point x="206" y="279" type="line"/>
      <point x="237" y="279" type="line" smooth="yes"/>
      <point x="259" y="279"/>
      <point x="266" y="273"/>
      <point x="266" y="252" type="curve" smooth="yes"/>
      <point x="266" y="114" type="line" smooth="yes"/>
      <point x="266" y="93"/>
      <point x="259" y="87"/>
      <point x="237" y="87" type="curve" smooth="yes"/>
      <point x="207" y="87" type="line"/>
      <point x="207" y="0" type="line"/>
      <point x="268" y="0" type="line" smooth="yes"/>
      <point x="345" y="0"/>
      <point x="377" y="36"/>
      <point x="377" y="99" type="curve" smooth="yes"/>
      <point x="377" y="247" type="line" smooth="yes"/>
      <point x="377" y="286"/>
      <point x="366" y="309"/>
      <point x="335" y="319" type="curve"/>
      <point x="366" y="329"/>
      <point x="377" y="356"/>
      <point x="377" y="395" type="curve" smooth="yes"/>
      <point x="377" y="532" type="line" smooth="yes"/>
      <point x="377" y="595"/>
      <point x="345" y="631"/>
      <point x="268" y="631" type="curve" smooth="yes"/>
      <point x="209" y="631" type="line"/>
      <point x="209" y="544" type="line"/>
      <point x="237" y="544" type="line" smooth="yes"/>
      <point x="259" y="544"/>
      <point x="266" y="538"/>
      <point x="266" y="517" type="curve" smooth="yes"/>
    </contour>
  </outline>
</glyph>
<glyph name="colon" format="1">
  <advance width="190"/>
  <unicode hex="003A"/>
  <outline>
    <contour>
      <point x="34" y="147" type="line"/>
      <point x="156" y="147" type="line"/>
      <point x="156" y="282" type="line"/>
      <point x="34" y="282" type="line"/>
    </contour>
    <contour>
      <point x="34" y="209" type="line"/>
      <point x="156" y="209" type="line"/>
      <point x="156" y="344" type="line"/>
      <point x="34" y="344" type="line"/>
    </contour>
  </outline>
</glyph>
<glyph name="semicolon" format="1">
  <advance width="190"/>
  <unicode hex="003B"/>
  <outline>
    <contour>
      <point x="34" y="135" type="line"/>
      <point x="34" y="-142" type="line"/>
      <point x="72" y="-142" type="line"/>
      <point x="156" y="63" type="line"/>
      <point x="156" y="135" type="line"/>
    </contour>
    <contour>
      <point x="34" y="356" type="line"/>
      <point x="156" y="356" type="line"/>
      <point x="156" y="491" type="line"/>
      <point x="34" y="491" type="line"/>
    </contour>
  </outline>
</glyph>
<glyph name="less" format="1">
  <advance width="453"/>
  <unicode hex="003C"/>
  <outline>
    <contour>
      <point x="425" y="400" type="line"/>
      <point x="425" y="496" type="line"/>
      <point x="28" y="371" type="line"/>
      <point x="28" y="263" type="line"/>
      <point x="425" y="135" type="line"/>
      <point x="425" y="231" type="line"/>
      <point x="137" y="316" type="line"/>
    </contour>
  </outline>
</glyph>
<glyph name="equal" format="1">
  <advance width="453"/>
  <unicode hex="003D"/>
  <outline>
    <contour>
      <point x="28" y="364" type="line"/>
      <point x="425" y="364" type="line"/>
      <point x="425" y="455" type="line"/>
      <point x="28" y="455" type="line"/>
    </contour>
    <contour>
      <point x="28" y="174" type="line"/>
      <point x="425" y="174" type="line"/>
      <point x="425" y="266" type="line"/>
      <point x="28" y="266" type="line"/>
    </contour>
  </outline>
</glyph>
<glyph name="greater" format="1">
  <advance width="453"/>
  <unicode hex="003E"/>
  <outline>
    <contour>
      <point x="316" y="316" type="line"/>
      <point x="28" y="231" type="line"/>
      <point x="28" y="135" type="line"/>
      <point x="425" y="263" type="line"/>
      <point x="425" y="371" type="line"/>
      <point x="28" y="496" type="line"/>
      <point x="28" y="400" type="line"/>
    </contour>
  </outline>
</glyph>
<glyph name="question" format="1">
  <advance width="379"/>
  <unicode hex="003F"/>
  <outline>
    <contour>
      <point x="229" y="378" type="line"/>
      <point x="229" y="358"/>
      <point x="224" y="350"/>
      <point x="203" y="350" type="curve" smooth="yes"/>
      <point x="161" y="350" type="line"/>
      <point x="161" y="277" type="line"/>
      <point x="236" y="277" type="line" smooth="yes"/>
      <point x="314" y="277"/>
      <point x="345" y="316"/>
      <point x="345" y="375" type="curve" smooth="yes"/>
      <point x="345" y="533" type="line" smooth="yes"/>
      <point x="345" y="592"/>
      <point x="314" y="631"/>
      <point x="236" y="631" type="curve" smooth="yes"/>
      <point x="170" y="631" type="line"/>
      <point x="170" y="548" type="line"/>
      <point x="203" y="548" type="line" smooth="yes"/>
      <point x="224" y="548"/>
      <point x="229" y="540"/>
      <point x="229" y="520" type="curve" smooth="yes"/>
    </contour>
    <contour>
      <point x="117" y="350" type="line"/>
      <point x="127" y="212" type="line"/>
      <point x="223" y="212" type="line"/>
      <point x="234" y="350" type="line"/>
    </contour>
    <contour>
      <point x="113" y="0" type="line"/>
      <point x="235" y="0" type="line"/>
      <point x="235" y="135" type="line"/>
      <point x="113" y="135" type="line"/>
    </contour>
    <contour>
      <point x="136" y="520" type="line"/>
      <point x="136" y="540"/>
      <point x="141" y="548"/>
      <point x="163" y="548" type="curve" smooth="yes"/>
      <point x="189" y="548" type="line"/>
      <point x="189" y="631" type="line"/>
      <point x="129" y="631" type="line" smooth="yes"/>
      <point x="50" y="631"/>
      <point x="20" y="592"/>
      <point x="20" y="533" type="curve" smooth="yes"/>
      <point x="20" y="449" type="line"/>
      <point x="136" y="449" type="line"/>
    </contour>
  </outline>
</glyph>
<glyph name="at" format="1">
  <advance width="744"/>
  <unicode hex="0040"/>
  <outline>
    <contour>
      <point x="237" y="337" type="curve"/>
      <point x="237" y="175" type="line" smooth="yes"/>
      <point x="237" y="115"/>
      <point x="267" y="81"/>
      <point x="334" y="81" type="curve" smooth="yes"/>
      <point x="358" y="81" type="line" smooth="yes"/>
      <point x="397" y="81"/>
      <point x="424" y="98"/>
      <point x="430" y="135" type="curve"/>
      <point x="430" y="81" type="line"/>
      <point x="596" y="81" type="line" smooth="yes"/>
      <point x="667" y="81"/>
      <point x="698" y="117"/>
      <point x="698" y="179" type="curve" smooth="yes"/>
      <point x="698" y="489" type="line" smooth="yes"/>
      <point x="698" y="552"/>
      <point x="668" y="588"/>
      <point x="596" y="588" type="curve" smooth="yes"/>
      <point x="168" y="588" type="line" smooth="yes"/>
      <point x="96" y="588"/>
      <point x="65" y="552"/>
      <point x="65" y="489" type="curve" smooth="yes"/>
      <point x="65" y="19" type="line" smooth="yes"/>
      <point x="65" y="-44"/>
      <point x="96" y="-80"/>
      <point x="168" y="-80" type="curve" smooth="yes"/>
      <point x="524" y="-80" type="line"/>
      <point x="524" y="5" type="line"/>
      <point x="198" y="5" type="line" smooth="yes"/>
      <point x="176" y="5"/>
      <point x="170" y="11"/>
      <point x="170" y="32" type="curve" smooth="yes"/>
      <point x="170" y="475" type="line" smooth="yes"/>
      <point x="170" y="497"/>
      <point x="176" y="503"/>
      <point x="198" y="503" type="curve" smooth="yes"/>
      <point x="568" y="503" type="line" smooth="yes"/>
      <point x="590" y="503"/>
      <point x="596" y="497"/>
      <point x="596" y="475" type="curve" smooth="yes"/>
      <point x="596" y="186" type="line" smooth="yes"/>
      <point x="596" y="165"/>
      <point x="590" y="159"/>
      <point x="568" y="159" type="curve" smooth="yes"/>
      <point x="523" y="159" type="line"/>
      <point x="523" y="431" type="line"/>
      <point x="426" y="431" type="line"/>
      <point x="426" y="387" type="line"/>
      <point x="417" y="416"/>
      <point x="393" y="431"/>
      <point x="358" y="431" type="curve" smooth="yes"/>
      <point x="334" y="431" type="line" smooth="yes"/>
      <point x="267" y="431"/>
      <point x="237" y="397"/>
    </contour>
    <contour>
      <point x="340" y="326" type="line"/>
      <point x="340" y="347"/>
      <point x="346" y="352"/>
      <point x="367" y="352" type="curve" smooth="yes"/>
      <point x="395" y="352" type="line" smooth="yes"/>
      <point x="415" y="352"/>
      <point x="424" y="344"/>
      <point x="424" y="320" type="curve" smooth="yes"/>
      <point x="424" y="192" type="line" smooth="yes"/>
      <point x="424" y="168"/>
      <point x="415" y="160"/>
      <point x="395" y="160" type="curve" smooth="yes"/>
      <point x="367" y="160" type="line" smooth="yes"/>
      <point x="346" y="160"/>
      <point x="340" y="165"/>
      <point x="340" y="186" type="curve" smooth="yes"/>
    </contour>
  </outline>
</glyph>
<glyph name="A" format="1">
  <advance width="431"/>
  <unicode hex="0041"/>
  <outline>
    <contour>
      <point x="334" y="218" type="line"/>
      <point x="96" y="218" type="line"/>
      <point x="96" y="131" type="line"/>
      <point x="334" y="131" type="line"/>
    </contour>
    <contour>
      <point x="423" y="0" type="line"/>
      <point x="290" y="631" type="line"/>
      <point x="135" y="631" type="line"/>
      <point x="8" y="0" type="line"/>
      <point x="123" y="0" type="line"/>
      <point x="212" y="520" type="line"/>
      <point x="307" y="0" type="line"/>
    </contour>
  </outline>
</glyph>
<glyph name="B" format="1">
  <advance width="440"/>
  <unicode hex="0042"/>
  <outline>
    <contour>
      <point x="48" y="631" type="line"/>
      <point x="48" y="0" type="line"/>
      <point x="288" y="0" type="line" smooth="yes"/>
      <point x="365" y="0"/>
      <point x="397" y="36"/>
      <point x="397" y="99" type="curve"/>
      <point x="397" y="247" type="line" smooth="yes"/>
      <point x="397" y="286"/>
      <point x="385" y="309"/>
      <point x="355" y="319" type="curve"/>
      <point x="385" y="329"/>
      <point x="397" y="357"/>
      <point x="397" y="396" type="curve" smooth="yes"/>
      <point x="397" y="532" type="line" smooth="yes"/>
      <point x="397" y="595"/>
      <point x="365" y="631"/>
      <point x="288" y="631" type="curve" smooth="yes"/>
    </contour>
    <contour>
      <point x="283" y="111" type="line"/>
      <point x="283" y="90"/>
      <point x="276" y="84"/>
      <point x="254" y="84" type="curve" smooth="yes"/>
      <point x="163" y="84" type="line"/>
      <point x="163" y="277" type="line"/>
      <point x="254" y="277" type="line" smooth="yes"/>
      <point x="276" y="277"/>
      <point x="283" y="272"/>
      <point x="283" y="250" type="curve"/>
    </contour>
    <contour>
      <point x="283" y="388" type="line"/>
      <point x="283" y="367"/>
      <point x="276" y="361"/>
      <point x="254" y="361" type="curve" smooth="yes"/>
      <point x="163" y="361" type="line"/>
      <point x="163" y="547" type="line"/>
      <point x="254" y="547" type="line" smooth="yes"/>
      <point x="276" y="547"/>
      <point x="283" y="541"/>
      <point x="283" y="520" type="curve" smooth="yes"/>
    </contour>
  </outline>
</glyph>
<glyph name="C" format="1">
  <advance width="411"/>
  <unicode hex="0043"/>
  <outline>
    <contour>
      <point x="159" y="520" type="line"/>
      <point x="159" y="541"/>
      <point x="165" y="547"/>
      <point x="187" y="547" type="curve" smooth="yes"/>
      <point x="219" y="547" type="line"/>
      <point x="219" y="631" type="line"/>
      <point x="152" y="631" type="line" smooth="yes"/>
      <point x="76" y="631"/>
      <point x="43" y="595"/>
      <point x="43" y="532" type="curve" smooth="yes"/>
      <point x="43" y="98" type="line" smooth="yes"/>
      <point x="43" y="36"/>
      <point x="76" y="-1"/>
      <point x="152" y="-1" type="curve"/>
      <point x="215" y="-1" type="line"/>
      <point x="215" y="83" type="line"/>
      <point x="187" y="83" type="line" smooth="yes"/>
      <point x="165" y="83"/>
      <point x="159" y="89"/>
      <point x="159" y="110" type="curve" smooth="yes"/>
    </contour>
    <contour>
      <point x="262" y="422" type="line"/>
      <point x="378" y="422" type="line"/>
      <point x="378" y="532" type="line" smooth="yes"/>
      <point x="378" y="595"/>
      <point x="345" y="631"/>
      <point x="269" y="631" type="curve" smooth="yes"/>
      <point x="203" y="631" type="line"/>
      <point x="203" y="547" type="line"/>
      <point x="234" y="547" type="line" smooth="yes"/>
      <point x="256" y="547"/>
      <point x="262" y="541"/>
      <point x="262" y="520" type="curve" smooth="yes"/>
    </contour>
    <contour>
      <point x="262" y="110" type="line"/>
      <point x="262" y="89"/>
      <point x="256" y="83"/>
      <point x="234" y="83" type="curve" smooth="yes"/>
      <point x="203" y="83" type="line"/>
      <point x="203" y="-1" type="line"/>
      <point x="269" y="-1" type="line" smooth="yes"/>
      <point x="345" y="-1"/>
      <point x="378" y="36"/>
      <point x="378" y="98" type="curve" smooth="yes"/>
      <point x="378" y="206" type="line"/>
      <point x="262" y="206" type="line"/>
    </contour>
  </outline>
</glyph>
<glyph name="D" format="1">
  <advance width="446"/>
  <unicode hex="0044"/>
  <outline>
    <contour>
      <point x="286" y="387" type="line"/>
      <point x="402" y="387" type="line"/>
      <point x="402" y="532" type="line" smooth="yes"/>
      <point x="402" y="595"/>
      <point x="370" y="631"/>
      <point x="293" y="631" type="curve" smooth="yes"/>
      <point x="100" y="631" type="line"/>
      <point x="100" y="547" type="line"/>
      <point x="258" y="547" type="line" smooth="yes"/>
      <point x="280" y="547"/>
      <point x="286" y="541"/>
      <point x="286" y="520" type="curve" smooth="yes"/>
    </contour>
    <contour>
      <point x="286" y="111" type="line"/>
      <point x="286" y="90"/>
      <point x="280" y="84"/>
      <point x="258" y="84" type="curve" smooth="yes"/>
      <point x="100" y="84" type="line"/>
      <point x="100" y="0" type="line"/>
      <point x="293" y="0" type="line" smooth="yes"/>
      <point x="370" y="0"/>
      <point x="402" y="36"/>
      <point x="402" y="99" type="curve" smooth="yes"/>
      <point x="402" y="407" type="line"/>
      <point x="286" y="407" type="line"/>
    </contour>
    <contour>
      <point x="53" y="631" type="line"/>
      <point x="53" y="0" type="line"/>
      <point x="168" y="0" type="line"/>
      <point x="168" y="631" type="line"/>
    </contour>
  </outline>
</glyph>
<glyph name="E" format="1">
  <advance width="374"/>
  <unicode hex="0045"/>
  <outline>
    <contour>
      <point x="48" y="631" type="line"/>
      <point x="48" y="0" type="line"/>
      <point x="164" y="0" type="line"/>
      <point x="164" y="631" type="line"/>
    </contour>
    <contour>
      <point x="319" y="368" type="line"/>
      <point x="106" y="368" type="line"/>
      <point x="106" y="279" type="line"/>
      <point x="319" y="279" type="line"/>
    </contour>
    <contour>
      <point x="348" y="631" type="line"/>
      <point x="100" y="631" type="line"/>
      <point x="100" y="543" type="line"/>
      <point x="348" y="543" type="line"/>
    </contour>
    <contour>
      <point x="356" y="88" type="line"/>
      <point x="100" y="88" type="line"/>
      <point x="100" y="0" type="line"/>
      <point x="356" y="0" type="line"/>
    </contour>
  </outline>
</glyph>
<glyph name="H" format="1">
  <advance width="456"/>
  <unicode hex="0048"/>
  <outline>
    <contour>
      <point x="320" y="357" type="line"/>
      <point x="135" y="357" type="line"/>
      <point x="135" y="269" type="line"/>
      <point x="320" y="269" type="line"/>
    </contour>
    <contour>
      <point x="48" y="631" type="line"/>
      <point x="48" y="0" type="line"/>
      <point x="163" y="0" type="line"/>
      <point x="163" y="631" type="line"/>
    </contour>
    <contour>
      <point x="293" y="631" type="line"/>
      <point x="293" y="0" type="line"/>
      <point x="408" y="0" type="line"/>
      <point x="408" y="631" type="line"/>
    </contour>
  </outline>
</glyph>
<glyph name="J" format="1">
  <advance width="370"/>
  <unicode hex="004A"/>
  <outline>
    <contour>
      <point x="13" y="221" type="line"/>
      <point x="13" y="99" type="line" smooth="yes"/>
      <point x="13" y="36"/>
      <point x="45" y="0"/>
      <point x="122" y="0" type="curve" smooth="yes"/>
      <point x="216" y="0" type="line" smooth="yes"/>
      <point x="293" y="0"/>
      <point x="325" y="36"/>
      <point x="325" y="99" type="curve" smooth="yes"/>
      <point x="325" y="631" type="line"/>
      <point x="209" y="631" type="line"/>
      <point x="209" y="115" type="line" smooth="yes"/>
      <point x="209" y="94"/>
      <point x="203" y="88"/>
      <point x="181" y="88" type="curve" smooth="yes"/>
      <point x="157" y="88" type="line" smooth="yes"/>
      <point x="135" y="88"/>
      <point x="128" y="94"/>
      <point x="128" y="115" type="curve" smooth="yes"/>
      <point x="128" y="221" type="line"/>
    </contour>
  </outline>
</glyph>
<glyph name="K" format="1">
  <advance width="426"/>
  <unicode hex="004B"/>
  <outline>
    <contour>
      <point x="168" y="317" type="line"/>
      <point x="293" y="0" type="line"/>
      <point x="417" y="0" type="line"/>
      <point x="288" y="317" type="line"/>
    </contour>
    <contour>
      <point x="288" y="317" type="line"/>
      <point x="418" y="631" type="line"/>
      <point x="294" y="631" type="line"/>
      <point x="168" y="317" type="line"/>
    </contour>
    <contour>
      <point x="48" y="631" type="line"/>
      <point x="48" y="0" type="line"/>
      <point x="163" y="0" type="line"/>
      <point x="163" y="631" type="line"/>
    </contour>
  </outline>
</glyph>
<glyph name="L" format="1">
  <advance width="334"/>
  <unicode hex="004C"/>
  <outline>
    <contour>
      <point x="48" y="631" type="line"/>
      <point x="48" y="0" type="line"/>
      <point x="163" y="0" type="line"/>
      <point x="163" y="631" type="line"/>
    </contour>
    <contour>
      <point x="97" y="0" type="line"/>
      <point x="331" y="0" type="line"/>
      <point x="331" y="88" type="line"/>
      <point x="97" y="88" type="line"/>
    </contour>
  </outline>
</glyph>
<glyph name="M" format="1">
  <advance width="561"/>
  <unicode hex="004D"/>
  <outline>
    <contour>
      <point x="327" y="137" type="line"/>
      <point x="411" y="443" type="line"/>
      <point x="411" y="0" type="line"/>
      <point x="512" y="0" type="line"/>
      <point x="512" y="631" type="line"/>
      <point x="386" y="631" type="line"/>
      <point x="280" y="256" type="line"/>
      <point x="174" y="631" type="line"/>
      <point x="48" y="631" type="line"/>
      <point x="48" y="0" type="line"/>
      <point x="150" y="0" type="line"/>
      <point x="150" y="442" type="line"/>
      <point x="234" y="137" type="line"/>
    </contour>
  </outline>
</glyph>
<glyph name="N" format="1">
  <advance width="446"/>
  <unicode hex="004E"/>
  <outline>
    <contour>
      <point x="292" y="631" type="line"/>
      <point x="292" y="219" type="line"/>
      <point x="159" y="631" type="line"/>
      <point x="48" y="631" type="line"/>
      <point x="48" y="0" type="line"/>
      <point x="154" y="0" type="line"/>
      <point x="154" y="418" type="line"/>
      <point x="289" y="0" type="line"/>
      <point x="397" y="0" type="line"/>
      <point x="397" y="631" type="line"/>
    </contour>
  </outline>
</glyph>
<glyph name="P" format="1">
  <advance width="415"/>
  <unicode hex="0050"/>
  <outline>
    <contour>
      <point x="274" y="347" type="line"/>
      <point x="274" y="326"/>
      <point x="268" y="320"/>
      <point x="246" y="320" type="curve" smooth="yes"/>
      <point x="97" y="320" type="line"/>
      <point x="97" y="232" type="line"/>
      <point x="280" y="232" type="line" smooth="yes"/>
      <point x="357" y="232"/>
      <point x="389" y="269"/>
      <point x="389" y="331" type="curve" smooth="yes"/>
      <point x="389" y="532" type="line" smooth="yes"/>
      <point x="389" y="595"/>
      <point x="357" y="631"/>
      <point x="280" y="631" type="curve" smooth="yes"/>
      <point x="74" y="631" type="line"/>
      <point x="74" y="543" type="line"/>
      <point x="246" y="543" type="line" smooth="yes"/>
      <point x="268" y="543"/>
      <point x="274" y="537"/>
      <point x="274" y="516" type="curve" smooth="yes"/>
    </contour>
    <contour>
      <point x="48" y="631" type="line"/>
      <point x="48" y="0" type="line"/>
      <point x="163" y="0" type="line"/>
      <point x="163" y="631" type="line"/>
    </contour>
  </outline>
</glyph>
<glyph name="Q" format="1">
  <advance width="429"/>
  <unicode hex="0051"/>
  <outline>
    <contour>
      <point x="269" y="244" type="line"/>
      <point x="384" y="244" type="line"/>
      <point x="384" y="532" type="line" smooth="yes"/>
      <point x="384" y="595"/>
      <point x="352" y="631"/>
      <point x="275" y="631" type="curve" smooth="yes"/>
      <point x="207" y="631" type="line"/>
      <point x="207" y="543" type="line"/>
      <point x="241" y="543" type="line" smooth="yes"/>
      <point x="263" y="543"/>
      <point x="269" y="537"/>
      <point x="269" y="516" type="curve" smooth="yes"/>
    </contour>
    <contour>
      <point x="269" y="115" type="line"/>
      <point x="269" y="94"/>
      <point x="263" y="88"/>
      <point x="241" y="88" type="curve" smooth="yes"/>
      <point x="203" y="88" type="line"/>
      <point x="203" y="0" type="line"/>
      <point x="275" y="0" type="line" smooth="yes"/>
      <point x="352" y="0"/>
      <point x="384" y="36"/>
      <point x="384" y="99" type="curve" smooth="yes"/>
      <point x="384" y="277" type="line"/>
      <point x="269" y="277" type="line"/>
    </contour>
    <contour>
      <point x="159" y="516" type="line"/>
      <point x="159" y="537"/>
      <point x="166" y="543"/>
      <point x="188" y="543" type="curve" smooth="yes"/>
      <point x="221" y="543" type="line"/>
      <point x="221" y="631" type="line"/>
      <point x="153" y="631" type="line" smooth="yes"/>
      <point x="76" y="631"/>
      <point x="44" y="595"/>
      <point x="44" y="532" type="curve" smooth="yes"/>
      <point x="44" y="243" type="line"/>
      <point x="159" y="243" type="line"/>
    </contour>
    <contour>
      <point x="159" y="282" type="line"/>
      <point x="44" y="282" type="line"/>
      <point x="44" y="99" type="line" smooth="yes"/>
      <point x="44" y="36"/>
      <point x="76" y="0"/>
      <point x="153" y="0" type="curve" smooth="yes"/>
      <point x="220" y="0" type="line"/>
      <point x="220" y="88" type="line"/>
      <point x="188" y="88" type="line" smooth="yes"/>
      <point x="166" y="88"/>
      <point x="159" y="94"/>
      <point x="159" y="115" type="curve" smooth="yes"/>
    </contour>
    <contour>
      <point x="158" y="75" type="line"/>
      <point x="285" y="-84" type="line"/>
      <point x="411" y="-84" type="line"/>
      <point x="282" y="75" type="line"/>
    </contour>
  </outline>
</glyph>
<glyph name="T" format="1">
  <advance width="346"/>
  <unicode hex="0054"/>
  <outline>
    <contour>
      <point x="115" y="604" type="line"/>
      <point x="115" y="0" type="line"/>
      <point x="230" y="0" type="line"/>
      <point x="230" y="604" type="line"/>
    </contour>
    <contour>
      <point x="341" y="631" type="line"/>
      <point x="5" y="631" type="line"/>
      <point x="5" y="543" type="line"/>
      <point x="341" y="543" type="line"/>
    </contour>
  </outline>
</glyph>
<glyph name="U" format="1">
  <advance width="434"/>
  <unicode hex="0055"/>
  <outline>
    <contour>
      <point x="272" y="115" type="line"/>
      <point x="272" y="94"/>
      <point x="265" y="88"/>
      <point x="243" y="88" type="curve" smooth="yes"/>
      <point x="206" y="88" type="line"/>
      <point x="206" y="0" type="line"/>
      <point x="278" y="0" type="line" smooth="yes"/>
      <point x="355" y="0"/>
      <point x="387" y="36"/>
      <point x="387" y="99" type="curve" smooth="yes"/>
      <point x="387" y="631" type="line"/>
      <point x="272" y="631" type="line"/>
    </contour>
    <contour>
      <point x="162" y="631" type="line"/>
      <point x="47" y="631" type="line"/>
      <point x="47" y="99" type="line" smooth="yes"/>
      <point x="47" y="36"/>
      <point x="79" y="0"/>
      <point x="156" y="0" type="curve" smooth="yes"/>
      <point x="222" y="0" type="line"/>
      <point x="222" y="88" type="line"/>
      <point x="190" y="88" type="line" smooth="yes"/>
      <point x="168" y="88"/>
      <point x="162" y="94"/>
      <point x="162" y="115" type="curve" smooth="yes"/>
    </contour>
  </outline>
</glyph>
<glyph name="V" format="1">
  <advance width="413"/>
  <unicode hex="0056"/>
  <outline>
    <contour>
      <point x="289" y="631" type="line"/>
      <point x="206" y="121" type="line"/>
      <point x="125" y="631" type="line"/>
      <point x="6" y="631" type="line"/>
      <point x="131" y="0" type="line"/>
      <point x="282" y="0" type="line"/>
      <point x="407" y="631" type="line"/>
    </contour>
  </outline>
</glyph>
<glyph name="W" format="1">
  <advance width="675"/>
  <unicode hex="0057"/>
  <outline>
    <contour>
      <point x="551" y="631" type="line"/>
      <point x="480" y="119" type="line"/>
      <point x="398" y="631" type="line"/>
      <point x="277" y="631" type="line"/>
      <point x="194" y="119" type="line"/>
      <point x="129" y="631" type="line"/>
      <point x="10" y="631" type="line"/>
      <point x="121" y="0" type="line"/>
      <point x="267" y="0" type="line"/>
      <point x="337" y="445" type="line"/>
      <point x="408" y="0" type="line"/>
      <point x="554" y="0" type="line"/>
      <point x="665" y="631" type="line"/>
    </contour>
  </outline>
</glyph>
<glyph name="X" format="1">
  <advance width="416"/>
  <unicode hex="0058"/>
  <outline>
    <contour>
      <point x="269" y="322" type="line"/>
      <point x="397" y="631" type="line"/>
      <point x="273" y="631" type="line"/>
      <point x="206" y="423" type="line"/>
      <point x="139" y="631" type="line"/>
      <point x="10" y="631" type="line"/>
      <point x="142" y="322" type="line"/>
      <point x="3" y="0" type="line"/>
      <point x="126" y="0" type="line"/>
      <point x="206" y="221" type="line"/>
      <point x="285" y="0" type="line"/>
      <point x="413" y="0" type="line"/>
    </contour>
  </outline>
</glyph>
<glyph name="Y" format="1">
  <advance width="407"/>
  <unicode hex="0059"/>
  <outline>
    <contour>
      <point x="259" y="185" type="line"/>
      <point x="404" y="631" type="line"/>
      <point x="287" y="631" type="line"/>
      <point x="206" y="307" type="line"/>
      <point x="120" y="631" type="line"/>
      <point x="3" y="631" type="line"/>
      <point x="155" y="185" type="line"/>
    </contour>
    <contour>
      <point x="150" y="248" type="line"/>
      <point x="150" y="0" type="line"/>
      <point x="265" y="0" type="line"/>
      <point x="265" y="248" type="line"/>
    </contour>
  </outline>
</glyph>
<glyph name="Z" format="1">
  <advance width="357"/>
  <unicode hex="005A"/>
  <outline>
    <contour>
      <point x="345" y="631" type="line"/>
      <point x="23" y="631" type="line"/>
      <point x="23" y="543" type="line"/>
      <point x="345" y="543" type="line"/>
    </contour>
    <contour>
      <point x="227" y="543" type="line"/>
      <point x="12" y="88" type="line"/>
      <point x="130" y="88" type="line"/>
      <point x="345" y="543" type="line"/>
    </contour>
    <contour>
      <point x="340" y="88" type="line"/>
      <point x="12" y="88" type="line"/>
      <point x="12" y="0" type="line"/>
      <point x="340" y="0" type="line"/>
    </contour>
  </outline>
</glyph>
<glyph name="bracketleft" format="1">
  <advance width="313"/>
  <unicode hex="005B"/>
  <outline>
    <contour>
      <point x="101" y="697" type="line"/>
      <point x="266" y="697" type="line"/>
      <point x="266" y="785" type="line"/>
      <point x="101" y="785" type="line"/>
    </contour>
    <contour>
      <point x="53" y="785" type="line"/>
      <point x="53" y="-163" type="line"/>
      <point x="169" y="-163" type="line"/>
      <point x="169" y="785" type="line"/>
    </contour>
    <contour>
      <point x="95" y="-163" type="line"/>
      <point x="266" y="-163" type="line"/>
      <point x="266" y="-75" type="line"/>
      <point x="95" y="-75" type="line"/>
    </contour>
  </outline>
</glyph>
<glyph name="backslash" format="1">
  <advance width="396"/>
  <unicode hex="005C"/>
  <outline>
    <contour>
      <point x="16" y="700" type="line"/>
      <point x="299" y="-103" type="line"/>
      <point x="401" y="-103" type="line"/>
      <point x="118" y="700" type="line"/>
    </contour>
  </outline>
</glyph>
<glyph name="bracketright" format="1">
  <advance width="313"/>
  <unicode hex="005D"/>
  <outline>
    <contour>
      <point x="199" y="785" type="line"/>
      <point x="34" y="785" type="line"/>
      <point x="34" y="697" type="line"/>
      <point x="199" y="697" type="line"/>
    </contour>
    <contour>
      <point x="131" y="785" type="line"/>
      <point x="131" y="-163" type="line"/>
      <point x="247" y="-163" type="line"/>
      <point x="247" y="785" type="line"/>
    </contour>
    <contour>
      <point x="205" y="-75" type="line"/>
      <point x="34" y="-75" type="line"/>
      <point x="34" y="-163" type="line"/>
      <point x="205" y="-163" type="line"/>
    </contour>
  </outline>
</glyph>
<glyph name="asciicircum" format="1">
  <advance width="558"/>
  <unicode hex="005E"/>
  <outline>
    <contour>
      <point x="195" y="670" type="line"/>
      <point x="66" y="306" type="line"/>
      <point x="184" y="306" type="line"/>
      <point x="269" y="569" type="line"/>
      <point x="355" y="306" type="line"/>
      <point x="473" y="306" type="line"/>
      <point x="344" y="670" type="line"/>
    </contour>
  </outline>
</glyph>
<glyph name="underscore" format="1">
  <advance width="474"/>
  <unicode hex="005F"/>
  <outline>
    <contour>
      <point x="0" y="-126" type="line"/>
      <point x="474" y="-126" type="line"/>
      <point x="474" y="-42" type="line"/>
      <point x="0" y="-42" type="line"/>
    </contour>
  </outline>
</glyph>
<glyph name="grave" format="1">
  <advance width="444"/>
  <unicode hex="0060"/>
  <outline>
    <contour>
      <point x="231" y="660" type="line"/>
      <point x="110" y="660" type="line"/>
      <point x="223" y="523" type="line"/>
      <point x="317" y="523" type="line"/>
    </contour>
  </outline>
</glyph>
<glyph name="a" format="1">
  <advance width="394"/>
  <unicode hex="0061"/>
  <outline>
    <contour>
      <point x="149" y="231" type="line"/>
      <point x="149" y="376" type="line" smooth="yes"/>
      <point x="149" y="397"/>
      <point x="155" y="403"/>
      <point x="177" y="403" type="curve" smooth="yes"/>
      <point x="207" y="403" type="line" smooth="yes"/>
      <point x="229" y="403"/>
      <point x="238" y="394"/>
      <point x="238" y="370" type="curve" smooth="yes"/>
      <point x="238" y="342" type="line"/>
      <point x="243" y="342" type="line"/>
      <point x="243" y="417" type="line" smooth="yes"/>
      <point x="243" y="466"/>
      <point x="216" y="491"/>
      <point x="169" y="491" type="curve" smooth="yes"/>
      <point x="138" y="491" type="line" smooth="yes"/>
      <point x="67" y="491"/>
      <point x="36" y="455"/>
      <point x="36" y="392" type="curve" smooth="yes"/>
      <point x="36" y="231" type="line"/>
    </contour>
    <contour>
      <point x="352" y="0" type="line"/>
      <point x="352" y="491" type="line"/>
      <point x="240" y="491" type="line"/>
      <point x="240" y="419" type="line"/>
      <point x="238" y="414" type="line"/>
      <point x="238" y="0" type="line"/>
    </contour>
    <contour>
      <point x="36" y="260" type="line"/>
      <point x="36" y="99" type="line" smooth="yes"/>
      <point x="36" y="36"/>
      <point x="67" y="0"/>
      <point x="138" y="0" type="curve" smooth="yes"/>
      <point x="169" y="0" type="line" smooth="yes"/>
      <point x="216" y="0"/>
      <point x="243" y="25"/>
      <point x="243" y="75" type="curve"/>
      <point x="243" y="148" type="line"/>
      <point x="238" y="148" type="line"/>
      <point x="238" y="121" type="line" smooth="yes"/>
      <point x="238" y="97"/>
      <point x="229" y="88"/>
      <point x="207" y="88" type="curve" smooth="yes"/>
      <point x="177" y="88" type="line" smooth="yes"/>
      <point x="155" y="88"/>
      <point x="149" y="94"/>
      <point x="149" y="115" type="curve" smooth="yes"/>
      <point x="149" y="260" type="line"/>
    </contour>
  </outline>
</glyph>
<glyph name="b" format="1">
  <advance width="394"/>
  <unicode hex="0062"/>
  <outline>
    <contour>
      <point x="245" y="261" type="line"/>
      <point x="245" y="115" type="line" smooth="yes"/>
      <point x="245" y="94"/>
      <point x="239" y="88"/>
      <point x="217" y="88" type="curve" smooth="yes"/>
      <point x="187" y="88" type="line" smooth="yes"/>
      <point x="166" y="88"/>
      <point x="156" y="97"/>
      <point x="156" y="121" type="curve" smooth="yes"/>
      <point x="156" y="146" type="line"/>
      <point x="151" y="146" type="line"/>
      <point x="151" y="75" type="line" smooth="yes"/>
      <point x="151" y="25"/>
      <point x="178" y="0"/>
      <point x="226" y="0" type="curve" smooth="yes"/>
      <point x="256" y="0" type="line" smooth="yes"/>
      <point x="328" y="0"/>
      <point x="359" y="36"/>
      <point x="359" y="99" type="curve" smooth="yes"/>
      <point x="359" y="261" type="line"/>
    </contour>
    <contour>
      <point x="359" y="232" type="line"/>
      <point x="359" y="393" type="line" smooth="yes"/>
      <point x="359" y="456"/>
      <point x="328" y="492"/>
      <point x="256" y="492" type="curve" smooth="yes"/>
      <point x="226" y="492" type="line" smooth="yes"/>
      <point x="178" y="492"/>
      <point x="151" y="467"/>
      <point x="151" y="417" type="curve" smooth="yes"/>
      <point x="151" y="339" type="line"/>
      <point x="156" y="339" type="line"/>
      <point x="156" y="370" type="line" smooth="yes"/>
      <point x="156" y="395"/>
      <point x="166" y="404"/>
      <point x="187" y="404" type="curve" smooth="yes"/>
      <point x="217" y="404" type="line" smooth="yes"/>
      <point x="239" y="404"/>
      <point x="245" y="398"/>
      <point x="245" y="377" type="curve" smooth="yes"/>
      <point x="245" y="232" type="line"/>
    </contour>
    <contour>
      <point x="43" y="669" type="line"/>
      <point x="43" y="0" type="line"/>
      <point x="155" y="0" type="line"/>
      <point x="155" y="71" type="line"/>
      <point x="156" y="75" type="line"/>
      <point x="156" y="669" type="line"/>
    </contour>
  </outline>
</glyph>
<glyph name="d" format="1">
  <advance width="394"/>
  <unicode hex="0064"/>
  <outline>
    <contour>
      <point x="149" y="232" type="line"/>
      <point x="149" y="377" type="line" smooth="yes"/>
      <point x="149" y="398"/>
      <point x="155" y="404"/>
      <point x="177" y="404" type="curve" smooth="yes"/>
      <point x="207" y="404" type="line" smooth="yes"/>
      <point x="229" y="404"/>
      <point x="238" y="395"/>
      <point x="238" y="370" type="curve" smooth="yes"/>
      <point x="238" y="339" type="line"/>
      <point x="243" y="339" type="line"/>
      <point x="243" y="417" type="line" smooth="yes"/>
      <point x="243" y="467"/>
      <point x="216" y="492"/>
      <point x="169" y="492" type="curve" smooth="yes"/>
      <point x="138" y="492" type="line" smooth="yes"/>
      <point x="67" y="492"/>
      <point x="36" y="456"/>
      <point x="36" y="393" type="curve" smooth="yes"/>
      <point x="36" y="232" type="line"/>
    </contour>
    <contour>
      <point x="238" y="669" type="line"/>
      <point x="238" y="75" type="line"/>
      <point x="240" y="71" type="line"/>
      <point x="240" y="0" type="line"/>
      <point x="352" y="0" type="line"/>
      <point x="352" y="669" type="line"/>
    </contour>
    <contour>
      <point x="36" y="261" type="line"/>
      <point x="36" y="99" type="line" smooth="yes"/>
      <point x="36" y="36"/>
      <point x="67" y="0"/>
      <point x="138" y="0" type="curve" smooth="yes"/>
      <point x="169" y="0" type="line" smooth="yes"/>
      <point x="216" y="0"/>
      <point x="243" y="25"/>
      <point x="243" y="75" type="curve" smooth="yes"/>
      <point x="243" y="146" type="line"/>
      <point x="238" y="146" type="line"/>
      <point x="238" y="121" type="line" smooth="yes"/>
      <point x="238" y="97"/>
      <point x="229" y="88"/>
      <point x="207" y="88" type="curve" smooth="yes"/>
      <point x="177" y="88" type="line" smooth="yes"/>
      <point x="155" y="88"/>
      <point x="149" y="94"/>
      <point x="149" y="115" type="curve" smooth="yes"/>
      <point x="149" y="261" type="line"/>
    </contour>
  </outline>
</glyph>
<glyph name="e" format="1">
  <advance width="392"/>
  <unicode hex="0065"/>
  <outline>
    <contour>
      <point x="148" y="380" type="line"/>
      <point x="148" y="401"/>
      <point x="154" y="407"/>
      <point x="176" y="407" type="curve" smooth="yes"/>
      <point x="206" y="407" type="line"/>
      <point x="206" y="491" type="line"/>
      <point x="147" y="491" type="line" smooth="yes"/>
      <point x="71" y="491"/>
      <point x="38" y="455"/>
      <point x="38" y="392" type="curve" smooth="yes"/>
      <point x="38" y="99" type="line" smooth="yes"/>
      <point x="38" y="36"/>
      <point x="71" y="0"/>
      <point x="147" y="0" type="curve"/>
      <point x="202" y="0" type="line"/>
      <point x="202" y="85" type="line"/>
      <point x="176" y="85" type="line" smooth="yes"/>
      <point x="154" y="85"/>
      <point x="148" y="90"/>
      <point x="148" y="112" type="curve" smooth="yes"/>
    </contour>
    <contour>
      <point x="252" y="228" type="line"/>
      <point x="361" y="228" type="line"/>
      <point x="361" y="392" type="line" smooth="yes"/>
      <point x="361" y="455"/>
      <point x="329" y="491"/>
      <point x="253" y="491" type="curve" smooth="yes"/>
      <point x="195" y="491" type="line"/>
      <point x="195" y="407" type="line"/>
      <point x="224" y="407" type="line" smooth="yes"/>
      <point x="246" y="407"/>
      <point x="252" y="401"/>
      <point x="252" y="380" type="curve" smooth="yes"/>
    </contour>
    <contour>
      <point x="250" y="112" type="line"/>
      <point x="250" y="91"/>
      <point x="244" y="85"/>
      <point x="222" y="85" type="curve" smooth="yes"/>
      <point x="195" y="85" type="line"/>
      <point x="195" y="0" type="line"/>
      <point x="251" y="0" type="line" smooth="yes"/>
      <point x="328" y="0"/>
      <point x="360" y="36"/>
      <point x="360" y="99" type="curve" smooth="yes"/>
      <point x="360" y="149" type="line"/>
      <point x="250" y="149" type="line"/>
    </contour>
    <contour>
      <point x="361" y="286" type="line"/>
      <point x="73" y="286" type="line"/>
      <point x="73" y="213" type="line"/>
      <point x="361" y="213" type="line"/>
    </contour>
  </outline>
</glyph>
<glyph name="f" format="1">
  <advance width="248"/>
  <unicode hex="0066"/>
  <outline>
    <contour>
      <point x="170" y="553" type="line"/>
      <point x="170" y="574"/>
      <point x="176" y="580"/>
      <point x="198" y="580" type="curve" smooth="yes"/>
      <point x="243" y="580" type="line"/>
      <point x="243" y="669" type="line"/>
      <point x="165" y="669" type="line" smooth="yes"/>
      <point x="89" y="669"/>
      <point x="57" y="633"/>
      <point x="57" y="570" type="curve" smooth="yes"/>
      <point x="57" y="0" type="line"/>
      <point x="170" y="0" type="line"/>
    </contour>
    <contour>
      <point x="243" y="491" type="line"/>
      <point x="7" y="491" type="line"/>
      <point x="7" y="403" type="line"/>
      <point x="243" y="403" type="line"/>
    </contour>
  </outline>
</glyph>
<glyph name="g" format="1">
  <advance width="394"/>
  <unicode hex="0067"/>
  <outline>
    <contour>
      <point x="36" y="261" type="line"/>
      <point x="36" y="112" type="line" smooth="yes"/>
      <point x="36" y="49"/>
      <point x="67" y="13"/>
      <point x="138" y="13" type="curve" smooth="yes"/>
      <point x="169" y="13" type="line" smooth="yes"/>
      <point x="216" y="13"/>
      <point x="243" y="38"/>
      <point x="243" y="88" type="curve" smooth="yes"/>
      <point x="243" y="159" type="line"/>
      <point x="238" y="159" type="line"/>
      <point x="238" y="135" type="line" smooth="yes"/>
      <point x="238" y="110"/>
      <point x="229" y="101"/>
      <point x="207" y="101" type="curve" smooth="yes"/>
      <point x="177" y="101" type="line" smooth="yes"/>
      <point x="155" y="101"/>
      <point x="149" y="107"/>
      <point x="149" y="128" type="curve" smooth="yes"/>
      <point x="149" y="261" type="line"/>
    </contour>
    <contour>
      <point x="149" y="231" type="line"/>
      <point x="149" y="376" type="line" smooth="yes"/>
      <point x="149" y="397"/>
      <point x="155" y="403"/>
      <point x="177" y="403" type="curve" smooth="yes"/>
      <point x="207" y="403" type="line" smooth="yes"/>
      <point x="229" y="403"/>
      <point x="238" y="394"/>
      <point x="238" y="370" type="curve" smooth="yes"/>
      <point x="238" y="339" type="line"/>
      <point x="243" y="339" type="line"/>
      <point x="243" y="417" type="line" smooth="yes"/>
      <point x="243" y="466"/>
      <point x="216" y="491"/>
      <point x="169" y="491" type="curve" smooth="yes"/>
      <point x="138" y="491" type="line" smooth="yes"/>
      <point x="67" y="491"/>
      <point x="36" y="455"/>
      <point x="36" y="392" type="curve" smooth="yes"/>
      <point x="36" y="231" type="line"/>
    </contour>
    <contour>
      <point x="238" y="-23" type="line"/>
      <point x="238" y="-44"/>
      <point x="232" y="-50"/>
      <point x="210" y="-50" type="curve" smooth="yes"/>
      <point x="54" y="-50" type="line"/>
      <point x="54" y="-136" type="line"/>
      <point x="243" y="-136" type="line" smooth="yes"/>
      <point x="319" y="-136"/>
      <point x="352" y="-100"/>
      <point x="352" y="-37" type="curve" smooth="yes"/>
      <point x="352" y="24" type="line"/>
      <point x="238" y="24" type="line"/>
    </contour>
    <contour>
      <point x="352" y="12" type="line"/>
      <point x="352" y="491" type="line"/>
      <point x="240" y="491" type="line"/>
      <point x="240" y="421" type="line"/>
      <point x="238" y="420" type="line"/>
      <point x="238" y="12" type="line"/>
    </contour>
  </outline>
</glyph>
<glyph name="i" format="1">
  <advance width="199"/>
  <unicode hex="0069"/>
  <outline>
    <contour>
      <point x="156" y="0" type="line"/>
      <point x="156" y="491" type="line"/>
      <point x="43" y="491" type="line"/>
      <point x="43" y="0" type="line"/>
    </contour>
    <contour>
      <point x="40" y="571" type="line"/>
      <point x="159" y="571" type="line"/>
      <point x="159" y="670" type="line"/>
      <point x="40" y="670" type="line"/>
    </contour>
  </outline>
</glyph>
<glyph name="j" format="1">
  <advance width="199"/>
  <unicode hex="006A"/>
  <outline>
    <contour>
      <point x="43" y="-23" type="line"/>
      <point x="43" y="-44"/>
      <point x="36" y="-50"/>
      <point x="14" y="-50" type="curve" smooth="yes"/>
      <point x="-8" y="-50" type="line"/>
      <point x="-8" y="-136" type="line"/>
      <point x="47" y="-136" type="line" smooth="yes"/>
      <point x="124" y="-136"/>
      <point x="156" y="-100"/>
      <point x="156" y="-37" type="curve" smooth="yes"/>
      <point x="156" y="491" type="line"/>
      <point x="43" y="491" type="line"/>
    </contour>
    <contour>
      <point x="40" y="571" type="line"/>
      <point x="159" y="571" type="line"/>
      <point x="159" y="670" type="line"/>
      <point x="40" y="670" type="line"/>
    </contour>
  </outline>
</glyph>
<glyph name="k" format="1">
  <advance width="391"/>
  <unicode hex="006B"/>
  <outline>
    <contour>
      <point x="156" y="0" type="line"/>
      <point x="156" y="669" type="line"/>
      <point x="43" y="669" type="line"/>
      <point x="43" y="0" type="line"/>
    </contour>
    <contour>
      <point x="165" y="255" type="line"/>
      <point x="271" y="0" type="line"/>
      <point x="390" y="0" type="line"/>
      <point x="280" y="255" type="line"/>
    </contour>
    <contour>
      <point x="280" y="255" type="line"/>
      <point x="390" y="491" type="line"/>
      <point x="272" y="491" type="line"/>
      <point x="165" y="255" type="line"/>
    </contour>
  </outline>
</glyph>
<glyph name="m" format="1">
  <advance width="599"/>
  <unicode hex="006D"/>
  <outline>
    <contour>
      <point x="359" y="0" type="line"/>
      <point x="359" y="392" type="line" smooth="yes"/>
      <point x="359" y="455"/>
      <point x="328" y="491"/>
      <point x="256" y="491" type="curve" smooth="yes"/>
      <point x="226" y="491" type="line" smooth="yes"/>
      <point x="178" y="491"/>
      <point x="151" y="466"/>
      <point x="151" y="417" type="curve" smooth="yes"/>
      <point x="151" y="339" type="line"/>
      <point x="156" y="339" type="line"/>
      <point x="156" y="370" type="line" smooth="yes"/>
      <point x="156" y="394"/>
      <point x="166" y="403"/>
      <point x="187" y="403" type="curve" smooth="yes"/>
      <point x="217" y="403" type="line" smooth="yes"/>
      <point x="239" y="403"/>
      <point x="245" y="397"/>
      <point x="245" y="376" type="curve" smooth="yes"/>
      <point x="245" y="0" type="line"/>
    </contour>
    <contour>
      <point x="156" y="0" type="line"/>
      <point x="156" y="416" type="line"/>
      <point x="155" y="420" type="line"/>
      <point x="155" y="491" type="line"/>
      <point x="43" y="491" type="line"/>
      <point x="43" y="0" type="line"/>
    </contour>
    <contour>
      <point x="561" y="0" type="line"/>
      <point x="561" y="392" type="line" smooth="yes"/>
      <point x="561" y="455"/>
      <point x="530" y="491"/>
      <point x="459" y="491" type="curve" smooth="yes"/>
      <point x="428" y="491" type="line" smooth="yes"/>
      <point x="379" y="491"/>
      <point x="345" y="464"/>
      <point x="348" y="415" type="curve" smooth="yes"/>
      <point x="351" y="339" type="line"/>
      <point x="359" y="339" type="line"/>
      <point x="359" y="370" type="line" smooth="yes"/>
      <point x="359" y="394"/>
      <point x="368" y="403"/>
      <point x="390" y="403" type="curve" smooth="yes"/>
      <point x="420" y="403" type="line" smooth="yes"/>
      <point x="442" y="403"/>
      <point x="448" y="397"/>
      <point x="448" y="376" type="curve" smooth="yes"/>
      <point x="448" y="0" type="line"/>
    </contour>
  </outline>
</glyph>
<glyph name="n" format="1">
  <advance width="399"/>
  <unicode hex="006E"/>
  <outline>
    <contour>
      <point x="156" y="0" type="line"/>
      <point x="156" y="416" type="line"/>
      <point x="155" y="420" type="line"/>
      <point x="155" y="491" type="line"/>
      <point x="43" y="491" type="line"/>
      <point x="43" y="0" type="line"/>
    </contour>
    <contour>
      <point x="359" y="0" type="line"/>
      <point x="359" y="392" type="line" smooth="yes"/>
      <point x="359" y="455"/>
      <point x="328" y="491"/>
      <point x="256" y="491" type="curve" smooth="yes"/>
      <point x="226" y="491" type="line" smooth="yes"/>
      <point x="178" y="491"/>
      <point x="151" y="466"/>
      <point x="151" y="417" type="curve"/>
      <point x="151" y="339" type="line"/>
      <point x="156" y="339" type="line"/>
      <point x="156" y="370" type="line"/>
      <point x="156" y="394"/>
      <point x="166" y="403"/>
      <point x="187" y="403" type="curve" smooth="yes"/>
      <point x="217" y="403" type="line" smooth="yes"/>
      <point x="239" y="403"/>
      <point x="245" y="397"/>
      <point x="245" y="376" type="curve" smooth="yes"/>
      <point x="245" y="0" type="line"/>
    </contour>
  </outline>
</glyph>
<glyph name="o" format="1">
  <advance width="402"/>
  <unicode hex="006F"/>
  <outline>
    <contour>
      <point x="253" y="181" type="line"/>
      <point x="364" y="181" type="line"/>
      <point x="364" y="392" type="line" smooth="yes"/>
      <point x="364" y="455"/>
      <point x="334" y="491"/>
      <point x="258" y="491" type="curve" smooth="yes"/>
      <point x="199" y="491" type="line"/>
      <point x="199" y="406" type="line"/>
      <point x="224" y="406" type="line" smooth="yes"/>
      <point x="246" y="406"/>
      <point x="253" y="400"/>
      <point x="253" y="379" type="curve" smooth="yes"/>
    </contour>
    <contour>
      <point x="253" y="112" type="line"/>
      <point x="253" y="91"/>
      <point x="246" y="85"/>
      <point x="224" y="85" type="curve" smooth="yes"/>
      <point x="195" y="85" type="line"/>
      <point x="195" y="0" type="line"/>
      <point x="258" y="0" type="line" smooth="yes"/>
      <point x="334" y="0"/>
      <point x="364" y="36"/>
      <point x="364" y="99" type="curve" smooth="yes"/>
      <point x="364" y="214" type="line"/>
      <point x="253" y="214" type="line"/>
    </contour>
    <contour>
      <point x="149" y="379" type="line"/>
      <point x="149" y="400"/>
      <point x="156" y="406"/>
      <point x="178" y="406" type="curve" smooth="yes"/>
      <point x="203" y="406" type="line"/>
      <point x="203" y="491" type="line"/>
      <point x="145" y="491" type="line" smooth="yes"/>
      <point x="68" y="491"/>
      <point x="38" y="455"/>
      <point x="38" y="392" type="curve" smooth="yes"/>
      <point x="38" y="180" type="line"/>
      <point x="149" y="180" type="line"/>
    </contour>
    <contour>
      <point x="149" y="219" type="line"/>
      <point x="38" y="219" type="line"/>
      <point x="38" y="99" type="line" smooth="yes"/>
      <point x="38" y="36"/>
      <point x="68" y="0"/>
      <point x="145" y="0" type="curve" smooth="yes"/>
      <point x="202" y="0" type="line"/>
      <point x="202" y="85" type="line"/>
      <point x="178" y="85" type="line" smooth="yes"/>
      <point x="156" y="85"/>
      <point x="149" y="91"/>
      <point x="149" y="112" type="curve" smooth="yes"/>
    </contour>
  </outline>
</glyph>
<glyph name="p" format="1">
  <advance width="394"/>
  <unicode hex="0070"/>
  <outline>
    <contour>
      <point x="359" y="231" type="line"/>
      <point x="359" y="392" type="line" smooth="yes"/>
      <point x="359" y="455"/>
      <point x="328" y="491"/>
      <point x="256" y="491" type="curve" smooth="yes"/>
      <point x="226" y="491" type="line" smooth="yes"/>
      <point x="178" y="491"/>
      <point x="151" y="466"/>
      <point x="151" y="417" type="curve" smooth="yes"/>
      <point x="151" y="339" type="line"/>
      <point x="156" y="339" type="line"/>
      <point x="156" y="370" type="line" smooth="yes"/>
      <point x="156" y="394"/>
      <point x="166" y="403"/>
      <point x="187" y="403" type="curve" smooth="yes"/>
      <point x="217" y="403" type="line" smooth="yes"/>
      <point x="239" y="403"/>
      <point x="245" y="397"/>
      <point x="245" y="376" type="curve" smooth="yes"/>
      <point x="245" y="231" type="line"/>
    </contour>
    <contour>
      <point x="156" y="-136" type="line"/>
      <point x="156" y="415" type="line"/>
      <point x="155" y="422" type="line"/>
      <point x="155" y="491" type="line"/>
      <point x="43" y="491" type="line"/>
      <point x="43" y="-136" type="line"/>
    </contour>
    <contour>
      <point x="245" y="261" type="line"/>
      <point x="245" y="115" type="line" smooth="yes"/>
      <point x="245" y="94"/>
      <point x="239" y="88"/>
      <point x="217" y="88" type="curve" smooth="yes"/>
      <point x="187" y="88" type="line" smooth="yes"/>
      <point x="166" y="88"/>
      <point x="156" y="97"/>
      <point x="156" y="121" type="curve" smooth="yes"/>
      <point x="156" y="146" type="line"/>
      <point x="151" y="146" type="line"/>
      <point x="151" y="75" type="line" smooth="yes"/>
      <point x="151" y="25"/>
      <point x="178" y="0"/>
      <point x="226" y="0" type="curve" smooth="yes"/>
      <point x="256" y="0" type="line" smooth="yes"/>
      <point x="328" y="0"/>
      <point x="359" y="36"/>
      <point x="359" y="99" type="curve" smooth="yes"/>
      <point x="359" y="261" type="line"/>
    </contour>
  </outline>
</glyph>
<glyph name="q" format="1">
  <advance width="394"/>
  <unicode hex="0071"/>
  <outline>
    <contour>
      <point x="149" y="231" type="line"/>
      <point x="149" y="376" type="line" smooth="yes"/>
      <point x="149" y="397"/>
      <point x="155" y="403"/>
      <point x="177" y="403" type="curve" smooth="yes"/>
      <point x="207" y="403" type="line" smooth="yes"/>
      <point x="229" y="403"/>
      <point x="238" y="394"/>
      <point x="238" y="370" type="curve" smooth="yes"/>
      <point x="238" y="339" type="line"/>
      <point x="243" y="339" type="line"/>
      <point x="243" y="417" type="line" smooth="yes"/>
      <point x="243" y="466"/>
      <point x="216" y="491"/>
      <point x="169" y="491" type="curve" smooth="yes"/>
      <point x="138" y="491" type="line" smooth="yes"/>
      <point x="67" y="491"/>
      <point x="36" y="455"/>
      <point x="36" y="392" type="curve" smooth="yes"/>
      <point x="36" y="231" type="line"/>
    </contour>
    <contour>
      <point x="352" y="-136" type="line"/>
      <point x="352" y="491" type="line"/>
      <point x="240" y="491" type="line"/>
      <point x="240" y="422" type="line"/>
      <point x="238" y="415" type="line"/>
      <point x="238" y="-136" type="line"/>
    </contour>
    <contour>
      <point x="36" y="261" type="line"/>
      <point x="36" y="99" type="line" smooth="yes"/>
      <point x="36" y="36"/>
      <point x="67" y="0"/>
      <point x="138" y="0" type="curve" smooth="yes"/>
      <point x="169" y="0" type="line" smooth="yes"/>
      <point x="216" y="0"/>
      <point x="243" y="25"/>
      <point x="243" y="75" type="curve" smooth="yes"/>
      <point x="243" y="146" type="line"/>
      <point x="238" y="146" type="line"/>
      <point x="238" y="121" type="line" smooth="yes"/>
      <point x="238" y="97"/>
      <point x="229" y="88"/>
      <point x="207" y="88" type="curve" smooth="yes"/>
      <point x="177" y="88" type="line" smooth="yes"/>
      <point x="155" y="88"/>
      <point x="149" y="94"/>
      <point x="149" y="115" type="curve" smooth="yes"/>
      <point x="149" y="261" type="line"/>
    </contour>
  </outline>
</glyph>
<glyph name="r" format="1">
  <advance width="266"/>
  <unicode hex="0072"/>
  <outline>
    <contour>
      <point x="261" y="493" type="line"/>
      <point x="243" y="493" type="line" smooth="yes"/>
      <point x="183" y="493"/>
      <point x="151" y="447"/>
      <point x="151" y="399" type="curve"/>
      <point x="151" y="300" type="line"/>
      <point x="156" y="300" type="line"/>
      <point x="156" y="323" type="line"/>
      <point x="156" y="371"/>
      <point x="177" y="395"/>
      <point x="219" y="395" type="curve" smooth="yes"/>
      <point x="261" y="395" type="line"/>
    </contour>
    <contour>
      <point x="156" y="0" type="line"/>
      <point x="156" y="399" type="line"/>
      <point x="155" y="393" type="line"/>
      <point x="155" y="491" type="line"/>
      <point x="43" y="491" type="line"/>
      <point x="43" y="0" type="line"/>
    </contour>
  </outline>
</glyph>
<glyph name="u" format="1">
  <advance width="399"/>
  <unicode hex="0075"/>
  <outline>
    <contour>
      <point x="41" y="491" type="line"/>
      <point x="41" y="99" type="line" smooth="yes"/>
      <point x="41" y="36"/>
      <point x="72" y="0"/>
      <point x="143" y="0" type="curve" smooth="yes"/>
      <point x="174" y="0" type="line" smooth="yes"/>
      <point x="221" y="0"/>
      <point x="248" y="25"/>
      <point x="248" y="75" type="curve" smooth="yes"/>
      <point x="248" y="152" type="line"/>
      <point x="243" y="152" type="line"/>
      <point x="243" y="121" type="line" smooth="yes"/>
      <point x="243" y="97"/>
      <point x="234" y="88"/>
      <point x="212" y="88" type="curve" smooth="yes"/>
      <point x="182" y="88" type="line" smooth="yes"/>
      <point x="160" y="88"/>
      <point x="154" y="94"/>
      <point x="154" y="115" type="curve" smooth="yes"/>
      <point x="154" y="491" type="line"/>
    </contour>
    <contour>
      <point x="243" y="491" type="line"/>
      <point x="243" y="75" type="line"/>
      <point x="245" y="71" type="line"/>
      <point x="245" y="0" type="line"/>
      <point x="357" y="0" type="line"/>
      <point x="357" y="491" type="line"/>
    </contour>
  </outline>
</glyph>
<glyph name="v" format="1">
  <advance width="358"/>
  <unicode hex="0076"/>
  <outline>
    <contour>
      <point x="116" y="491" type="line"/>
      <point x="3" y="491" type="line"/>
      <point x="104" y="0" type="line"/>
      <point x="254" y="0" type="line"/>
      <point x="355" y="491" type="line"/>
      <point x="242" y="491" type="line"/>
      <point x="179" y="106" type="line"/>
    </contour>
  </outline>
</glyph>
<glyph name="w" format="1">
  <advance width="583"/>
  <unicode hex="0077"/>
  <outline>
    <contour>
      <point x="472" y="491" type="line"/>
      <point x="411" y="109" type="line"/>
      <point x="351" y="491" type="line"/>
      <point x="232" y="491" type="line"/>
      <point x="168" y="108" type="line"/>
      <point x="111" y="491" type="line"/>
      <point x="5" y="491" type="line"/>
      <point x="98" y="0" type="line"/>
      <point x="231" y="0" type="line"/>
      <point x="290" y="347" type="line"/>
      <point x="349" y="0" type="line"/>
      <point x="482" y="0" type="line"/>
      <point x="578" y="491" type="line"/>
    </contour>
  </outline>
</glyph>
<glyph name="x" format="1">
  <advance width="373"/>
  <unicode hex="0078"/>
  <outline>
    <contour>
      <point x="247" y="252" type="line"/>
      <point x="358" y="491" type="line"/>
      <point x="242" y="491" type="line"/>
      <point x="186" y="338" type="line"/>
      <point x="128" y="491" type="line"/>
      <point x="8" y="491" type="line"/>
      <point x="123" y="251" type="line"/>
      <point x="5" y="0" type="line"/>
      <point x="120" y="0" type="line"/>
      <point x="185" y="163" type="line"/>
      <point x="253" y="0" type="line"/>
      <point x="370" y="0" type="line"/>
    </contour>
  </outline>
</glyph>
<glyph name="y" format="1">
  <advance width="377"/>
  <unicode hex="0079"/>
  <outline>
    <contour>
      <point x="6" y="491" type="line"/>
      <point x="118" y="18" type="line"/>
      <point x="172" y="18" type="line"/>
      <point x="164" y="-14" type="line" smooth="yes"/>
      <point x="156" y="-43"/>
      <point x="137" y="-49"/>
      <point x="110" y="-49" type="curve" smooth="yes"/>
      <point x="59" y="-49" type="line"/>
      <point x="59" y="-136" type="line"/>
      <point x="126" y="-136" type="line" smooth="yes"/>
      <point x="206" y="-136"/>
      <point x="245" y="-98"/>
      <point x="262" y="-30" type="curve" smooth="yes"/>
      <point x="372" y="491" type="line"/>
      <point x="258" y="491" type="line"/>
      <point x="193" y="113" type="line"/>
      <point x="123" y="491" type="line"/>
    </contour>
  </outline>
</glyph>
<glyph name="z" format="1">
  <advance width="321"/>
  <unicode hex="007A"/>
  <outline>
    <contour>
      <point x="304" y="491" type="line"/>
      <point x="24" y="491" type="line"/>
      <point x="24" y="406" type="line"/>
      <point x="304" y="406" type="line"/>
    </contour>
    <contour>
      <point x="185" y="406" type="line"/>
      <point x="13" y="85" type="line"/>
      <point x="130" y="85" type="line"/>
      <point x="304" y="406" type="line"/>
    </contour>
    <contour>
      <point x="308" y="85" type="line"/>
      <point x="13" y="85" type="line"/>
      <point x="13" y="0" type="line"/>
      <point x="308" y="0" type="line"/>
    </contour>
  </outline>
</glyph>
<glyph name="braceleft" format="1">
  <advance width="295"/>
  <unicode hex="007B"/>
  <outline>
    <contour>
      <point x="217" y="674" type="line"/>
      <point x="217" y="694"/>
      <point x="225" y="702"/>
      <point x="247" y="702" type="curve" smooth="yes"/>
      <point x="287" y="702" type="line"/>
      <point x="287" y="785" type="line"/>
      <point x="206" y="785" type="line" smooth="yes"/>
      <point x="127" y="785"/>
      <point x="102" y="742"/>
      <point x="102" y="683" type="curve" smooth="yes"/>
      <point x="102" y="455" type="line" smooth="yes"/>
      <point x="102" y="385"/>
      <point x="79" y="354"/>
      <point x="24" y="354" type="curve" smooth="yes"/>
      <point x="10" y="354" type="line"/>
      <point x="10" y="271" type="line"/>
      <point x="24" y="271" type="line" smooth="yes"/>
      <point x="79" y="271"/>
      <point x="102" y="239"/>
      <point x="102" y="170" type="curve"/>
      <point x="102" y="-59" type="line" smooth="yes"/>
      <point x="102" y="-119"/>
      <point x="127" y="-162"/>
      <point x="206" y="-162" type="curve" smooth="yes"/>
      <point x="287" y="-162" type="line"/>
      <point x="287" y="-78" type="line"/>
      <point x="247" y="-78" type="line" smooth="yes"/>
      <point x="225" y="-78"/>
      <point x="217" y="-70"/>
      <point x="217" y="-50" type="curve" smooth="yes"/>
      <point x="217" y="196" type="line" smooth="yes"/>
      <point x="217" y="265"/>
      <point x="190" y="307"/>
      <point x="141" y="312" type="curve"/>
      <point x="188" y="320"/>
      <point x="217" y="359"/>
      <point x="217" y="435" type="curve" smooth="yes"/>
    </contour>
  </outline>
</glyph>
<glyph name="bar" format="1">
  <advance width="217"/>
  <unicode hex="007C"/>
  <outline>
    <contour>
      <point x="53" y="769" type="line"/>
      <point x="53" y="-140" type="line"/>
      <point x="160" y="-140" type="line"/>
      <point x="160" y="769" type="line"/>
    </contour>
  </outline>
</glyph>
<glyph name="braceright" format="1">
  <advance width="295"/>
  <unicode hex="007D"/>
  <outline>
    <contour>
      <point x="77" y="435" type="line"/>
      <point x="77" y="359"/>
      <point x="107" y="320"/>
      <point x="154" y="312" type="curve"/>
      <point x="105" y="307"/>
      <point x="77" y="265"/>
      <point x="77" y="196" type="curve" smooth="yes"/>
      <point x="77" y="-50" type="line" smooth="yes"/>
      <point x="77" y="-70"/>
      <point x="69" y="-78"/>
      <point x="47" y="-78" type="curve" smooth="yes"/>
      <point x="8" y="-78" type="line"/>
      <point x="8" y="-162" type="line"/>
      <point x="89" y="-162" type="line" smooth="yes"/>
      <point x="167" y="-162"/>
      <point x="192" y="-119"/>
      <point x="192" y="-59" type="curve" smooth="yes"/>
      <point x="192" y="170" type="line"/>
      <point x="192" y="239"/>
      <point x="215" y="271"/>
      <point x="271" y="271" type="curve" smooth="yes"/>
      <point x="285" y="271" type="line"/>
      <point x="285" y="354" type="line"/>
      <point x="271" y="354" type="line" smooth="yes"/>
      <point x="215" y="354"/>
      <point x="192" y="385"/>
      <point x="192" y="455" type="curve" smooth="yes"/>
      <point x="192" y="683" type="line" smooth="yes"/>
      <point x="192" y="742"/>
      <point x="167" y="785"/>
      <point x="89" y="785" type="curve" smooth="yes"/>
      <point x="8" y="785" type="line"/>
      <point x="8" y="702" type="line"/>
      <point x="47" y="702" type="line" smooth="yes"/>
      <point x="69" y="702"/>
      <point x="77" y="694"/>
      <point x="77" y="674" type="curve"/>
    </contour>
  </outline>
</glyph>
<glyph name="asciitilde" format="1">
  <advance width="581"/>
  <unicode hex="007E"/>
  <outline>
    <contour>
      <point x="372" y="211" type="curve" smooth="yes"/>
      <point x="416" y="211" type="line"/>
      <point x="483" y="211"/>
      <point x="509" y="241"/>
      <point x="509" y="297" type="curve" smooth="yes"/>
      <point x="509" y="368" type="line"/>
      <point x="405" y="368" type="line"/>
      <point x="405" y="323" type="line" smooth="yes"/>
      <point x="405" y="300"/>
      <point x="401" y="289"/>
      <point x="377" y="289" type="curve" smooth="yes"/>
      <point x="317" y="289"/>
      <point x="293" y="369"/>
      <point x="209" y="369" type="curve" smooth="yes"/>
      <point x="163" y="369" type="line" smooth="yes"/>
      <point x="97" y="369"/>
      <point x="71" y="339"/>
      <point x="71" y="282" type="curve" smooth="yes"/>
      <point x="71" y="211" type="line"/>
      <point x="175" y="211" type="line"/>
      <point x="175" y="257" type="line" smooth="yes"/>
      <point x="175" y="279"/>
      <point x="180" y="291"/>
      <point x="205" y="291" type="curve" smooth="yes"/>
      <point x="265" y="291"/>
      <point x="287" y="211"/>
    </contour>
  </outline>
</glyph>
<glyph name="cent" format="1">
  <advance width="380"/>
  <unicode hex="00A2"/>
  <outline>
    <contour>
      <point x="149" y="376" type="line"/>
      <point x="149" y="397"/>
      <point x="155" y="403"/>
      <point x="177" y="403" type="curve" smooth="yes"/>
      <point x="203" y="403" type="line"/>
      <point x="203" y="491" type="line"/>
      <point x="145" y="491" type="line" smooth="yes"/>
      <point x="68" y="491"/>
      <point x="36" y="455"/>
      <point x="36" y="392" type="curve" smooth="yes"/>
      <point x="36" y="99" type="line" smooth="yes"/>
      <point x="36" y="36"/>
      <point x="68" y="0"/>
      <point x="145" y="0" type="curve"/>
      <point x="200" y="0" type="line"/>
      <point x="200" y="88" type="line"/>
      <point x="177" y="88" type="line" smooth="yes"/>
      <point x="155" y="88"/>
      <point x="149" y="94"/>
      <point x="149" y="115" type="curve" smooth="yes"/>
    </contour>
    <contour>
      <point x="241" y="326" type="line"/>
      <point x="352" y="326" type="line"/>
      <point x="352" y="392" type="line" smooth="yes"/>
      <point x="352" y="455"/>
      <point x="320" y="491"/>
      <point x="243" y="491" type="curve" smooth="yes"/>
      <point x="189" y="491" type="line"/>
      <point x="189" y="403" type="line"/>
      <point x="213" y="403" type="line" smooth="yes"/>
      <point x="235" y="403"/>
      <point x="241" y="397"/>
      <point x="241" y="376" type="curve" smooth="yes"/>
    </contour>
    <contour>
      <point x="241" y="115" type="line"/>
      <point x="241" y="94"/>
      <point x="235" y="88"/>
      <point x="213" y="88" type="curve" smooth="yes"/>
      <point x="189" y="88" type="line"/>
      <point x="189" y="0" type="line"/>
      <point x="243" y="0" type="line" smooth="yes"/>
      <point x="320" y="0"/>
      <point x="352" y="36"/>
      <point x="352" y="99" type="curve" smooth="yes"/>
      <point x="352" y="166" type="line"/>
      <point x="241" y="166" type="line"/>
    </contour>
    <contour>
      <point x="251" y="457" type="line"/>
      <point x="251" y="569" type="line"/>
      <point x="142" y="569" type="line"/>
      <point x="142" y="457" type="line"/>
    </contour>
    <contour>
      <point x="251" y="-77" type="line"/>
      <point x="251" y="37" type="line"/>
      <point x="142" y="37" type="line"/>
      <point x="142" y="-77" type="line"/>
    </contour>
  </outline>
</glyph>
<glyph name="sterling" format="1">
  <advance width="421"/>
  <unicode hex="00A3"/>
  <outline>
    <contour>
      <point x="191" y="516" type="line"/>
      <point x="191" y="537"/>
      <point x="197" y="543"/>
      <point x="219" y="543" type="curve"/>
      <point x="253" y="543" type="line" smooth="yes"/>
      <point x="275" y="543"/>
      <point x="282" y="537"/>
      <point x="282" y="516" type="curve" smooth="yes"/>
      <point x="282" y="440" type="line"/>
      <point x="397" y="440" type="line"/>
      <point x="397" y="532" type="line" smooth="yes"/>
      <point x="397" y="595"/>
      <point x="365" y="631"/>
      <point x="288" y="631" type="curve" smooth="yes"/>
      <point x="184" y="631" type="line" smooth="yes"/>
      <point x="107" y="631"/>
      <point x="75" y="595"/>
      <point x="75" y="532" type="curve" smooth="yes"/>
      <point x="75" y="175" type="line" smooth="yes"/>
      <point x="75" y="115"/>
      <point x="67" y="87"/>
      <point x="28" y="84" type="curve"/>
      <point x="28" y="0" type="line"/>
      <point x="401" y="0" type="line"/>
      <point x="401" y="88" type="line"/>
      <point x="164" y="88" type="line"/>
      <point x="187" y="103"/>
      <point x="191" y="131"/>
      <point x="191" y="166" type="curve" smooth="yes"/>
    </contour>
    <contour>
      <point x="28" y="260" type="line"/>
      <point x="327" y="260" type="line"/>
      <point x="327" y="344" type="line"/>
      <point x="28" y="344" type="line"/>
    </contour>
  </outline>
</glyph>
<glyph name="currency" format="1">
  <advance width="516"/>
  <unicode hex="00A4"/>
  <outline>
    <contour>
      <point x="430" y="371" type="line"/>
      <point x="430" y="451"/>
      <point x="398" y="497"/>
      <point x="305" y="497" type="curve" smooth="yes"/>
      <point x="215" y="497" type="line" smooth="yes"/>
      <point x="122" y="497"/>
      <point x="91" y="451"/>
      <point x="91" y="371" type="curve" smooth="yes"/>
      <point x="91" y="227" type="line" smooth="yes"/>
      <point x="91" y="148"/>
      <point x="122" y="101"/>
      <point x="215" y="101" type="curve" smooth="yes"/>
      <point x="305" y="101" type="line" smooth="yes"/>
      <point x="398" y="101"/>
      <point x="430" y="148"/>
      <point x="430" y="227" type="curve" smooth="yes"/>
    </contour>
    <contour>
      <point x="239" y="182" type="line"/>
      <point x="202" y="182"/>
      <point x="188" y="189"/>
      <point x="188" y="233" type="curve" smooth="yes"/>
      <point x="188" y="365" type="line" smooth="yes"/>
      <point x="188" y="409"/>
      <point x="202" y="416"/>
      <point x="239" y="416" type="curve" smooth="yes"/>
      <point x="280" y="416" type="line" smooth="yes"/>
      <point x="317" y="416"/>
      <point x="332" y="409"/>
      <point x="332" y="365" type="curve" smooth="yes"/>
      <point x="332" y="233" type="line" smooth="yes"/>
      <point x="332" y="189"/>
      <point x="317" y="182"/>
      <point x="280" y="182" type="curve" smooth="yes"/>
    </contour>
    <contour>
      <point x="214" y="464" type="line"/>
      <point x="121" y="556" type="line"/>
      <point x="50" y="486" type="line"/>
      <point x="142" y="394" type="line"/>
    </contour>
    <contour>
      <point x="371" y="394" type="line"/>
      <point x="463" y="486" type="line"/>
      <point x="393" y="556" type="line"/>
      <point x="300" y="464" type="line"/>
    </contour>
    <contour>
      <point x="142" y="214" type="line"/>
      <point x="50" y="123" type="line"/>
      <point x="121" y="52" type="line"/>
      <point x="214" y="144" type="line"/>
    </contour>
    <contour>
      <point x="300" y="144" type="line"/>
      <point x="393" y="52" type="line"/>
      <point x="463" y="123" type="line"/>
      <point x="371" y="214" type="line"/>
    </contour>
  </outline>
</glyph>
<glyph name="yen" format="1">
  <advance width="425"/>
  <unicode hex="00A5"/>
  <outline>
    <contour>
      <point x="159" y="353" type="line"/>
      <point x="28" y="353" type="line"/>
      <point x="28" y="274" type="line"/>
      <point x="159" y="274" type="line"/>
    </contour>
    <contour>
      <point x="400" y="353" type="line"/>
      <point x="275" y="353" type="line"/>
      <point x="275" y="274" type="line"/>
      <point x="400" y="274" type="line"/>
    </contour>
    <contour>
      <point x="400" y="222" type="line"/>
      <point x="28" y="222" type="line"/>
      <point x="28" y="144" type="line"/>
      <point x="400" y="144" type="line"/>
    </contour>
    <contour>
      <point x="267" y="185" type="line"/>
      <point x="415" y="631" type="line"/>
      <point x="298" y="631" type="line"/>
      <point x="214" y="317" type="line"/>
      <point x="127" y="631" type="line"/>
      <point x="11" y="631" type="line"/>
      <point x="163" y="185" type="line"/>
    </contour>
    <contour>
      <point x="157" y="248" type="line"/>
      <point x="157" y="0" type="line"/>
      <point x="272" y="0" type="line"/>
      <point x="272" y="248" type="line"/>
    </contour>
  </outline>
</glyph>
<glyph name="brokenbar" format="1">
  <advance width="217"/>
  <unicode hex="00A6"/>
  <outline>
    <contour>
      <point x="48" y="254" type="line"/>
      <point x="48" y="-96" type="line"/>
      <point x="164" y="-96" type="line"/>
      <point x="164" y="254" type="line"/>
    </contour>
    <contour>
      <point x="164" y="376" type="line"/>
      <point x="164" y="725" type="line"/>
      <point x="48" y="725" type="line"/>
      <point x="48" y="376" type="line"/>
    </contour>
  </outline>
</glyph>
<glyph name="section" format="1">
  <advance width="454"/>
  <unicode hex="00A7"/>
  <outline>
    <contour>
      <point x="232" y="181" type="line"/>
      <point x="297" y="181" type="line" smooth="yes"/>
      <point x="374" y="181"/>
      <point x="396" y="221"/>
      <point x="396" y="287" type="curve" smooth="yes"/>
      <point x="396" y="364" type="line" smooth="yes"/>
      <point x="396" y="427"/>
      <point x="364" y="463"/>
      <point x="287" y="463" type="curve" smooth="yes"/>
      <point x="223" y="463" type="line" smooth="yes"/>
      <point x="201" y="463"/>
      <point x="194" y="469"/>
      <point x="194" y="490" type="curve" smooth="yes"/>
      <point x="194" y="560" type="line" smooth="yes"/>
      <point x="194" y="581"/>
      <point x="201" y="587"/>
      <point x="223" y="587" type="curve" smooth="yes"/>
      <point x="258" y="587" type="line" smooth="yes"/>
      <point x="280" y="587"/>
      <point x="286" y="581"/>
      <point x="286" y="560" type="curve" smooth="yes"/>
      <point x="286" y="528" type="line"/>
      <point x="399" y="528" type="line"/>
      <point x="399" y="570" type="line" smooth="yes"/>
      <point x="399" y="632"/>
      <point x="367" y="668"/>
      <point x="290" y="668" type="curve" smooth="yes"/>
      <point x="190" y="668" type="line" smooth="yes"/>
      <point x="113" y="668"/>
      <point x="81" y="632"/>
      <point x="81" y="570" type="curve" smooth="yes"/>
      <point x="81" y="478" type="line" smooth="yes"/>
      <point x="81" y="416"/>
      <point x="113" y="380"/>
      <point x="190" y="380" type="curve" smooth="yes"/>
      <point x="259" y="380" type="line" smooth="yes"/>
      <point x="281" y="380"/>
      <point x="287" y="374"/>
      <point x="287" y="353" type="curve" smooth="yes"/>
      <point x="287" y="265" type="line" smooth="yes"/>
      <point x="287" y="243"/>
      <point x="281" y="238"/>
      <point x="259" y="238" type="curve" smooth="yes"/>
      <point x="232" y="238" type="line"/>
    </contour>
    <contour>
      <point x="222" y="430" type="line"/>
      <point x="157" y="430" type="line" smooth="yes"/>
      <point x="81" y="430"/>
      <point x="58" y="390"/>
      <point x="58" y="324" type="curve" smooth="yes"/>
      <point x="58" y="253" type="line" smooth="yes"/>
      <point x="58" y="190"/>
      <point x="90" y="154"/>
      <point x="167" y="154" type="curve" smooth="yes"/>
      <point x="232" y="154" type="line" smooth="yes"/>
      <point x="254" y="154"/>
      <point x="260" y="148"/>
      <point x="260" y="127" type="curve" smooth="yes"/>
      <point x="260" y="57" type="line" smooth="yes"/>
      <point x="260" y="36"/>
      <point x="254" y="30"/>
      <point x="232" y="30" type="curve" smooth="yes"/>
      <point x="197" y="30" type="line" smooth="yes"/>
      <point x="175" y="30"/>
      <point x="168" y="36"/>
      <point x="168" y="57" type="curve" smooth="yes"/>
      <point x="168" y="90" type="line"/>
      <point x="55" y="90" type="line"/>
      <point x="55" y="48" type="line" smooth="yes"/>
      <point x="55" y="-15"/>
      <point x="87" y="-51"/>
      <point x="164" y="-51" type="curve" smooth="yes"/>
      <point x="265" y="-51" type="line" smooth="yes"/>
      <point x="341" y="-51"/>
      <point x="374" y="-15"/>
      <point x="374" y="48" type="curve" smooth="yes"/>
      <point x="374" y="139" type="line" smooth="yes"/>
      <point x="374" y="201"/>
      <point x="341" y="238"/>
      <point x="265" y="238" type="curve" smooth="yes"/>
      <point x="195" y="238" type="line" smooth="yes"/>
      <point x="173" y="238"/>
      <point x="167" y="243"/>
      <point x="167" y="265" type="curve" smooth="yes"/>
      <point x="167" y="353" type="line" smooth="yes"/>
      <point x="167" y="374"/>
      <point x="173" y="380"/>
      <point x="195" y="380" type="curve" smooth="yes"/>
      <point x="222" y="380" type="line"/>
    </contour>
  </outline>
</glyph>
<glyph name="dieresis" format="1">
  <advance width="444"/>
  <unicode hex="00A8"/>
  <outline>
    <contour>
      <point x="62" y="541" type="line"/>
      <point x="178" y="541" type="line"/>
      <point x="178" y="646" type="line"/>
      <point x="62" y="646" type="line"/>
    </contour>
    <contour>
      <point x="266" y="541" type="line"/>
      <point x="382" y="541" type="line"/>
      <point x="382" y="646" type="line"/>
      <point x="266" y="646" type="line"/>
    </contour>
  </outline>
</glyph>
<glyph name="copyright" format="1">
  <advance width="722"/>
  <unicode hex="00A9"/>
  <outline>
    <contour>
      <point x="691" y="340" type="line"/>
      <point x="691" y="523"/>
      <point x="632" y="631"/>
      <point x="462" y="631" type="curve" smooth="yes"/>
      <point x="270" y="631" type="line" smooth="yes"/>
      <point x="99" y="631"/>
      <point x="41" y="523"/>
      <point x="41" y="340" type="curve" smooth="yes"/>
      <point x="41" y="286" type="line" smooth="yes"/>
      <point x="41" y="102"/>
      <point x="99" y="0"/>
      <point x="270" y="0" type="curve" smooth="yes"/>
      <point x="462" y="0" type="line" smooth="yes"/>
      <point x="632" y="0"/>
      <point x="691" y="102"/>
      <point x="691" y="286" type="curve" smooth="yes"/>
    </contour>
    <contour>
      <point x="285" y="77" type="line"/>
      <point x="175" y="77"/>
      <point x="135" y="141"/>
      <point x="135" y="277" type="curve" smooth="yes"/>
      <point x="135" y="349" type="line" smooth="yes"/>
      <point x="135" y="485"/>
      <point x="175" y="555"/>
      <point x="285" y="555" type="curve" smooth="yes"/>
      <point x="447" y="555" type="line" smooth="yes"/>
      <point x="557" y="555"/>
      <point x="596" y="485"/>
      <point x="596" y="349" type="curve" smooth="yes"/>
      <point x="596" y="277" type="line" smooth="yes"/>
      <point x="596" y="141"/>
      <point x="557" y="77"/>
      <point x="447" y="77" type="curve" smooth="yes"/>
    </contour>
    <contour>
      <point x="409" y="249" type="line"/>
      <point x="409" y="230"/>
      <point x="404" y="225"/>
      <point x="384" y="225" type="curve" smooth="yes"/>
      <point x="348" y="225" type="line" smooth="yes"/>
      <point x="328" y="225"/>
      <point x="323" y="230"/>
      <point x="323" y="249" type="curve" smooth="yes"/>
      <point x="323" y="390" type="line" smooth="yes"/>
      <point x="323" y="409"/>
      <point x="328" y="414"/>
      <point x="348" y="414" type="curve" smooth="yes"/>
      <point x="384" y="414" type="line" smooth="yes"/>
      <point x="404" y="414"/>
      <point x="409" y="409"/>
      <point x="409" y="390" type="curve" smooth="yes"/>
      <point x="409" y="362" type="line"/>
      <point x="499" y="362" type="line"/>
      <point x="499" y="405" type="line" smooth="yes"/>
      <point x="499" y="457"/>
      <point x="472" y="486"/>
      <point x="411" y="486" type="curve" smooth="yes"/>
      <point x="322" y="486" type="line" smooth="yes"/>
      <point x="260" y="486"/>
      <point x="233" y="457"/>
      <point x="233" y="405" type="curve" smooth="yes"/>
      <point x="233" y="234" type="line" smooth="yes"/>
      <point x="233" y="182"/>
      <point x="260" y="152"/>
      <point x="322" y="152" type="curve" smooth="yes"/>
      <point x="411" y="152" type="line" smooth="yes"/>
      <point x="472" y="152"/>
      <point x="499" y="182"/>
      <point x="499" y="234" type="curve" smooth="yes"/>
      <point x="499" y="277" type="line"/>
      <point x="409" y="277" type="line"/>
    </contour>
  </outline>
</glyph>
<glyph name="ordfeminine" format="1">
  <advance width="280"/>
  <unicode hex="00AA"/>
  <outline>
    <contour>
      <point x="98" y="447" type="line"/>
      <point x="98" y="551" type="line" smooth="yes"/>
      <point x="98" y="566"/>
      <point x="103" y="570"/>
      <point x="118" y="570" type="curve" smooth="yes"/>
      <point x="155" y="570" type="line" smooth="yes"/>
      <point x="170" y="570"/>
      <point x="177" y="563"/>
      <point x="177" y="547" type="curve" smooth="yes"/>
      <point x="177" y="527" type="line"/>
      <point x="181" y="527" type="line"/>
      <point x="181" y="578" type="line" smooth="yes"/>
      <point x="181" y="613"/>
      <point x="164" y="631"/>
      <point x="130" y="631" type="curve" smooth="yes"/>
      <point x="98" y="631" type="line" smooth="yes"/>
      <point x="47" y="631"/>
      <point x="25" y="606"/>
      <point x="25" y="561" type="curve" smooth="yes"/>
      <point x="25" y="447" type="line"/>
    </contour>
    <contour>
      <point x="250" y="284" type="line"/>
      <point x="250" y="631" type="line"/>
      <point x="178" y="631" type="line"/>
      <point x="178" y="579" type="line"/>
      <point x="177" y="576" type="line"/>
      <point x="177" y="284" type="line"/>
    </contour>
    <contour>
      <point x="25" y="468" type="line"/>
      <point x="25" y="354" type="line" smooth="yes"/>
      <point x="25" y="309"/>
      <point x="47" y="284"/>
      <point x="98" y="284" type="curve" smooth="yes"/>
      <point x="132" y="284" type="line" smooth="yes"/>
      <point x="166" y="284"/>
      <point x="181" y="302"/>
      <point x="181" y="337" type="curve" smooth="yes"/>
      <point x="181" y="388" type="line"/>
      <point x="177" y="388" type="line"/>
      <point x="177" y="370" type="line" smooth="yes"/>
      <point x="177" y="352"/>
      <point x="170" y="346"/>
      <point x="155" y="346" type="curve" smooth="yes"/>
      <point x="118" y="346" type="line" smooth="yes"/>
      <point x="103" y="346"/>
      <point x="98" y="350"/>
      <point x="98" y="365" type="curve" smooth="yes"/>
      <point x="98" y="468" type="line"/>
    </contour>
  </outline>
</glyph>
<glyph name="guillemotleft" format="1">
  <advance width="493"/>
  <unicode hex="00AB"/>
  <outline>
    <contour>
      <point x="147" y="102" type="line"/>
      <point x="260" y="102" type="line"/>
      <point x="143" y="256" type="line"/>
      <point x="260" y="410" type="line"/>
      <point x="147" y="410" type="line"/>
      <point x="31" y="256" type="line"/>
    </contour>
    <contour>
      <point x="352" y="102" type="line"/>
      <point x="465" y="102" type="line"/>
      <point x="349" y="256" type="line"/>
      <point x="465" y="410" type="line"/>
      <point x="352" y="410" type="line"/>
      <point x="236" y="256" type="line"/>
    </contour>
  </outline>
</glyph>
<glyph name="logicalnot" format="1">
  <advance width="491"/>
  <unicode hex="00AC"/>
  <outline>
    <contour>
      <point x="414" y="405" type="line"/>
      <point x="39" y="405" type="line"/>
      <point x="39" y="290" type="line"/>
      <point x="414" y="290" type="line"/>
    </contour>
    <contour>
      <point x="443" y="144" type="line"/>
      <point x="443" y="405" type="line"/>
      <point x="359" y="405" type="line"/>
      <point x="359" y="144" type="line"/>
    </contour>
  </outline>
</glyph>
<glyph name="registered" format="1">
  <advance width="433"/>
  <unicode hex="00AE"/>
  <outline>
    <contour>
      <point x="400" y="541" type="line"/>
      <point x="400" y="644"/>
      <point x="367" y="705"/>
      <point x="270" y="705" type="curve" smooth="yes"/>
      <point x="162" y="705" type="line" smooth="yes"/>
      <point x="65" y="705"/>
      <point x="33" y="644"/>
      <point x="33" y="541" type="curve" smooth="yes"/>
      <point x="33" y="511" type="line" smooth="yes"/>
      <point x="33" y="408"/>
      <point x="65" y="350"/>
      <point x="162" y="350" type="curve" smooth="yes"/>
      <point x="270" y="350" type="line" smooth="yes"/>
      <point x="367" y="350"/>
      <point x="400" y="408"/>
      <point x="400" y="511" type="curve" smooth="yes"/>
    </contour>
    <contour>
      <point x="171" y="395" type="line"/>
      <point x="110" y="395"/>
      <point x="87" y="429"/>
      <point x="87" y="505" type="curve" smooth="yes"/>
      <point x="87" y="546" type="line" smooth="yes"/>
      <point x="87" y="622"/>
      <point x="110" y="660"/>
      <point x="171" y="660" type="curve" smooth="yes"/>
      <point x="262" y="660" type="line" smooth="yes"/>
      <point x="324" y="660"/>
      <point x="346" y="622"/>
      <point x="346" y="546" type="curve" smooth="yes"/>
      <point x="346" y="505" type="line" smooth="yes"/>
      <point x="346" y="429"/>
      <point x="324" y="395"/>
      <point x="262" y="395" type="curve" smooth="yes"/>
    </contour>
    <contour>
      <point x="159" y="630" type="line"/>
      <point x="159" y="427" type="line"/>
      <point x="202" y="427" type="line"/>
      <point x="202" y="504" type="line"/>
      <point x="210" y="504" type="line"/>
      <point x="242" y="427" type="line"/>
      <point x="287" y="427" type="line"/>
      <point x="252" y="506" type="line"/>
      <point x="269" y="510"/>
      <point x="276" y="522"/>
      <point x="276" y="540" type="curve"/>
      <point x="276" y="595" type="line" smooth="yes"/>
      <point x="276" y="618"/>
      <point x="265" y="630"/>
      <point x="238" y="630" type="curve" smooth="yes"/>
    </contour>
    <contour>
      <point x="234" y="545" type="line"/>
      <point x="234" y="540"/>
      <point x="232" y="538"/>
      <point x="227" y="538" type="curve" smooth="yes"/>
      <point x="202" y="538" type="line"/>
      <point x="202" y="598" type="line"/>
      <point x="227" y="598" type="line" smooth="yes"/>
      <point x="232" y="598"/>
      <point x="234" y="596"/>
      <point x="234" y="591" type="curve" smooth="yes"/>
    </contour>
  </outline>
</glyph>
<glyph name="macron" format="1">
  <advance width="444"/>
  <unicode hex="00AF"/>
  <outline>
    <contour>
      <point x="70" y="552" type="line"/>
      <point x="373" y="552" type="line"/>
      <point x="373" y="631" type="line"/>
      <point x="70" y="631" type="line"/>
    </contour>
  </outline>
</glyph>
<glyph name="degree" format="1">
  <advance width="412"/>
  <unicode hex="00B0"/>
  <outline>
    <contour>
      <point x="359" y="533" type="line"/>
      <point x="359" y="595"/>
      <point x="329" y="631"/>
      <point x="253" y="631" type="curve" smooth="yes"/>
      <point x="156" y="631" type="line" smooth="yes"/>
      <point x="79" y="631"/>
      <point x="50" y="595"/>
      <point x="50" y="533" type="curve" smooth="yes"/>
      <point x="50" y="429" type="line" smooth="yes"/>
      <point x="50" y="367"/>
      <point x="79" y="331"/>
      <point x="156" y="331" type="curve" smooth="yes"/>
      <point x="253" y="331" type="line" smooth="yes"/>
      <point x="329" y="331"/>
      <point x="359" y="367"/>
      <point x="359" y="429" type="curve"/>
    </contour>
    <contour>
      <point x="254" y="435" type="line"/>
      <point x="254" y="414"/>
      <point x="247" y="409"/>
      <point x="225" y="409" type="curve" smooth="yes"/>
      <point x="184" y="409" type="line" smooth="yes"/>
      <point x="162" y="409"/>
      <point x="155" y="414"/>
      <point x="155" y="435" type="curve" smooth="yes"/>
      <point x="155" y="527" type="line" smooth="yes"/>
      <point x="155" y="547"/>
      <point x="162" y="553"/>
      <point x="184" y="553" type="curve" smooth="yes"/>
      <point x="225" y="553" type="line" smooth="yes"/>
      <point x="247" y="553"/>
      <point x="254" y="547"/>
      <point x="254" y="527" type="curve"/>
    </contour>
  </outline>
</glyph>
<glyph name="plusminus" format="1">
  <advance width="453"/>
  <unicode hex="00B1"/>
  <outline>
    <contour>
      <point x="28" y="359" type="line"/>
      <point x="425" y="359" type="line"/>
      <point x="425" y="446" type="line"/>
      <point x="28" y="446" type="line"/>
    </contour>
    <contour>
      <point x="171" y="523" type="line"/>
      <point x="171" y="281" type="line"/>
      <point x="282" y="281" type="line"/>
      <point x="282" y="523" type="line"/>
    </contour>
    <contour>
      <point x="28" y="161" type="line"/>
      <point x="425" y="161" type="line"/>
      <point x="425" y="250" type="line"/>
      <point x="28" y="250" type="line"/>
    </contour>
  </outline>
</glyph>
<glyph name="twosuperior" format="1">
  <advance width="227"/>
  <unicode hex="00B2"/>
  <outline>
    <contour>
      <point x="87" y="562" type="line"/>
      <point x="87" y="573"/>
      <point x="90" y="577"/>
      <point x="102" y="577" type="curve"/>
      <point x="118" y="577" type="line" smooth="yes"/>
      <point x="130" y="577"/>
      <point x="133" y="573"/>
      <point x="133" y="562" type="curve" smooth="yes"/>
      <point x="133" y="539" type="line" smooth="yes"/>
      <point x="133" y="510"/>
      <point x="131" y="494"/>
      <point x="115" y="474" type="curve"/>
      <point x="14" y="337" type="line"/>
      <point x="14" y="284" type="line"/>
      <point x="208" y="284" type="line"/>
      <point x="208" y="341" type="line"/>
      <point x="102" y="341" type="line"/>
      <point x="178" y="452" type="line" smooth="yes"/>
      <point x="198" y="477"/>
      <point x="207" y="504"/>
      <point x="207" y="541" type="curve" smooth="yes"/>
      <point x="207" y="577" type="line" smooth="yes"/>
      <point x="207" y="611"/>
      <point x="189" y="631"/>
      <point x="147" y="631" type="curve" smooth="yes"/>
      <point x="73" y="631" type="line" smooth="yes"/>
      <point x="31" y="631"/>
      <point x="14" y="611"/>
      <point x="14" y="577" type="curve" smooth="yes"/>
      <point x="14" y="512" type="line"/>
      <point x="87" y="512" type="line"/>
    </contour>
  </outline>
</glyph>
<glyph name="threesuperior" format="1">
  <advance width="234"/>
  <unicode hex="00B3"/>
  <outline>
    <contour>
      <point x="88" y="562" type="line"/>
      <point x="88" y="573"/>
      <point x="92" y="577"/>
      <point x="104" y="577" type="curve" smooth="yes"/>
      <point x="122" y="577" type="line" smooth="yes"/>
      <point x="134" y="577"/>
      <point x="137" y="573"/>
      <point x="137" y="562" type="curve" smooth="yes"/>
      <point x="137" y="499" type="line" smooth="yes"/>
      <point x="137" y="488"/>
      <point x="134" y="484"/>
      <point x="122" y="484" type="curve" smooth="yes"/>
      <point x="89" y="484" type="line"/>
      <point x="89" y="432" type="line"/>
      <point x="122" y="432" type="line" smooth="yes"/>
      <point x="134" y="432"/>
      <point x="137" y="429"/>
      <point x="137" y="417" type="curve" smooth="yes"/>
      <point x="137" y="353" type="line" smooth="yes"/>
      <point x="137" y="341"/>
      <point x="134" y="338"/>
      <point x="122" y="338" type="curve" smooth="yes"/>
      <point x="104" y="338" type="line" smooth="yes"/>
      <point x="92" y="338"/>
      <point x="88" y="341"/>
      <point x="88" y="353" type="curve" smooth="yes"/>
      <point x="88" y="394" type="line"/>
      <point x="15" y="394" type="line"/>
      <point x="15" y="338" type="line" smooth="yes"/>
      <point x="15" y="304"/>
      <point x="33" y="284"/>
      <point x="75" y="284" type="curve" smooth="yes"/>
      <point x="150" y="284" type="line" smooth="yes"/>
      <point x="192" y="284"/>
      <point x="210" y="304"/>
      <point x="210" y="338" type="curve" smooth="yes"/>
      <point x="210" y="419" type="line" smooth="yes"/>
      <point x="210" y="440"/>
      <point x="204" y="453"/>
      <point x="187" y="459" type="curve"/>
      <point x="204" y="464"/>
      <point x="210" y="479"/>
      <point x="210" y="501" type="curve" smooth="yes"/>
      <point x="210" y="577" type="line" smooth="yes"/>
      <point x="210" y="611"/>
      <point x="192" y="631"/>
      <point x="150" y="631" type="curve"/>
      <point x="75" y="631" type="line" smooth="yes"/>
      <point x="33" y="631"/>
      <point x="15" y="611"/>
      <point x="15" y="577" type="curve" smooth="yes"/>
      <point x="15" y="521" type="line"/>
      <point x="88" y="521" type="line"/>
    </contour>
  </outline>
</glyph>
<glyph name="acute" format="1">
  <advance width="444"/>
  <unicode hex="00B4"/>
  <outline>
    <contour>
      <point x="117" y="523" type="line"/>
      <point x="211" y="523" type="line"/>
      <point x="324" y="660" type="line"/>
      <point x="203" y="660" type="line"/>
    </contour>
  </outline>
</glyph>
<glyph name="mu.math" format="1">
  <advance width="405"/>
  <unicode hex="00B5"/>
  <outline>
    <contour>
      <point x="40" y="491" type="line"/>
      <point x="40" y="99" type="line" smooth="yes"/>
      <point x="40" y="36"/>
      <point x="71" y="0"/>
      <point x="143" y="0" type="curve" smooth="yes"/>
      <point x="173" y="0" type="line" smooth="yes"/>
      <point x="220" y="0"/>
      <point x="247" y="25"/>
      <point x="247" y="75" type="curve" smooth="yes"/>
      <point x="247" y="152" type="line"/>
      <point x="243" y="152" type="line"/>
      <point x="243" y="121" type="line" smooth="yes"/>
      <point x="243" y="97"/>
      <point x="233" y="88"/>
      <point x="212" y="88" type="curve" smooth="yes"/>
      <point x="182" y="88" type="line" smooth="yes"/>
      <point x="160" y="88"/>
      <point x="153" y="94"/>
      <point x="153" y="115" type="curve" smooth="yes"/>
      <point x="153" y="491" type="line"/>
    </contour>
    <contour>
      <point x="243" y="491" type="line"/>
      <point x="243" y="75" type="line"/>
      <point x="244" y="71" type="line"/>
      <point x="244" y="0" type="line"/>
      <point x="356" y="0" type="line"/>
      <point x="356" y="491" type="line"/>
    </contour>
    <contour>
      <point x="40" y="441" type="line"/>
      <point x="40" y="-136" type="line"/>
      <point x="153" y="-136" type="line"/>
      <point x="153" y="441" type="line"/>
    </contour>
  </outline>
</glyph>
<glyph name="paragraph" format="1">
  <advance width="525"/>
  <unicode hex="00B6"/>
  <outline>
    <contour>
      <point x="265" y="631" type="line"/>
      <point x="152" y="631" type="line" smooth="yes"/>
      <point x="75" y="631"/>
      <point x="43" y="595"/>
      <point x="43" y="532" type="curve" smooth="yes"/>
      <point x="43" y="320" type="line" smooth="yes"/>
      <point x="43" y="257"/>
      <point x="75" y="221"/>
      <point x="152" y="221" type="curve" smooth="yes"/>
      <point x="265" y="221" type="line"/>
    </contour>
    <contour>
      <point x="202" y="631" type="line"/>
      <point x="202" y="-136" type="line"/>
      <point x="300" y="-136" type="line"/>
      <point x="300" y="631" type="line"/>
    </contour>
    <contour>
      <point x="369" y="631" type="line"/>
      <point x="369" y="-136" type="line"/>
      <point x="466" y="-136" type="line"/>
      <point x="466" y="631" type="line"/>
    </contour>
  </outline>
</glyph>
<glyph name="periodcentered" format="1">
  <advance width="233"/>
  <unicode hex="00B7"/>
  <outline>
    <contour>
      <point x="38" y="259" type="line"/>
      <point x="160" y="259" type="line"/>
      <point x="160" y="389" type="line"/>
      <point x="38" y="389" type="line"/>
    </contour>
  </outline>
</glyph>
<glyph name="cedilla" format="1">
  <advance width="444"/>
  <unicode hex="00B8"/>
  <outline>
    <contour>
      <point x="204" y="-95" type="line"/>
      <point x="204" y="-116"/>
      <point x="195" y="-125"/>
      <point x="173" y="-125" type="curve" smooth="yes"/>
      <point x="129" y="-125" type="line"/>
      <point x="129" y="-208" type="line"/>
      <point x="196" y="-208" type="line" smooth="yes"/>
      <point x="274" y="-208"/>
      <point x="311" y="-171"/>
      <point x="311" y="-104" type="curve" smooth="yes"/>
      <point x="311" y="-49" type="line"/>
      <point x="204" y="-49" type="line"/>
    </contour>
  </outline>
</glyph>
<glyph name="onesuperior" format="1">
  <advance width="166"/>
  <unicode hex="00B9"/>
  <outline>
    <contour>
      <point x="89" y="631" type="line"/>
      <point x="11" y="631" type="line"/>
      <point x="11" y="577" type="line"/>
      <point x="89" y="577" type="line"/>
    </contour>
    <contour>
      <point x="53" y="631" type="line"/>
      <point x="53" y="284" type="line"/>
      <point x="128" y="284" type="line"/>
      <point x="128" y="631" type="line"/>
    </contour>
  </outline>
</glyph>
<glyph name="ordmasculine" format="1">
  <advance width="272"/>
  <unicode hex="00BA"/>
  <outline>
    <contour>
      <point x="174" y="412" type="line"/>
      <point x="247" y="412" type="line"/>
      <point x="247" y="561" type="line" smooth="yes"/>
      <point x="247" y="606"/>
      <point x="225" y="631"/>
      <point x="171" y="631" type="curve" smooth="yes"/>
      <point x="139" y="631" type="line"/>
      <point x="139" y="577" type="line"/>
      <point x="153" y="577" type="line" smooth="yes"/>
      <point x="169" y="577"/>
      <point x="174" y="573"/>
      <point x="174" y="558" type="curve" smooth="yes"/>
    </contour>
    <contour>
      <point x="174" y="357" type="line"/>
      <point x="174" y="342"/>
      <point x="169" y="338"/>
      <point x="153" y="338" type="curve" smooth="yes"/>
      <point x="136" y="338" type="line"/>
      <point x="136" y="284" type="line"/>
      <point x="171" y="284" type="line" smooth="yes"/>
      <point x="225" y="284"/>
      <point x="247" y="309"/>
      <point x="247" y="354" type="curve" smooth="yes"/>
      <point x="247" y="436" type="line"/>
      <point x="174" y="436" type="line"/>
    </contour>
    <contour>
      <point x="99" y="558" type="line"/>
      <point x="99" y="573"/>
      <point x="103" y="577"/>
      <point x="119" y="577" type="curve" smooth="yes"/>
      <point x="147" y="577" type="line"/>
      <point x="147" y="631" type="line"/>
      <point x="101" y="631" type="line" smooth="yes"/>
      <point x="47" y="631"/>
      <point x="26" y="606"/>
      <point x="26" y="561" type="curve" smooth="yes"/>
      <point x="26" y="412" type="line"/>
      <point x="99" y="412" type="line"/>
    </contour>
    <contour>
      <point x="99" y="438" type="line"/>
      <point x="26" y="438" type="line"/>
      <point x="26" y="354" type="line" smooth="yes"/>
      <point x="26" y="309"/>
      <point x="47" y="284"/>
      <point x="101" y="284" type="curve" smooth="yes"/>
      <point x="146" y="284" type="line"/>
      <point x="146" y="338" type="line"/>
      <point x="119" y="338" type="line" smooth="yes"/>
      <point x="103" y="338"/>
      <point x="99" y="342"/>
      <point x="99" y="357" type="curve" smooth="yes"/>
    </contour>
  </outline>
</glyph>
<glyph name="guillemotright" format="1">
  <advance width="493"/>
  <unicode hex="00BB"/>
  <outline>
    <contour>
      <point x="260" y="256" type="line"/>
      <point x="144" y="410" type="line"/>
      <point x="31" y="410" type="line"/>
      <point x="147" y="256" type="line"/>
      <point x="31" y="102" type="line"/>
      <point x="144" y="102" type="line"/>
    </contour>
    <contour>
      <point x="465" y="256" type="line"/>
      <point x="349" y="410" type="line"/>
      <point x="236" y="410" type="line"/>
      <point x="352" y="256" type="line"/>
      <point x="236" y="102" type="line"/>
      <point x="349" y="102" type="line"/>
    </contour>
  </outline>
</glyph>
<glyph name="AE" format="1">
  <advance width="634"/>
  <unicode hex="00C6"/>
  <outline>
    <contour>
      <point x="351" y="631" type="line"/>
      <point x="247" y="631" type="line"/>
      <point x="8" y="0" type="line"/>
      <point x="122" y="0" type="line"/>
    </contour>
    <contour>
      <point x="347" y="225" type="line"/>
      <point x="108" y="225" type="line"/>
      <point x="108" y="139" type="line"/>
      <point x="347" y="139" type="line"/>
    </contour>
    <contour>
      <point x="310" y="631" type="line"/>
      <point x="310" y="0" type="line"/>
      <point x="421" y="0" type="line"/>
      <point x="421" y="631" type="line"/>
    </contour>
    <contour>
      <point x="614" y="88" type="line"/>
      <point x="359" y="88" type="line"/>
      <point x="359" y="0" type="line"/>
      <point x="614" y="0" type="line"/>
    </contour>
    <contour>
      <point x="576" y="368" type="line"/>
      <point x="364" y="368" type="line"/>
      <point x="364" y="279" type="line"/>
      <point x="576" y="279" type="line"/>
    </contour>
    <contour>
      <point x="606" y="631" type="line"/>
      <point x="359" y="631" type="line"/>
      <point x="359" y="543" type="line"/>
      <point x="606" y="543" type="line"/>
    </contour>
  </outline>
</glyph>
<glyph name="multiply" format="1">
  <advance width="408"/>
  <unicode hex="00D7"/>
  <outline>
    <contour>
      <point x="385" y="198" type="line"/>
      <point x="91" y="492" type="line"/>
      <point x="23" y="424" type="line"/>
      <point x="317" y="130" type="line"/>
    </contour>
    <contour>
      <point x="317" y="492" type="line"/>
      <point x="23" y="198" type="line"/>
      <point x="91" y="130" type="line"/>
      <point x="385" y="424" type="line"/>
    </contour>
  </outline>
</glyph>
<glyph name="Oslash" format="1">
  <advance width="434"/>
  <unicode hex="00D8"/>
  <outline>
    <contour>
      <point x="387" y="532" type="line"/>
      <point x="387" y="595"/>
      <point x="355" y="631"/>
      <point x="278" y="631" type="curve" smooth="yes"/>
      <point x="156" y="631" type="line" smooth="yes"/>
      <point x="79" y="631"/>
      <point x="47" y="595"/>
      <point x="47" y="532" type="curve" smooth="yes"/>
      <point x="47" y="99" type="line" smooth="yes"/>
      <point x="47" y="36"/>
      <point x="79" y="0"/>
      <point x="156" y="0" type="curve" smooth="yes"/>
      <point x="278" y="0" type="line" smooth="yes"/>
      <point x="355" y="0"/>
      <point x="387" y="36"/>
      <point x="387" y="99" type="curve" smooth="yes"/>
    </contour>
    <contour>
      <point x="277" y="109" type="line"/>
      <point x="277" y="88"/>
      <point x="271" y="82"/>
      <point x="248" y="82" type="curve" smooth="yes"/>
      <point x="186" y="82" type="line" smooth="yes"/>
      <point x="164" y="82"/>
      <point x="157" y="88"/>
      <point x="157" y="109" type="curve" smooth="yes"/>
      <point x="157" y="522" type="line" smooth="yes"/>
      <point x="157" y="543"/>
      <point x="164" y="549"/>
      <point x="186" y="549" type="curve" smooth="yes"/>
      <point x="248" y="549" type="line"/>
      <point x="271" y="549"/>
      <point x="277" y="543"/>
      <point x="277" y="522" type="curve" smooth="yes"/>
    </contour>
    <contour>
      <point x="333" y="651" type="line"/>
      <point x="44" y="-20" type="line"/>
      <point x="103" y="-20" type="line"/>
      <point x="393" y="651" type="line"/>
    </contour>
  </outline>
</glyph>
<glyph name="Thorn" format="1">
  <advance width="428"/>
  <unicode hex="00DE"/>
  <outline>
    <contour>
      <point x="272" y="233" type="line"/>
      <point x="272" y="212"/>
      <point x="266" y="206"/>
      <point x="244" y="206" type="curve" smooth="yes"/>
      <point x="99" y="206" type="line"/>
      <point x="99" y="121" type="line"/>
      <point x="278" y="121" type="line" smooth="yes"/>
      <point x="355" y="121"/>
      <point x="387" y="157"/>
      <point x="387" y="219" type="curve" smooth="yes"/>
      <point x="387" y="411" type="line" smooth="yes"/>
      <point x="387" y="474"/>
      <point x="355" y="510"/>
      <point x="278" y="510" type="curve" smooth="yes"/>
      <point x="93" y="510" type="line"/>
      <point x="93" y="424" type="line"/>
      <point x="244" y="424" type="line" smooth="yes"/>
      <point x="266" y="424"/>
      <point x="272" y="418"/>
      <point x="272" y="397" type="curve" smooth="yes"/>
    </contour>
    <contour>
      <point x="51" y="631" type="line"/>
      <point x="51" y="0" type="line"/>
      <point x="166" y="0" type="line"/>
      <point x="166" y="631" type="line"/>
    </contour>
  </outline>
</glyph>
<glyph name="germandbls" format="1">
  <advance width="535"/>
  <unicode hex="00DF"/>
  <outline>
    <contour>
      <point x="218" y="155" type="line"/>
      <point x="218" y="99" type="line" smooth="yes"/>
      <point x="218" y="37"/>
      <point x="249" y="1"/>
      <point x="324" y="0" type="curve" smooth="yes"/>
      <point x="406" y="0" type="line" smooth="yes"/>
      <point x="483" y="0"/>
      <point x="510" y="36"/>
      <point x="510" y="99" type="curve" smooth="yes"/>
      <point x="510" y="188" type="line" smooth="yes"/>
      <point x="510" y="251"/>
      <point x="478" y="287"/>
      <point x="402" y="287" type="curve" smooth="yes"/>
      <point x="358" y="287" type="line" smooth="yes"/>
      <point x="336" y="287"/>
      <point x="329" y="293"/>
      <point x="329" y="314" type="curve" smooth="yes"/>
      <point x="329" y="342" type="line" smooth="yes"/>
      <point x="329" y="363"/>
      <point x="336" y="369"/>
      <point x="358" y="369" type="curve" smooth="yes"/>
      <point x="378" y="369" type="line"/>
      <point x="449" y="369"/>
      <point x="472" y="395"/>
      <point x="472" y="451" type="curve" smooth="yes"/>
      <point x="472" y="517" type="line" smooth="yes"/>
      <point x="472" y="577"/>
      <point x="440" y="612"/>
      <point x="367" y="612" type="curve" smooth="yes"/>
      <point x="150" y="612" type="line" smooth="yes"/>
      <point x="73" y="612"/>
      <point x="45" y="576"/>
      <point x="45" y="514" type="curve" smooth="yes"/>
      <point x="45" y="0" type="line"/>
      <point x="160" y="0" type="line"/>
      <point x="160" y="495" type="line" smooth="yes"/>
      <point x="160" y="516"/>
      <point x="167" y="523"/>
      <point x="189" y="523" type="curve" smooth="yes"/>
      <point x="327" y="523" type="line" smooth="yes"/>
      <point x="349" y="523"/>
      <point x="354" y="516"/>
      <point x="354" y="495" type="curve" smooth="yes"/>
      <point x="354" y="468" type="line" smooth="yes"/>
      <point x="354" y="449"/>
      <point x="348" y="445"/>
      <point x="322" y="445" type="curve" smooth="yes"/>
      <point x="252" y="445"/>
      <point x="219" y="415"/>
      <point x="219" y="351" type="curve"/>
      <point x="219" y="305" type="line" smooth="yes"/>
      <point x="219" y="242"/>
      <point x="247" y="206"/>
      <point x="324" y="206" type="curve" smooth="yes"/>
      <point x="370" y="206" type="line" smooth="yes"/>
      <point x="392" y="206"/>
      <point x="398" y="200"/>
      <point x="398" y="179" type="curve" smooth="yes"/>
      <point x="398" y="110" type="line" smooth="yes"/>
      <point x="398" y="89"/>
      <point x="392" y="83"/>
      <point x="370" y="83" type="curve" smooth="yes"/>
      <point x="357" y="83" type="line" smooth="yes"/>
      <point x="336" y="84"/>
      <point x="331" y="89"/>
      <point x="331" y="110" type="curve" smooth="yes"/>
      <point x="331" y="155" type="line"/>
    </contour>
  </outline>
</glyph>
<glyph name="ae" format="1">
  <advance width="609"/>
  <unicode hex="00E6"/>
  <outline>
    <contour>
      <point x="275" y="300" type="line"/>
      <point x="41" y="204" type="line"/>
      <point x="154" y="170" type="line"/>
      <point x="304" y="231" type="line"/>
    </contour>
    <contour>
      <point x="41" y="204" type="line"/>
      <point x="41" y="99" type="line" smooth="yes"/>
      <point x="41" y="36"/>
      <point x="72" y="0"/>
      <point x="143" y="0" type="curve" smooth="yes"/>
      <point x="213" y="0" type="line" smooth="yes"/>
      <point x="252" y="0"/>
      <point x="284" y="20"/>
      <point x="295" y="46" type="curve"/>
      <point x="307" y="20"/>
      <point x="337" y="0"/>
      <point x="383" y="0" type="curve" smooth="yes"/>
      <point x="456" y="0" type="line" smooth="yes"/>
      <point x="532" y="0"/>
      <point x="565" y="36"/>
      <point x="565" y="99" type="curve" smooth="yes"/>
      <point x="565" y="149" type="line"/>
      <point x="453" y="149" type="line"/>
      <point x="453" y="113" type="line" smooth="yes"/>
      <point x="453" y="92"/>
      <point x="447" y="86"/>
      <point x="425" y="86" type="curve" smooth="yes"/>
      <point x="383" y="86" type="line" smooth="yes"/>
      <point x="361" y="86"/>
      <point x="354" y="92"/>
      <point x="354" y="113" type="curve" smooth="yes"/>
      <point x="354" y="378" type="line" smooth="yes"/>
      <point x="354" y="399"/>
      <point x="361" y="405"/>
      <point x="383" y="405" type="curve" smooth="yes"/>
      <point x="427" y="405" type="line" smooth="yes"/>
      <point x="449" y="405"/>
      <point x="455" y="399"/>
      <point x="455" y="378" type="curve" smooth="yes"/>
      <point x="455" y="221" type="line"/>
      <point x="566" y="221" type="line"/>
      <point x="566" y="392" type="line" smooth="yes"/>
      <point x="566" y="455"/>
      <point x="534" y="491"/>
      <point x="457" y="491" type="curve" smooth="yes"/>
      <point x="384" y="491" type="line" smooth="yes"/>
      <point x="337" y="491"/>
      <point x="307" y="471"/>
      <point x="295" y="445" type="curve"/>
      <point x="284" y="471"/>
      <point x="252" y="491"/>
      <point x="213" y="491" type="curve" smooth="yes"/>
      <point x="143" y="491" type="line" smooth="yes"/>
      <point x="72" y="491"/>
      <point x="41" y="455"/>
      <point x="41" y="392" type="curve" smooth="yes"/>
      <point x="41" y="311" type="line"/>
      <point x="154" y="311" type="line"/>
      <point x="154" y="376" type="line" smooth="yes"/>
      <point x="154" y="397"/>
      <point x="160" y="403"/>
      <point x="182" y="403" type="curve" smooth="yes"/>
      <point x="212" y="403" type="line" smooth="yes"/>
      <point x="233" y="403"/>
      <point x="242" y="395"/>
      <point x="243" y="373" type="curve"/>
      <point x="243" y="118" type="line"/>
      <point x="242" y="96"/>
      <point x="233" y="88"/>
      <point x="212" y="88" type="curve" smooth="yes"/>
      <point x="182" y="88" type="line" smooth="yes"/>
      <point x="160" y="88"/>
      <point x="154" y="94"/>
      <point x="154" y="115" type="curve" smooth="yes"/>
      <point x="154" y="170" type="line"/>
    </contour>
    <contour>
      <point x="559" y="288" type="line"/>
      <point x="278" y="288" type="line"/>
      <point x="278" y="211" type="line"/>
      <point x="559" y="211" type="line"/>
    </contour>
  </outline>
</glyph>
<glyph name="iacute" format="1">
  <advance width="199"/>
  <unicode hex="00ED"/>
  <outline>
    <contour>
      <point x="156" y="0" type="line"/>
      <point x="156" y="491" type="line"/>
      <point x="43" y="491" type="line"/>
      <point x="43" y="0" type="line"/>
    </contour>
    <component base="acute" xOffset="-68"/>
  </outline>
</glyph>
<glyph name="idieresis" format="1">
  <advance width="199"/>
  <unicode hex="00EF"/>
  <outline>
    <contour>
      <point x="156" y="0" type="line"/>
      <point x="156" y="491" type="line"/>
      <point x="43" y="491" type="line"/>
      <point x="43" y="0" type="line"/>
    </contour>
    <component base="dieresis" xOffset="-124"/>
  </outline>
</glyph>
<glyph name="eth" format="1">
  <advance width="412"/>
  <unicode hex="00F0"/>
  <outline>
    <contour>
      <point x="149" y="115" type="curve"/>
      <point x="149" y="308" type="line" smooth="yes"/>
      <point x="149" y="330"/>
      <point x="155" y="336"/>
      <point x="177" y="336" type="curve" smooth="yes"/>
      <point x="287" y="336" type="line"/>
      <point x="287" y="419" type="line"/>
      <point x="145" y="419" type="line" smooth="yes"/>
      <point x="68" y="419"/>
      <point x="36" y="383"/>
      <point x="36" y="320" type="curve" smooth="yes"/>
      <point x="36" y="99" type="line" smooth="yes"/>
      <point x="36" y="36"/>
      <point x="68" y="0"/>
      <point x="145" y="0" type="curve" smooth="yes"/>
      <point x="206" y="0" type="line"/>
      <point x="206" y="88" type="line"/>
      <point x="177" y="88" type="line" smooth="yes"/>
      <point x="155" y="88"/>
      <point x="149" y="94"/>
    </contour>
    <contour>
      <point x="255" y="303" type="curve" smooth="yes"/>
      <point x="255" y="115" type="line" smooth="yes"/>
      <point x="255" y="94"/>
      <point x="249" y="88"/>
      <point x="227" y="88" type="curve" smooth="yes"/>
      <point x="197" y="88" type="line"/>
      <point x="197" y="0" type="line"/>
      <point x="258" y="0" type="line" smooth="yes"/>
      <point x="335" y="0"/>
      <point x="367" y="36"/>
      <point x="367" y="99" type="curve" smooth="yes"/>
      <point x="367" y="308" type="line" smooth="yes"/>
      <point x="367" y="468"/>
      <point x="284" y="577"/>
      <point x="226" y="631" type="curve"/>
      <point x="69" y="631" type="line"/>
      <point x="141" y="576"/>
      <point x="255" y="464"/>
    </contour>
    <contour>
      <point x="89" y="473" type="line"/>
      <point x="350" y="561" type="line"/>
      <point x="350" y="625" type="line"/>
      <point x="89" y="537" type="line"/>
    </contour>
  </outline>
</glyph>
<glyph name="divide" format="1">
  <advance width="447"/>
  <unicode hex="00F7"/>
  <outline>
    <contour>
      <point x="25" y="270" type="line"/>
      <point x="422" y="270" type="line"/>
      <point x="422" y="359" type="line"/>
      <point x="25" y="359" type="line"/>
    </contour>
    <contour>
      <point x="168" y="511" type="line"/>
      <point x="168" y="416" type="line"/>
      <point x="279" y="416" type="line"/>
      <point x="279" y="511" type="line"/>
    </contour>
    <contour>
      <point x="168" y="214" type="line"/>
      <point x="168" y="118" type="line"/>
      <point x="279" y="118" type="line"/>
      <point x="279" y="214" type="line"/>
    </contour>
  </outline>
</glyph>
<glyph name="oslash" format="1">
  <advance width="408"/>
  <unicode hex="00F8"/>
  <outline>
    <contour>
      <point x="367" y="392" type="line"/>
      <point x="367" y="455"/>
      <point x="337" y="491"/>
      <point x="260" y="491" type="curve" smooth="yes"/>
      <point x="147" y="491" type="line" smooth="yes"/>
      <point x="71" y="491"/>
      <point x="41" y="455"/>
      <point x="41" y="392" type="curve" smooth="yes"/>
      <point x="41" y="99" type="line" smooth="yes"/>
      <point x="41" y="36"/>
      <point x="71" y="0"/>
      <point x="147" y="0" type="curve" smooth="yes"/>
      <point x="260" y="0" type="line" smooth="yes"/>
      <point x="337" y="0"/>
      <point x="367" y="36"/>
      <point x="367" y="99" type="curve" smooth="yes"/>
    </contour>
    <contour>
      <point x="259" y="107" type="line"/>
      <point x="259" y="85"/>
      <point x="252" y="79"/>
      <point x="230" y="79" type="curve" smooth="yes"/>
      <point x="178" y="79" type="line" smooth="yes"/>
      <point x="155" y="79"/>
      <point x="149" y="85"/>
      <point x="149" y="107" type="curve" smooth="yes"/>
      <point x="149" y="384" type="line" smooth="yes"/>
      <point x="149" y="406"/>
      <point x="155" y="412"/>
      <point x="178" y="412" type="curve" smooth="yes"/>
      <point x="230" y="412" type="line"/>
      <point x="252" y="412"/>
      <point x="259" y="406"/>
      <point x="259" y="384" type="curve" smooth="yes"/>
    </contour>
    <contour>
      <point x="312" y="511" type="line"/>
      <point x="36" y="-20" type="line"/>
      <point x="96" y="-20" type="line"/>
      <point x="372" y="511" type="line"/>
    </contour>
  </outline>
</glyph>
<glyph name="thorn" format="1">
  <advance width="399"/>
  <unicode hex="00FE"/>
  <outline>
    <contour>
      <point x="356" y="231" type="line"/>
      <point x="356" y="392" type="line" smooth="yes"/>
      <point x="356" y="455"/>
      <point x="325" y="491"/>
      <point x="253" y="491" type="curve" smooth="yes"/>
      <point x="223" y="491" type="line" smooth="yes"/>
      <point x="176" y="491"/>
      <point x="149" y="466"/>
      <point x="149" y="417" type="curve" smooth="yes"/>
      <point x="149" y="339" type="line"/>
      <point x="154" y="339" type="line"/>
      <point x="154" y="370" type="line" smooth="yes"/>
      <point x="154" y="394"/>
      <point x="163" y="403"/>
      <point x="185" y="403" type="curve" smooth="yes"/>
      <point x="214" y="403" type="line" smooth="yes"/>
      <point x="236" y="403"/>
      <point x="243" y="397"/>
      <point x="243" y="376" type="curve" smooth="yes"/>
      <point x="243" y="231" type="line"/>
    </contour>
    <contour>
      <point x="154" y="-136" type="line"/>
      <point x="154" y="415" type="line"/>
      <point x="152" y="422" type="line"/>
      <point x="152" y="669" type="line"/>
      <point x="40" y="669" type="line"/>
      <point x="40" y="-136" type="line"/>
    </contour>
    <contour>
      <point x="243" y="261" type="line"/>
      <point x="243" y="115" type="line" smooth="yes"/>
      <point x="243" y="94"/>
      <point x="236" y="88"/>
      <point x="214" y="88" type="curve" smooth="yes"/>
      <point x="185" y="88" type="line" smooth="yes"/>
      <point x="163" y="88"/>
      <point x="154" y="97"/>
      <point x="154" y="121" type="curve" smooth="yes"/>
      <point x="154" y="146" type="line"/>
      <point x="149" y="146" type="line"/>
      <point x="149" y="75" type="line" smooth="yes"/>
      <point x="149" y="25"/>
      <point x="176" y="0"/>
      <point x="223" y="0" type="curve" smooth="yes"/>
      <point x="253" y="0" type="line" smooth="yes"/>
      <point x="325" y="0"/>
      <point x="356" y="36"/>
      <point x="356" y="99" type="curve" smooth="yes"/>
      <point x="356" y="261" type="line"/>
    </contour>
  </outline>
</glyph>
<glyph name="dcaron" format="1">
  <advance width="427"/>
  <unicode hex="010F"/>
  <outline>
    <contour>
      <point x="394" y="669" type="line"/>
      <point x="394" y="486" type="line"/>
      <point x="427" y="486" type="line"/>
      <point x="480" y="613" type="line"/>
      <point x="480" y="669" type="line"/>
    </contour>
    <component base="d"/>
  </outline>
</glyph>
<glyph name="Dcroat" format="1">
  <advance width="450"/>
  <unicode hex="0110"/>
  <outline>
    <contour>
      <point x="286" y="387" type="line"/>
      <point x="402" y="387" type="line"/>
      <point x="402" y="532" type="line" smooth="yes"/>
      <point x="402" y="595"/>
      <point x="370" y="631"/>
      <point x="293" y="631" type="curve" smooth="yes"/>
      <point x="100" y="631" type="line"/>
      <point x="100" y="543" type="line"/>
      <point x="258" y="543" type="line" smooth="yes"/>
      <point x="280" y="543"/>
      <point x="286" y="537"/>
      <point x="286" y="516" type="curve" smooth="yes"/>
    </contour>
    <contour>
      <point x="286" y="115" type="line"/>
      <point x="286" y="94"/>
      <point x="280" y="88"/>
      <point x="258" y="88" type="curve" smooth="yes"/>
      <point x="100" y="88" type="line"/>
      <point x="100" y="0" type="line"/>
      <point x="293" y="0" type="line" smooth="yes"/>
      <point x="370" y="0"/>
      <point x="402" y="36"/>
      <point x="402" y="99" type="curve" smooth="yes"/>
      <point x="402" y="407" type="line"/>
      <point x="286" y="407" type="line"/>
    </contour>
    <contour>
      <point x="53" y="631" type="line"/>
      <point x="53" y="0" type="line"/>
      <point x="168" y="0" type="line"/>
      <point x="168" y="631" type="line"/>
    </contour>
    <contour>
      <point x="237" y="360" type="line"/>
      <point x="1" y="360" type="line"/>
      <point x="1" y="277" type="line"/>
      <point x="237" y="277" type="line"/>
    </contour>
  </outline>
</glyph>
<glyph name="dcroat" format="1">
  <advance width="399"/>
  <unicode hex="0111"/>
  <outline>
    <contour>
      <point x="154" y="231" type="line"/>
      <point x="154" y="376" type="line" smooth="yes"/>
      <point x="154" y="397"/>
      <point x="160" y="403"/>
      <point x="182" y="403" type="curve" smooth="yes"/>
      <point x="212" y="403" type="line" smooth="yes"/>
      <point x="234" y="403"/>
      <point x="243" y="394"/>
      <point x="243" y="370" type="curve" smooth="yes"/>
      <point x="243" y="339" type="line"/>
      <point x="248" y="339" type="line"/>
      <point x="248" y="417" type="line" smooth="yes"/>
      <point x="248" y="466"/>
      <point x="221" y="491"/>
      <point x="174" y="491" type="curve" smooth="yes"/>
      <point x="143" y="491" type="line" smooth="yes"/>
      <point x="72" y="491"/>
      <point x="41" y="455"/>
      <point x="41" y="392" type="curve" smooth="yes"/>
      <point x="41" y="231" type="line"/>
    </contour>
    <contour>
      <point x="243" y="669" type="line"/>
      <point x="243" y="75" type="line"/>
      <point x="245" y="71" type="line"/>
      <point x="245" y="0" type="line"/>
      <point x="357" y="0" type="line"/>
      <point x="357" y="669" type="line"/>
    </contour>
    <contour>
      <point x="41" y="261" type="line"/>
      <point x="41" y="99" type="line" smooth="yes"/>
      <point x="41" y="36"/>
      <point x="72" y="0"/>
      <point x="143" y="0" type="curve" smooth="yes"/>
      <point x="174" y="0" type="line" smooth="yes"/>
      <point x="221" y="0"/>
      <point x="248" y="25"/>
      <point x="248" y="75" type="curve" smooth="yes"/>
      <point x="248" y="146" type="line"/>
      <point x="243" y="146" type="line"/>
      <point x="243" y="121" type="line" smooth="yes"/>
      <point x="243" y="97"/>
      <point x="234" y="88"/>
      <point x="212" y="88" type="curve" smooth="yes"/>
      <point x="182" y="88" type="line" smooth="yes"/>
      <point x="160" y="88"/>
      <point x="154" y="94"/>
      <point x="154" y="115" type="curve" smooth="yes"/>
      <point x="154" y="261" type="line"/>
    </contour>
    <contour>
      <point x="404" y="611" type="line"/>
      <point x="169" y="611" type="line"/>
      <point x="169" y="545" type="line"/>
      <point x="404" y="545" type="line"/>
    </contour>
  </outline>
</glyph>
<glyph name="Gcommaaccent" format="1">
  <advance width="416"/>
  <unicode hex="0122"/>
  <outline>
    <contour>
      <point x="159" y="520" type="line"/>
      <point x="159" y="541"/>
      <point x="165" y="547"/>
      <point x="187" y="547" type="curve" smooth="yes"/>
      <point x="219" y="547" type="line"/>
      <point x="219" y="631" type="line"/>
      <point x="152" y="631" type="line" smooth="yes"/>
      <point x="76" y="631"/>
      <point x="43" y="595"/>
      <point x="43" y="532" type="curve" smooth="yes"/>
      <point x="43" y="98" type="line" smooth="yes"/>
      <point x="43" y="36"/>
      <point x="76" y="-1"/>
      <point x="152" y="-1" type="curve"/>
      <point x="214" y="-1" type="line"/>
      <point x="214" y="83" type="line"/>
      <point x="187" y="83" type="line" smooth="yes"/>
      <point x="165" y="83"/>
      <point x="159" y="89"/>
      <point x="159" y="110" type="curve" smooth="yes"/>
    </contour>
    <contour>
      <point x="378" y="331" type="line"/>
      <point x="212" y="331" type="line"/>
      <point x="212" y="250" type="line"/>
      <point x="378" y="250" type="line"/>
    </contour>
    <contour>
      <point x="262" y="437" type="line"/>
      <point x="378" y="437" type="line"/>
      <point x="378" y="532" type="line" smooth="yes"/>
      <point x="378" y="595"/>
      <point x="346" y="631"/>
      <point x="269" y="631" type="curve" smooth="yes"/>
      <point x="203" y="631" type="line"/>
      <point x="203" y="547" type="line"/>
      <point x="234" y="547" type="line" smooth="yes"/>
      <point x="256" y="547"/>
      <point x="262" y="541"/>
      <point x="262" y="520" type="curve" smooth="yes"/>
    </contour>
    <contour>
      <point x="262" y="110" type="line"/>
      <point x="262" y="89"/>
      <point x="256" y="83"/>
      <point x="234" y="83" type="curve" smooth="yes"/>
      <point x="205" y="83" type="line"/>
      <point x="205" y="-1" type="line"/>
      <point x="269" y="-1" type="line" smooth="yes"/>
      <point x="346" y="-1"/>
      <point x="378" y="36"/>
      <point x="378" y="98" type="curve" smooth="yes"/>
      <point x="378" y="275" type="line"/>
      <point x="262" y="275" type="line"/>
    </contour>
    <contour>
      <point x="158" y="-49" type="line"/>
      <point x="158" y="-250" type="line"/>
      <point x="196" y="-250" type="line"/>
      <point x="276" y="-109" type="line"/>
      <point x="276" y="-49" type="line"/>
    </contour>
  </outline>
</glyph>
<glyph name="gcommaaccent" format="1">
  <advance width="394"/>
  <unicode hex="0123"/>
  <outline>
    <contour>
      <point x="265" y="523" type="line"/>
      <point x="265" y="724" type="line"/>
      <point x="227" y="724" type="line"/>
      <point x="147" y="583" type="line"/>
      <point x="147" y="523" type="line"/>
    </contour>
    <component base="g"/>
  </outline>
</glyph>
<glyph name="imacron" format="1">
  <advance width="199"/>
  <unicode hex="012B"/>
  <outline>
    <contour>
      <point x="156" y="0" type="line"/>
      <point x="156" y="491" type="line"/>
      <point x="43" y="491" type="line"/>
      <point x="43" y="0" type="line"/>
    </contour>
    <component base="macron" xOffset="-122"/>
  </outline>
</glyph>
<glyph name="Kcommaaccent" format="1">
  <advance width="426"/>
  <unicode hex="0136"/>
  <outline>
    <contour>
      <point x="168" y="317" type="line"/>
      <point x="293" y="0" type="line"/>
      <point x="417" y="0" type="line"/>
      <point x="288" y="317" type="line"/>
    </contour>
    <contour>
      <point x="288" y="317" type="line"/>
      <point x="418" y="631" type="line"/>
      <point x="294" y="631" type="line"/>
      <point x="168" y="317" type="line"/>
    </contour>
    <contour>
      <point x="48" y="631" type="line"/>
      <point x="48" y="0" type="line"/>
      <point x="163" y="0" type="line"/>
      <point x="163" y="631" type="line"/>
    </contour>
    <contour>
      <point x="155" y="-49" type="line"/>
      <point x="155" y="-250" type="line"/>
      <point x="193" y="-250" type="line"/>
      <point x="273" y="-109" type="line"/>
      <point x="273" y="-49" type="line"/>
    </contour>
  </outline>
</glyph>
<glyph name="kcommaaccent" format="1">
  <advance width="391"/>
  <unicode hex="0137"/>
  <outline>
    <contour>
      <point x="156" y="0" type="line"/>
      <point x="156" y="669" type="line"/>
      <point x="43" y="669" type="line"/>
      <point x="43" y="0" type="line"/>
    </contour>
    <contour>
      <point x="165" y="255" type="line"/>
      <point x="271" y="0" type="line"/>
      <point x="390" y="0" type="line"/>
      <point x="280" y="255" type="line"/>
    </contour>
    <contour>
      <point x="280" y="255" type="line"/>
      <point x="390" y="491" type="line"/>
      <point x="272" y="491" type="line"/>
      <point x="165" y="255" type="line"/>
    </contour>
    <contour>
      <point x="145" y="-49" type="line"/>
      <point x="145" y="-250" type="line"/>
      <point x="183" y="-250" type="line"/>
      <point x="263" y="-109" type="line"/>
      <point x="263" y="-49" type="line"/>
    </contour>
  </outline>
</glyph>
<glyph name="Lcommaaccent" format="1">
  <advance width="334"/>
  <unicode hex="013B"/>
  <outline>
    <contour>
      <point x="48" y="631" type="line"/>
      <point x="48" y="0" type="line"/>
      <point x="163" y="0" type="line"/>
      <point x="163" y="631" type="line"/>
    </contour>
    <contour>
      <point x="97" y="0" type="line"/>
      <point x="331" y="0" type="line"/>
      <point x="331" y="88" type="line"/>
      <point x="97" y="88" type="line"/>
    </contour>
    <contour>
      <point x="129" y="-49" type="line"/>
      <point x="129" y="-250" type="line"/>
      <point x="167" y="-250" type="line"/>
      <point x="247" y="-109" type="line"/>
      <point x="247" y="-49" type="line"/>
    </contour>
  </outline>
</glyph>
<glyph name="lcommaaccent" format="1">
  <advance width="199"/>
  <unicode hex="013C"/>
  <outline>
    <contour>
      <point x="156" y="0" type="line"/>
      <point x="156" y="669" type="line"/>
      <point x="43" y="669" type="line"/>
      <point x="43" y="0" type="line"/>
    </contour>
    <contour>
      <point x="40" y="-49" type="line"/>
      <point x="40" y="-250" type="line"/>
      <point x="78" y="-250" type="line"/>
      <point x="159" y="-109" type="line"/>
      <point x="159" y="-49" type="line"/>
    </contour>
  </outline>
</glyph>
<glyph name="lcaron" format="1">
  <advance width="236"/>
  <unicode hex="013E"/>
  <outline>
    <contour>
      <point x="199" y="669" type="line"/>
      <point x="199" y="486" type="line"/>
      <point x="232" y="486" type="line"/>
      <point x="285" y="613" type="line"/>
      <point x="285" y="669" type="line"/>
    </contour>
    <component base="l"/>
  </outline>
</glyph>
<glyph name="Lslash" format="1">
  <advance width="346"/>
  <unicode hex="0141"/>
  <outline>
    <contour>
      <point x="271" y="435" type="line"/>
      <point x="-27" y="294" type="line"/>
      <point x="-27" y="210" type="line"/>
      <point x="271" y="351" type="line"/>
    </contour>
    <component base="L" xOffset="4"/>
  </outline>
</glyph>
<glyph name="lslash" format="1">
  <advance width="209"/>
  <unicode hex="0142"/>
  <outline>
    <contour>
      <point x="258" y="480" type="line"/>
      <point x="-40" y="339" type="line"/>
      <point x="-40" y="256" type="line"/>
      <point x="258" y="397" type="line"/>
    </contour>
    <component base="l" xOffset="5"/>
  </outline>
</glyph>
<glyph name="Ncommaaccent" format="1">
  <advance width="446"/>
  <unicode hex="0145"/>
  <outline>
    <contour>
      <point x="292" y="631" type="line"/>
      <point x="292" y="219" type="line"/>
      <point x="159" y="631" type="line"/>
      <point x="48" y="631" type="line"/>
      <point x="48" y="0" type="line"/>
      <point x="154" y="0" type="line"/>
      <point x="154" y="418" type="line"/>
      <point x="289" y="0" type="line"/>
      <point x="397" y="0" type="line"/>
      <point x="397" y="631" type="line"/>
    </contour>
    <contour>
      <point x="155" y="-49" type="line"/>
      <point x="155" y="-250" type="line"/>
      <point x="193" y="-250" type="line"/>
      <point x="273" y="-109" type="line"/>
      <point x="273" y="-49" type="line"/>
    </contour>
  </outline>
</glyph>
<glyph name="OE" format="1">
  <advance width="615"/>
  <unicode hex="0152"/>
  <outline>
    <contour>
      <point x="282" y="244" type="line"/>
      <point x="340" y="244" type="line"/>
      <point x="340" y="510" type="line" smooth="yes"/>
      <point x="340" y="577"/>
      <point x="319" y="631"/>
      <point x="242" y="631" type="curve" smooth="yes"/>
      <point x="220" y="631" type="line"/>
      <point x="220" y="547" type="line"/>
      <point x="253" y="547" type="line" smooth="yes"/>
      <point x="275" y="547"/>
      <point x="282" y="541"/>
      <point x="282" y="520" type="curve" smooth="yes"/>
    </contour>
    <contour>
      <point x="282" y="111" type="line"/>
      <point x="282" y="90"/>
      <point x="275" y="84"/>
      <point x="253" y="84" type="curve" smooth="yes"/>
      <point x="216" y="84" type="line"/>
      <point x="216" y="0" type="line"/>
      <point x="243" y="0" type="line" smooth="yes"/>
      <point x="320" y="0"/>
      <point x="340" y="54"/>
      <point x="340" y="121" type="curve" smooth="yes"/>
      <point x="340" y="277" type="line"/>
      <point x="282" y="277" type="line"/>
    </contour>
    <contour>
      <point x="172" y="520" type="line"/>
      <point x="172" y="541"/>
      <point x="178" y="547"/>
      <point x="200" y="547" type="curve" smooth="yes"/>
      <point x="225" y="547" type="line"/>
      <point x="225" y="631" type="line"/>
      <point x="166" y="631" type="line" smooth="yes"/>
      <point x="89" y="631"/>
      <point x="57" y="595"/>
      <point x="57" y="532" type="curve" smooth="yes"/>
      <point x="57" y="243" type="line"/>
      <point x="172" y="243" type="line"/>
    </contour>
    <contour>
      <point x="172" y="282" type="line"/>
      <point x="57" y="282" type="line"/>
      <point x="57" y="99" type="line" smooth="yes"/>
      <point x="57" y="36"/>
      <point x="89" y="0"/>
      <point x="166" y="0" type="curve" smooth="yes"/>
      <point x="223" y="0" type="line"/>
      <point x="223" y="84" type="line"/>
      <point x="200" y="84" type="line" smooth="yes"/>
      <point x="178" y="84"/>
      <point x="172" y="90"/>
      <point x="172" y="111" type="curve" smooth="yes"/>
    </contour>
    <contour>
      <point x="306" y="631" type="line"/>
      <point x="306" y="0" type="line"/>
      <point x="394" y="0" type="line"/>
      <point x="394" y="631" type="line"/>
    </contour>
    <contour>
      <point x="549" y="365" type="line"/>
      <point x="336" y="365" type="line"/>
      <point x="336" y="282" type="line"/>
      <point x="549" y="282" type="line"/>
    </contour>
    <contour>
      <point x="578" y="631" type="line"/>
      <point x="330" y="631" type="line"/>
      <point x="330" y="547" type="line"/>
      <point x="578" y="547" type="line"/>
    </contour>
    <contour>
      <point x="586" y="84" type="line"/>
      <point x="330" y="84" type="line"/>
      <point x="330" y="0" type="line"/>
      <point x="586" y="0" type="line"/>
    </contour>
  </outline>
</glyph>
<glyph name="Rcommaaccent" format="1">
  <advance width="430"/>
  <unicode hex="0156"/>
  <outline>
    <contour>
      <point x="274" y="358" type="line"/>
      <point x="274" y="337"/>
      <point x="268" y="331"/>
      <point x="246" y="331" type="curve" smooth="yes"/>
      <point x="97" y="331" type="line"/>
      <point x="97" y="246" type="line"/>
      <point x="280" y="246" type="line" smooth="yes"/>
      <point x="357" y="246"/>
      <point x="389" y="282"/>
      <point x="389" y="345" type="curve" smooth="yes"/>
      <point x="389" y="532" type="line" smooth="yes"/>
      <point x="389" y="595"/>
      <point x="357" y="631"/>
      <point x="280" y="631" type="curve" smooth="yes"/>
      <point x="74" y="631" type="line"/>
      <point x="74" y="543" type="line"/>
      <point x="246" y="543" type="line" smooth="yes"/>
      <point x="268" y="543"/>
      <point x="274" y="537"/>
      <point x="274" y="516" type="curve" smooth="yes"/>
    </contour>
    <contour>
      <point x="48" y="631" type="line"/>
      <point x="48" y="0" type="line"/>
      <point x="163" y="0" type="line"/>
      <point x="163" y="631" type="line"/>
    </contour>
    <contour>
      <point x="183" y="291" type="line"/>
      <point x="297" y="0" type="line"/>
      <point x="421" y="0" type="line"/>
      <point x="298" y="291" type="line"/>
    </contour>
    <contour>
      <point x="155" y="-49" type="line"/>
      <point x="155" y="-250" type="line"/>
      <point x="193" y="-250" type="line"/>
      <point x="273" y="-109" type="line"/>
      <point x="273" y="-49" type="line"/>
    </contour>
  </outline>
</glyph>
<glyph name="rcommaaccent" format="1">
  <advance width="266"/>
  <unicode hex="0157"/>
  <outline>
    <contour>
      <point x="261" y="493" type="line"/>
      <point x="243" y="493" type="line" smooth="yes"/>
      <point x="183" y="493"/>
      <point x="151" y="447"/>
      <point x="151" y="399" type="curve"/>
      <point x="151" y="300" type="line"/>
      <point x="156" y="300" type="line"/>
      <point x="156" y="323" type="line"/>
      <point x="156" y="371"/>
      <point x="177" y="395"/>
      <point x="219" y="395" type="curve" smooth="yes"/>
      <point x="261" y="395" type="line"/>
    </contour>
    <contour>
      <point x="156" y="0" type="line"/>
      <point x="156" y="399" type="line"/>
      <point x="155" y="393" type="line"/>
      <point x="155" y="491" type="line"/>
      <point x="43" y="491" type="line"/>
      <point x="43" y="0" type="line"/>
    </contour>
    <contour>
      <point x="42" y="-49" type="line"/>
      <point x="42" y="-250" type="line"/>
      <point x="80" y="-250" type="line"/>
      <point x="160" y="-109" type="line"/>
      <point x="160" y="-49" type="line"/>
    </contour>
  </outline>
</glyph>
<glyph name="scedilla" format="1">
  <advance width="362"/>
  <unicode hex="015F"/>
  <outline>
    <contour>
      <point x="221" y="108" type="line"/>
      <point x="221" y="87"/>
      <point x="215" y="81"/>
      <point x="192" y="81" type="curve"/>
      <point x="172" y="81" type="line" smooth="yes"/>
      <point x="150" y="81"/>
      <point x="144" y="87"/>
      <point x="144" y="108" type="curve" smooth="yes"/>
      <point x="144" y="144" type="line"/>
      <point x="33" y="144" type="line"/>
      <point x="33" y="99" type="line" smooth="yes"/>
      <point x="33" y="36"/>
      <point x="65" y="0"/>
      <point x="142" y="0" type="curve" smooth="yes"/>
      <point x="223" y="0" type="line" smooth="yes"/>
      <point x="299" y="0"/>
      <point x="332" y="36"/>
      <point x="332" y="99" type="curve" smooth="yes"/>
      <point x="332" y="186" type="line" smooth="yes"/>
      <point x="332" y="248"/>
      <point x="301" y="284"/>
      <point x="224" y="284" type="curve" smooth="yes"/>
      <point x="170" y="284" type="line" smooth="yes"/>
      <point x="148" y="284"/>
      <point x="141" y="290"/>
      <point x="141" y="311" type="curve" smooth="yes"/>
      <point x="141" y="383" type="line" smooth="yes"/>
      <point x="141" y="404"/>
      <point x="148" y="410"/>
      <point x="170" y="410" type="curve" smooth="yes"/>
      <point x="190" y="410" type="line" smooth="yes"/>
      <point x="212" y="410"/>
      <point x="218" y="404"/>
      <point x="218" y="383" type="curve" smooth="yes"/>
      <point x="218" y="346" type="line"/>
      <point x="327" y="346" type="line"/>
      <point x="327" y="392" type="line" smooth="yes"/>
      <point x="327" y="455"/>
      <point x="295" y="491"/>
      <point x="219" y="491" type="curve" smooth="yes"/>
      <point x="140" y="491" type="line" smooth="yes"/>
      <point x="63" y="491"/>
      <point x="31" y="455"/>
      <point x="31" y="392" type="curve" smooth="yes"/>
      <point x="31" y="302" type="line" smooth="yes"/>
      <point x="31" y="240"/>
      <point x="61" y="204"/>
      <point x="138" y="204" type="curve" smooth="yes"/>
      <point x="192" y="204" type="line" smooth="yes"/>
      <point x="215" y="204"/>
      <point x="221" y="198"/>
      <point x="221" y="177" type="curve" smooth="yes"/>
    </contour>
    <contour>
      <point x="121" y="-49" type="line"/>
      <point x="121" y="-250" type="line"/>
      <point x="159" y="-250" type="line"/>
      <point x="239" y="-109" type="line"/>
      <point x="239" y="-49" type="line"/>
    </contour>
  </outline>
</glyph>
<glyph name="Tcedilla" format="1">
  <advance width="346"/>
  <unicode hex="0162"/>
  <outline>
    <contour>
      <point x="115" y="604" type="line"/>
      <point x="115" y="0" type="line"/>
      <point x="230" y="0" type="line"/>
      <point x="230" y="604" type="line"/>
    </contour>
    <contour>
      <point x="341" y="631" type="line"/>
      <point x="5" y="631" type="line"/>
      <point x="5" y="543" type="line"/>
      <point x="341" y="543" type="line"/>
    </contour>
    <contour>
      <point x="113" y="-49" type="line"/>
      <point x="113" y="-250" type="line"/>
      <point x="151" y="-250" type="line"/>
      <point x="231" y="-109" type="line"/>
      <point x="231" y="-49" type="line"/>
    </contour>
  </outline>
</glyph>
<glyph name="tcaron" format="1">
  <advance width="244"/>
  <unicode hex="0165"/>
  <outline>
    <contour>
      <point x="210" y="687" type="line"/>
      <point x="210" y="524" type="line"/>
      <point x="242" y="524" type="line"/>
      <point x="304" y="632" type="line"/>
      <point x="304" y="687" type="line"/>
    </contour>
    <component base="t"/>
  </outline>
</glyph>
<glyph name="florin" format="1">
  <advance width="381"/>
  <unicode hex="0192"/>
  <outline>
    <contour>
      <point x="261" y="551" type="line"/>
      <point x="264" y="572"/>
      <point x="267" y="578"/>
      <point x="289" y="578" type="curve" smooth="yes"/>
      <point x="338" y="578" type="line"/>
      <point x="338" y="669" type="line"/>
      <point x="256" y="669" type="line" smooth="yes"/>
      <point x="180" y="669"/>
      <point x="156" y="632"/>
      <point x="148" y="570" type="curve" smooth="yes"/>
      <point x="68" y="-26" type="line" smooth="yes"/>
      <point x="65" y="-47"/>
      <point x="61" y="-53"/>
      <point x="39" y="-53" type="curve" smooth="yes"/>
      <point x="-10" y="-53" type="line"/>
      <point x="-10" y="-144" type="line"/>
      <point x="72" y="-144" type="line" smooth="yes"/>
      <point x="149" y="-144"/>
      <point x="172" y="-107"/>
      <point x="181" y="-45" type="curve" smooth="yes"/>
    </contour>
    <contour>
      <point x="338" y="491" type="line"/>
      <point x="59" y="491" type="line"/>
      <point x="59" y="403" type="line"/>
      <point x="338" y="403" type="line"/>
    </contour>
  </outline>
</glyph>
<glyph name="tcommaaccent" format="1">
  <advance width="244"/>
  <unicode hex="021B"/>
  <outline>
    <contour>
      <point x="167" y="579" type="line"/>
      <point x="54" y="579" type="line"/>
      <point x="54" y="99" type="line" smooth="yes"/>
      <point x="54" y="36"/>
      <point x="86" y="0"/>
      <point x="163" y="0" type="curve" smooth="yes"/>
      <point x="233" y="0" type="line"/>
      <point x="233" y="91" type="line"/>
      <point x="196" y="91" type="line" smooth="yes"/>
      <point x="174" y="91"/>
      <point x="167" y="97"/>
      <point x="167" y="118" type="curve" smooth="yes"/>
    </contour>
    <contour>
      <point x="234" y="491" type="line"/>
      <point x="5" y="491" type="line"/>
      <point x="5" y="403" type="line"/>
      <point x="234" y="403" type="line"/>
    </contour>
    <contour>
      <point x="80" y="-49" type="line"/>
      <point x="80" y="-250" type="line"/>
      <point x="118" y="-250" type="line"/>
      <point x="198" y="-109" type="line"/>
      <point x="198" y="-49" type="line"/>
    </contour>
  </outline>
</glyph>
<glyph name="circumflex" format="1">
  <advance width="444"/>
  <unicode hex="02C6"/>
  <outline>
    <contour>
      <point x="57" y="523" type="line"/>
      <point x="169" y="523" type="line"/>
      <point x="221" y="600" type="line"/>
      <point x="274" y="523" type="line"/>
      <point x="386" y="523" type="line"/>
      <point x="280" y="660" type="line"/>
      <point x="163" y="660" type="line"/>
    </contour>
  </outline>
</glyph>
<glyph name="caron" format="1">
  <advance width="444"/>
  <unicode hex="02C7"/>
  <outline>
    <contour>
      <point x="163" y="523" type="line"/>
      <point x="280" y="523" type="line"/>
      <point x="386" y="660" type="line"/>
      <point x="274" y="660" type="line"/>
      <point x="221" y="583" type="line"/>
      <point x="169" y="660" type="line"/>
      <point x="57" y="660" type="line"/>
    </contour>
  </outline>
</glyph>
<glyph name="macronmod" format="1">
  <advance width="444"/>
  <unicode hex="02C9"/>
  <outline>
    <contour>
      <point x="70" y="552" type="line"/>
      <point x="373" y="552" type="line"/>
      <point x="373" y="631" type="line"/>
      <point x="70" y="631" type="line"/>
    </contour>
  </outline>
</glyph>
<glyph name="breve" format="1">
  <advance width="444"/>
  <unicode hex="02D8"/>
  <outline>
    <contour>
      <point x="279" y="660" type="line"/>
      <point x="279" y="623" type="line" smooth="yes"/>
      <point x="279" y="602"/>
      <point x="272" y="596"/>
      <point x="250" y="596" type="curve" smooth="yes"/>
      <point x="215" y="596" type="line"/>
      <point x="215" y="523" type="line"/>
      <point x="273" y="523" type="line" smooth="yes"/>
      <point x="349" y="523"/>
      <point x="381" y="559"/>
      <point x="381" y="622" type="curve" smooth="yes"/>
      <point x="381" y="660" type="line"/>
    </contour>
    <contour>
      <point x="63" y="660" type="line"/>
      <point x="63" y="622" type="line" smooth="yes"/>
      <point x="63" y="559"/>
      <point x="95" y="523"/>
      <point x="171" y="523" type="curve" smooth="yes"/>
      <point x="229" y="523" type="line"/>
      <point x="229" y="596" type="line"/>
      <point x="194" y="596" type="line" smooth="yes"/>
      <point x="172" y="596"/>
      <point x="165" y="602"/>
      <point x="165" y="623" type="curve" smooth="yes"/>
      <point x="165" y="660" type="line"/>
    </contour>
  </outline>
</glyph>
<glyph name="dotaccent" format="1">
  <advance width="444"/>
  <unicode hex="02D9"/>
  <outline>
    <contour>
      <point x="161" y="539" type="line"/>
      <point x="283" y="539" type="line"/>
      <point x="283" y="644" type="line"/>
      <point x="161" y="644" type="line"/>
    </contour>
  </outline>
</glyph>
<glyph name="ring" format="1">
  <advance width="444"/>
  <unicode hex="02DA"/>
  <outline>
    <contour>
      <point x="339" y="600" type="line"/>
      <point x="339" y="649"/>
      <point x="316" y="676"/>
      <point x="258" y="676" type="curve" smooth="yes"/>
      <point x="186" y="676" type="line" smooth="yes"/>
      <point x="128" y="676"/>
      <point x="105" y="649"/>
      <point x="105" y="600" type="curve" smooth="yes"/>
      <point x="105" y="583" type="line" smooth="yes"/>
      <point x="105" y="534"/>
      <point x="128" y="508"/>
      <point x="186" y="508" type="curve" smooth="yes"/>
      <point x="258" y="508" type="line" smooth="yes"/>
      <point x="316" y="508"/>
      <point x="339" y="534"/>
      <point x="339" y="583" type="curve"/>
    </contour>
    <contour>
      <point x="264" y="587" type="line"/>
      <point x="264" y="569"/>
      <point x="260" y="564"/>
      <point x="239" y="564" type="curve" smooth="yes"/>
      <point x="205" y="564" type="line" smooth="yes"/>
      <point x="184" y="564"/>
      <point x="180" y="569"/>
      <point x="180" y="587" type="curve" smooth="yes"/>
      <point x="180" y="596" type="line" smooth="yes"/>
      <point x="180" y="614"/>
      <point x="184" y="620"/>
      <point x="205" y="620" type="curve" smooth="yes"/>
      <point x="239" y="620" type="line" smooth="yes"/>
      <point x="260" y="620"/>
      <point x="264" y="614"/>
      <point x="264" y="596" type="curve"/>
    </contour>
  </outline>
</glyph>
<glyph name="ogonek" format="1">
  <advance width="444"/>
  <unicode hex="02DB"/>
  <outline>
    <contour>
      <point x="127" y="-111" type="curve" smooth="yes"/>
      <point x="127" y="-149" type="line" smooth="yes"/>
      <point x="127" y="-207"/>
      <point x="153" y="-239"/>
      <point x="222" y="-239" type="curve" smooth="yes"/>
      <point x="324" y="-239" type="line"/>
      <point x="324" y="-166" type="line"/>
      <point x="240" y="-166" type="line" smooth="yes"/>
      <point x="219" y="-166"/>
      <point x="213" y="-161"/>
      <point x="213" y="-142" type="curve" smooth="yes"/>
      <point x="213" y="-119" type="line"/>
      <point x="213" y="-99"/>
      <point x="219" y="-94"/>
      <point x="240" y="-94" type="curve" smooth="yes"/>
      <point x="306" y="-94" type="line"/>
      <point x="306" y="-21" type="line"/>
      <point x="222" y="-21" type="line" smooth="yes"/>
      <point x="153" y="-21"/>
      <point x="127" y="-54"/>
    </contour>
    <contour>
      <point x="306" y="-25" type="line"/>
      <point x="306" y="12" type="line"/>
      <point x="229" y="12" type="line"/>
      <point x="229" y="-25" type="line"/>
    </contour>
  </outline>
</glyph>
<glyph name="tilde" format="1">
  <advance width="444"/>
  <unicode hex="02DC"/>
  <outline>
    <contour>
      <point x="284" y="533" type="curve" smooth="yes"/>
      <point x="294" y="533" type="line" smooth="yes"/>
      <point x="359" y="533"/>
      <point x="378" y="564"/>
      <point x="378" y="615" type="curve" smooth="yes"/>
      <point x="378" y="650" type="line"/>
      <point x="284" y="650" type="line"/>
      <point x="284" y="630" type="line" smooth="yes"/>
      <point x="284" y="612"/>
      <point x="279" y="607"/>
      <point x="266" y="607" type="curve" smooth="yes"/>
      <point x="243" y="607"/>
      <point x="210" y="650"/>
      <point x="161" y="650" type="curve" smooth="yes"/>
      <point x="149" y="650" type="line" smooth="yes"/>
      <point x="85" y="650"/>
      <point x="65" y="617"/>
      <point x="65" y="565" type="curve" smooth="yes"/>
      <point x="65" y="533" type="line"/>
      <point x="159" y="533" type="line"/>
      <point x="159" y="553" type="line" smooth="yes"/>
      <point x="159" y="568"/>
      <point x="165" y="576"/>
      <point x="177" y="576" type="curve" smooth="yes"/>
      <point x="200" y="576"/>
      <point x="234" y="533"/>
    </contour>
  </outline>
</glyph>
<glyph name="hungarumlaut" format="1">
  <advance width="444"/>
  <unicode hex="02DD"/>
  <outline>
    <contour>
      <point x="196" y="523" type="line"/>
      <point x="275" y="523" type="line"/>
      <point x="388" y="660" type="line"/>
      <point x="282" y="660" type="line"/>
    </contour>
    <contour>
      <point x="56" y="523" type="line"/>
      <point x="135" y="523" type="line"/>
      <point x="248" y="660" type="line"/>
      <point x="142" y="660" type="line"/>
    </contour>
  </outline>
</glyph>
<glyph name="danda" format="1">
  <advance width="362"/>
  <unicode hex="0964"/>
  <outline>
    <contour>
      <point x="236" y="662" type="line"/>
      <point x="126" y="662" type="line"/>
      <point x="126" y="-31" type="line"/>
      <point x="236" y="-31" type="line"/>
    </contour>
  </outline>
</glyph>
<glyph name="endash" format="1">
  <advance width="474"/>
  <unicode hex="2013"/>
  <outline>
    <contour>
      <point x="31" y="255" type="line"/>
      <point x="396" y="255" type="line"/>
      <point x="396" y="338" type="line"/>
      <point x="31" y="338" type="line"/>
    </contour>
  </outline>
</glyph>
<glyph name="emdash" format="1">
  <advance width="598"/>
  <unicode hex="2014"/>
  <outline>
    <contour>
      <point x="20" y="255" type="line"/>
      <point x="574" y="255" type="line"/>
      <point x="574" y="338" type="line"/>
      <point x="20" y="338" type="line"/>
    </contour>
  </outline>
</glyph>
<glyph name="quoteleft" format="1">
  <advance width="191"/>
  <unicode hex="2018"/>
  <outline>
    <contour>
      <point x="157" y="354" type="line"/>
      <point x="157" y="631" type="line"/>
      <point x="121" y="631" type="line"/>
      <point x="34" y="426" type="line"/>
      <point x="34" y="354" type="line"/>
    </contour>
  </outline>
</glyph>
<glyph name="quoteright" format="1">
  <advance width="191"/>
  <unicode hex="2019"/>
  <outline>
    <contour>
      <point x="34" y="631" type="line"/>
      <point x="34" y="354" type="line"/>
      <point x="70" y="354" type="line"/>
      <point x="157" y="559" type="line"/>
      <point x="157" y="631" type="line"/>
    </contour>
  </outline>
</glyph>
<glyph name="quotedblleft" format="1">
  <advance width="358"/>
  <unicode hex="201C"/>
  <outline>
    <contour>
      <point x="323" y="354" type="line"/>
      <point x="323" y="631" type="line"/>
      <point x="288" y="631" type="line"/>
      <point x="202" y="426" type="line"/>
      <point x="202" y="354" type="line"/>
    </contour>
    <contour>
      <point x="156" y="354" type="line"/>
      <point x="156" y="631" type="line"/>
      <point x="121" y="631" type="line"/>
      <point x="34" y="426" type="line"/>
      <point x="34" y="354" type="line"/>
    </contour>
  </outline>
</glyph>
<glyph name="quotedblright" format="1">
  <advance width="358"/>
  <unicode hex="201D"/>
  <outline>
    <contour>
      <point x="34" y="631" type="line"/>
      <point x="34" y="354" type="line"/>
      <point x="69" y="354" type="line"/>
      <point x="156" y="559" type="line"/>
      <point x="156" y="631" type="line"/>
    </contour>
    <contour>
      <point x="202" y="631" type="line"/>
      <point x="202" y="354" type="line"/>
      <point x="237" y="354" type="line"/>
      <point x="323" y="559" type="line"/>
      <point x="323" y="631" type="line"/>
    </contour>
  </outline>
</glyph>
<glyph name="quotedblbase" format="1">
  <advance width="358"/>
  <unicode hex="201E"/>
  <outline>
    <contour>
      <point x="34" y="135" type="line"/>
      <point x="34" y="-142" type="line"/>
      <point x="69" y="-142" type="line"/>
      <point x="156" y="63" type="line"/>
      <point x="156" y="135" type="line"/>
    </contour>
    <contour>
      <point x="202" y="135" type="line"/>
      <point x="202" y="-142" type="line"/>
      <point x="237" y="-142" type="line"/>
      <point x="323" y="63" type="line"/>
      <point x="323" y="135" type="line"/>
    </contour>
  </outline>
</glyph>
<glyph name="dagger" format="1">
  <advance width="389"/>
  <unicode hex="2020"/>
  <outline>
    <contour>
      <point x="137" y="631" type="line"/>
      <point x="137" y="-110" type="line"/>
      <point x="252" y="-110" type="line"/>
      <point x="252" y="631" type="line"/>
    </contour>
    <contour>
      <point x="382" y="472" type="line"/>
      <point x="7" y="472" type="line"/>
      <point x="7" y="388" type="line"/>
      <point x="382" y="388" type="line"/>
    </contour>
  </outline>
</glyph>
<glyph name="daggerdbl" format="1">
  <advance width="413"/>
  <unicode hex="2021"/>
  <outline>
    <contour>
      <point x="149" y="631" type="line"/>
      <point x="149" y="-148" type="line"/>
      <point x="264" y="-148" type="line"/>
      <point x="264" y="631" type="line"/>
    </contour>
    <contour>
      <point x="394" y="472" type="line"/>
      <point x="19" y="472" type="line"/>
      <point x="19" y="388" type="line"/>
      <point x="394" y="388" type="line"/>
    </contour>
    <contour>
      <point x="394" y="94" type="line"/>
      <point x="19" y="94" type="line"/>
      <point x="19" y="11" type="line"/>
      <point x="394" y="11" type="line"/>
    </contour>
  </outline>
</glyph>
<glyph name="bullet" format="1">
  <advance width="396"/>
  <unicode hex="2022"/>
  <outline>
    <contour>
      <point x="62" y="321" type="curve" smooth="yes"/>
      <point x="62" y="246"/>
      <point x="123" y="185"/>
      <point x="198" y="185" type="curve" smooth="yes"/>
      <point x="273" y="185"/>
      <point x="334" y="246"/>
      <point x="334" y="321" type="curve" smooth="yes"/>
      <point x="334" y="396"/>
      <point x="273" y="457"/>
      <point x="198" y="457" type="curve" smooth="yes"/>
      <point x="123" y="457"/>
      <point x="62" y="396"/>
    </contour>
  </outline>
</glyph>
<glyph name="ellipsis" format="1">
  <advance width="612"/>
  <unicode hex="2026"/>
  <outline>
    <contour>
      <point x="48" y="0" type="line"/>
      <point x="176" y="0" type="line"/>
      <point x="176" y="132" type="line"/>
      <point x="48" y="132" type="line"/>
    </contour>
    <contour>
      <point x="259" y="0" type="line"/>
      <point x="386" y="0" type="line"/>
      <point x="386" y="132" type="line"/>
      <point x="259" y="132" type="line"/>
    </contour>
    <contour>
      <point x="470" y="0" type="line"/>
      <point x="597" y="0" type="line"/>
      <point x="597" y="132" type="line"/>
      <point x="470" y="132" type="line"/>
    </contour>
  </outline>
</glyph>
<glyph name="guilsinglleft" format="1">
  <advance width="292"/>
  <unicode hex="2039"/>
  <outline>
    <contour>
      <point x="147" y="102" type="line"/>
      <point x="264" y="102" type="line"/>
      <point x="148" y="256" type="line"/>
      <point x="264" y="410" type="line"/>
      <point x="147" y="410" type="line"/>
      <point x="31" y="256" type="line"/>
    </contour>
  </outline>
</glyph>
<glyph name="guilsinglright" format="1">
  <advance width="293"/>
  <unicode hex="203A"/>
  <outline>
    <contour>
      <point x="264" y="256" type="line"/>
      <point x="148" y="410" type="line"/>
      <point x="31" y="410" type="line"/>
      <point x="147" y="256" type="line"/>
      <point x="31" y="102" type="line"/>
      <point x="148" y="102" type="line"/>
    </contour>
  </outline>
</glyph>
<glyph name="Euro" format="1">
  <advance width="433"/>
  <unicode hex="20AC"/>
  <outline>
    <contour>
      <point x="181" y="520" type="line"/>
      <point x="181" y="541"/>
      <point x="187" y="547"/>
      <point x="210" y="547" type="curve" smooth="yes"/>
      <point x="241" y="547" type="line"/>
      <point x="241" y="631" type="line"/>
      <point x="174" y="631" type="line" smooth="yes"/>
      <point x="98" y="631"/>
      <point x="66" y="595"/>
      <point x="66" y="532" type="curve" smooth="yes"/>
      <point x="66" y="98" type="line" smooth="yes"/>
      <point x="66" y="36"/>
      <point x="98" y="-1"/>
      <point x="174" y="-1" type="curve"/>
      <point x="237" y="-1" type="line"/>
      <point x="237" y="83" type="line"/>
      <point x="210" y="83" type="line" smooth="yes"/>
      <point x="187" y="83"/>
      <point x="181" y="89"/>
      <point x="181" y="110" type="curve" smooth="yes"/>
    </contour>
    <contour>
      <point x="284" y="422" type="line"/>
      <point x="400" y="422" type="line"/>
      <point x="400" y="532" type="line" smooth="yes"/>
      <point x="400" y="595"/>
      <point x="368" y="631"/>
      <point x="291" y="631" type="curve" smooth="yes"/>
      <point x="225" y="631" type="line"/>
      <point x="225" y="547" type="line"/>
      <point x="256" y="547" type="line" smooth="yes"/>
      <point x="278" y="547"/>
      <point x="284" y="541"/>
      <point x="284" y="520" type="curve" smooth="yes"/>
    </contour>
    <contour>
      <point x="284" y="110" type="line"/>
      <point x="284" y="89"/>
      <point x="278" y="83"/>
      <point x="256" y="83" type="curve" smooth="yes"/>
      <point x="225" y="83" type="line"/>
      <point x="225" y="-1" type="line"/>
      <point x="291" y="-1" type="line" smooth="yes"/>
      <point x="368" y="-1"/>
      <point x="400" y="36"/>
      <point x="400" y="98" type="curve" smooth="yes"/>
      <point x="400" y="206" type="line"/>
      <point x="284" y="206" type="line"/>
    </contour>
    <contour>
      <point x="260" y="293" type="line"/>
      <point x="21" y="293" type="line"/>
      <point x="21" y="217" type="line"/>
      <point x="260" y="217" type="line"/>
    </contour>
    <contour>
      <point x="260" y="413" type="line"/>
      <point x="21" y="413" type="line"/>
      <point x="21" y="339" type="line"/>
      <point x="260" y="339" type="line"/>
    </contour>
  </outline>
</glyph>
<glyph name="trademark" format="1">
  <advance width="657"/>
  <unicode hex="2122"/>
  <outline>
    <contour>
      <point x="90" y="604" type="line"/>
      <point x="90" y="304" type="line"/>
      <point x="181" y="304" type="line"/>
      <point x="181" y="604" type="line"/>
    </contour>
    <contour>
      <point x="264" y="631" type="line"/>
      <point x="7" y="631" type="line"/>
      <point x="7" y="556" type="line"/>
      <point x="264" y="556" type="line"/>
    </contour>
    <contour>
      <point x="297" y="631" type="line"/>
      <point x="297" y="304" type="line"/>
      <point x="379" y="304" type="line"/>
      <point x="379" y="499" type="line"/>
      <point x="426" y="356" type="line"/>
      <point x="499" y="356" type="line"/>
      <point x="545" y="499" type="line"/>
      <point x="545" y="304" type="line"/>
      <point x="627" y="304" type="line"/>
      <point x="627" y="631" type="line"/>
      <point x="524" y="631" type="line"/>
      <point x="462" y="446" type="line"/>
      <point x="399" y="631" type="line"/>
    </contour>
  </outline>
</glyph>
<glyph name="Omega.math" format="1">
  <advance width="441"/>
  <unicode hex="2126"/>
  <outline>
    <contour>
      <point x="276" y="244" type="line"/>
      <point x="391" y="244" type="line"/>
      <point x="391" y="532" type="line" smooth="yes"/>
      <point x="391" y="595"/>
      <point x="359" y="631"/>
      <point x="282" y="631" type="curve" smooth="yes"/>
      <point x="214" y="631" type="line"/>
      <point x="214" y="543" type="line"/>
      <point x="247" y="543" type="line" smooth="yes"/>
      <point x="269" y="543"/>
      <point x="276" y="537"/>
      <point x="276" y="516" type="curve" smooth="yes"/>
    </contour>
    <contour>
      <point x="276" y="119" type="line"/>
      <point x="276" y="98"/>
      <point x="272" y="88"/>
      <point x="252" y="88" type="curve" smooth="yes"/>
      <point x="244" y="88" type="line"/>
      <point x="244" y="72" type="line"/>
      <point x="282" y="72" type="line" smooth="yes"/>
      <point x="359" y="72"/>
      <point x="391" y="93"/>
      <point x="391" y="155" type="curve" smooth="yes"/>
      <point x="391" y="277" type="line"/>
      <point x="276" y="277" type="line"/>
    </contour>
    <contour>
      <point x="166" y="516" type="line"/>
      <point x="166" y="537"/>
      <point x="172" y="543"/>
      <point x="194" y="543" type="curve" smooth="yes"/>
      <point x="228" y="543" type="line"/>
      <point x="228" y="631" type="line"/>
      <point x="160" y="631" type="line" smooth="yes"/>
      <point x="83" y="631"/>
      <point x="51" y="595"/>
      <point x="51" y="532" type="curve" smooth="yes"/>
      <point x="51" y="243" type="line"/>
      <point x="166" y="243" type="line"/>
    </contour>
    <contour>
      <point x="166" y="282" type="line"/>
      <point x="51" y="282" type="line"/>
      <point x="51" y="155" type="line" smooth="yes"/>
      <point x="51" y="93"/>
      <point x="83" y="72"/>
      <point x="160" y="72" type="curve" smooth="yes"/>
      <point x="197" y="72" type="line"/>
      <point x="197" y="88" type="line"/>
      <point x="190" y="88" type="line" smooth="yes"/>
      <point x="169" y="88"/>
      <point x="166" y="98"/>
      <point x="166" y="119" type="curve" smooth="yes"/>
    </contour>
    <contour>
      <point x="429" y="88" type="line"/>
      <point x="242" y="88" type="line"/>
      <point x="242" y="0" type="line"/>
      <point x="429" y="0" type="line"/>
    </contour>
    <contour>
      <point x="200" y="88" type="line"/>
      <point x="12" y="88" type="line"/>
      <point x="12" y="0" type="line"/>
      <point x="200" y="0" type="line"/>
    </contour>
  </outline>
</glyph>
<glyph name="product" format="1">
  <advance width="466"/>
  <unicode hex="220F"/>
  <outline>
    <contour>
      <point x="65" y="118" type="line"/>
      <point x="65" y="97"/>
      <point x="58" y="91"/>
      <point x="36" y="91" type="curve" smooth="yes"/>
      <point x="6" y="91" type="line"/>
      <point x="6" y="0" type="line"/>
      <point x="69" y="0" type="line" smooth="yes"/>
      <point x="146" y="0"/>
      <point x="178" y="36"/>
      <point x="178" y="99" type="curve" smooth="yes"/>
      <point x="178" y="584" type="line"/>
      <point x="65" y="584" type="line"/>
    </contour>
    <contour>
      <point x="302" y="588" type="line"/>
      <point x="302" y="0" type="line"/>
      <point x="417" y="0" type="line"/>
      <point x="417" y="588" type="line"/>
    </contour>
    <contour>
      <point x="417" y="631" type="line"/>
      <point x="65" y="631" type="line"/>
      <point x="65" y="547" type="line"/>
      <point x="417" y="547" type="line"/>
    </contour>
  </outline>
</glyph>
<glyph name="minus" format="1">
  <advance width="506"/>
  <unicode hex="2212"/>
  <outline>
    <contour>
      <point x="21" y="270" type="line"/>
      <point x="418" y="270" type="line"/>
      <point x="418" y="359" type="line"/>
      <point x="21" y="359" type="line"/>
    </contour>
  </outline>
</glyph>
<glyph name="divisionslash" format="1">
  <advance width="396"/>
  <unicode hex="2215"/>
  <outline>
    <contour>
      <point x="279" y="700" type="line"/>
      <point x="-4" y="-103" type="line"/>
      <point x="97" y="-103" type="line"/>
      <point x="380" y="700" type="line"/>
    </contour>
  </outline>
</glyph>
<glyph name="radical" format="1">
  <advance width="728"/>
  <unicode hex="221A"/>
  <outline>
    <contour>
      <point x="131" y="269" type="line"/>
      <point x="263" y="-103" type="line"/>
      <point x="365" y="-103" type="line"/>
      <point x="648" y="700" type="line"/>
      <point x="546" y="700" type="line"/>
      <point x="314" y="6" type="line"/>
      <point x="233" y="269" type="line"/>
    </contour>
    <contour>
      <point x="209" y="269" type="line"/>
      <point x="79" y="269" type="line"/>
      <point x="79" y="185" type="line"/>
      <point x="209" y="185" type="line"/>
    </contour>
  </outline>
</glyph>
<glyph name="infinity" format="1">
  <advance width="595"/>
  <unicode hex="221E"/>
  <outline>
    <contour>
      <point x="142" y="191" type="line"/>
      <point x="162" y="191" type="line" smooth="yes"/>
      <point x="234" y="191"/>
      <point x="255" y="202"/>
      <point x="293" y="266" type="curve" smooth="yes"/>
      <point x="374" y="402" type="line"/>
      <point x="386" y="420"/>
      <point x="394" y="429"/>
      <point x="411" y="429" type="curve" smooth="yes"/>
      <point x="435" y="429" type="line"/>
      <point x="435" y="505" type="line"/>
      <point x="416" y="505" type="line" smooth="yes"/>
      <point x="353" y="505"/>
      <point x="342" y="490"/>
      <point x="307" y="434" type="curve" smooth="yes"/>
      <point x="221" y="297" type="line" smooth="yes"/>
      <point x="212" y="282"/>
      <point x="194" y="267"/>
      <point x="173" y="267" type="curve" smooth="yes"/>
      <point x="155" y="267" type="line"/>
    </contour>
    <contour>
      <point x="164" y="267" type="line"/>
      <point x="142" y="267" type="line" smooth="yes"/>
      <point x="115" y="267"/>
      <point x="112" y="276"/>
      <point x="112" y="301" type="curve" smooth="yes"/>
      <point x="112" y="395" type="line" smooth="yes"/>
      <point x="112" y="419"/>
      <point x="115" y="428"/>
      <point x="142" y="428" type="curve" smooth="yes"/>
      <point x="163" y="428" type="line"/>
      <point x="163" y="505" type="line"/>
      <point x="130" y="505" type="line" smooth="yes"/>
      <point x="52" y="505"/>
      <point x="22" y="466"/>
      <point x="22" y="408" type="curve" smooth="yes"/>
      <point x="22" y="288" type="line" smooth="yes"/>
      <point x="22" y="229"/>
      <point x="52" y="191"/>
      <point x="130" y="191" type="curve" smooth="yes"/>
      <point x="151" y="191" type="line"/>
    </contour>
    <contour>
      <point x="320" y="375" type="line"/>
      <point x="278" y="437" type="line" smooth="yes"/>
      <point x="244" y="484"/>
      <point x="225" y="505"/>
      <point x="167" y="505" type="curve" smooth="yes"/>
      <point x="155" y="505" type="line"/>
      <point x="155" y="428" type="line"/>
      <point x="165" y="428" type="line" smooth="yes"/>
      <point x="191" y="428"/>
      <point x="203" y="414"/>
      <point x="218" y="392" type="curve" smooth="yes"/>
      <point x="264" y="325" type="line"/>
    </contour>
    <contour>
      <point x="281" y="296" type="line"/>
      <point x="311" y="254" type="line" smooth="yes"/>
      <point x="347" y="203"/>
      <point x="369" y="191"/>
      <point x="428" y="191" type="curve" smooth="yes"/>
      <point x="440" y="191" type="line"/>
      <point x="440" y="267" type="line"/>
      <point x="419" y="267" type="line" smooth="yes"/>
      <point x="398" y="267"/>
      <point x="386" y="279"/>
      <point x="374" y="296" type="curve" smooth="yes"/>
      <point x="332" y="353" type="line"/>
    </contour>
    <contour>
      <point x="434" y="191" type="line"/>
      <point x="464" y="191" type="line" smooth="yes"/>
      <point x="543" y="191"/>
      <point x="573" y="229"/>
      <point x="573" y="288" type="curve"/>
      <point x="573" y="408" type="line" smooth="yes"/>
      <point x="573" y="466"/>
      <point x="543" y="505"/>
      <point x="464" y="505" type="curve" smooth="yes"/>
      <point x="430" y="505" type="line"/>
      <point x="430" y="429" type="line"/>
      <point x="452" y="429" type="line" smooth="yes"/>
      <point x="480" y="429"/>
      <point x="483" y="419"/>
      <point x="483" y="395" type="curve" smooth="yes"/>
      <point x="483" y="301" type="line" smooth="yes"/>
      <point x="483" y="276"/>
      <point x="480" y="267"/>
      <point x="452" y="267" type="curve" smooth="yes"/>
      <point x="431" y="267" type="line"/>
    </contour>
  </outline>
</glyph>
<glyph name="integral" format="1">
  <advance width="349"/>
  <unicode hex="222B"/>
  <outline>
    <contour>
      <point x="235" y="596" type="line"/>
      <point x="236" y="617"/>
      <point x="242" y="623"/>
      <point x="264" y="623" type="curve" smooth="yes"/>
      <point x="313" y="623" type="line"/>
      <point x="313" y="714" type="line"/>
      <point x="231" y="714" type="line" smooth="yes"/>
      <point x="154" y="714"/>
      <point x="122" y="678"/>
      <point x="122" y="615" type="curve" smooth="yes"/>
      <point x="122" y="-12" type="line" smooth="yes"/>
      <point x="119" y="-33"/>
      <point x="115" y="-39"/>
      <point x="93" y="-39" type="curve" smooth="yes"/>
      <point x="44" y="-39" type="line"/>
      <point x="44" y="-130" type="line"/>
      <point x="126" y="-130" type="line" smooth="yes"/>
      <point x="203" y="-130"/>
      <point x="235" y="-94"/>
      <point x="235" y="-31" type="curve"/>
    </contour>
  </outline>
</glyph>
<glyph name="approxequal" format="1">
  <advance width="512"/>
  <unicode hex="2248"/>
  <outline>
    <contour>
      <point x="336" y="364" type="curve" smooth="yes"/>
      <point x="380" y="364" type="line"/>
      <point x="447" y="364"/>
      <point x="472" y="394"/>
      <point x="472" y="450" type="curve" smooth="yes"/>
      <point x="472" y="512" type="line"/>
      <point x="368" y="512" type="line"/>
      <point x="368" y="476" type="line" smooth="yes"/>
      <point x="368" y="453"/>
      <point x="365" y="442"/>
      <point x="341" y="442" type="curve" smooth="yes"/>
      <point x="281" y="442"/>
      <point x="261" y="513"/>
      <point x="177" y="513" type="curve" smooth="yes"/>
      <point x="132" y="513" type="line" smooth="yes"/>
      <point x="66" y="513"/>
      <point x="40" y="483"/>
      <point x="40" y="426" type="curve" smooth="yes"/>
      <point x="40" y="364" type="line"/>
      <point x="144" y="364" type="line"/>
      <point x="144" y="401" type="line" smooth="yes"/>
      <point x="144" y="423"/>
      <point x="149" y="435"/>
      <point x="173" y="435" type="curve" smooth="yes"/>
      <point x="233" y="435"/>
      <point x="251" y="364"/>
    </contour>
    <contour>
      <point x="336" y="182" type="curve" smooth="yes"/>
      <point x="380" y="182" type="line"/>
      <point x="447" y="182"/>
      <point x="472" y="213"/>
      <point x="472" y="269" type="curve"/>
      <point x="472" y="331" type="line"/>
      <point x="368" y="331" type="line"/>
      <point x="368" y="294" type="line"/>
      <point x="368" y="271"/>
      <point x="365" y="260"/>
      <point x="341" y="260" type="curve" smooth="yes"/>
      <point x="281" y="260"/>
      <point x="261" y="331"/>
      <point x="177" y="331" type="curve" smooth="yes"/>
      <point x="132" y="331" type="line"/>
      <point x="66" y="331"/>
      <point x="40" y="302"/>
      <point x="40" y="245" type="curve"/>
      <point x="40" y="183" type="line"/>
      <point x="144" y="183" type="line"/>
      <point x="144" y="220" type="line"/>
      <point x="144" y="242"/>
      <point x="149" y="253"/>
      <point x="173" y="253" type="curve" smooth="yes"/>
      <point x="233" y="253"/>
      <point x="251" y="182"/>
    </contour>
  </outline>
</glyph>
<glyph name="notequal" format="1">
  <advance width="500"/>
  <unicode hex="2260"/>
  <outline>
    <contour>
      <point x="461" y="275" type="line"/>
      <point x="461" y="365" type="line"/>
      <point x="39" y="365" type="line"/>
      <point x="39" y="275" type="line"/>
    </contour>
    <contour>
      <point x="461" y="269" type="line"/>
      <point x="461" y="359" type="line"/>
      <point x="39" y="359" type="line"/>
      <point x="39" y="269" type="line"/>
    </contour>
    <contour>
      <point x="181" y="100" type="line"/>
      <point x="398" y="531" type="line"/>
      <point x="319" y="531" type="line"/>
      <point x="102" y="100" type="line"/>
    </contour>
  </outline>
</glyph>
<glyph name="lessequal" format="1">
  <advance width="478"/>
  <unicode hex="2264"/>
  <outline>
    <contour>
      <point x="433" y="450" type="line"/>
      <point x="433" y="541" type="line"/>
      <point x="33" y="437" type="line"/>
      <point x="33" y="343" type="line"/>
      <point x="433" y="231" type="line"/>
      <point x="433" y="324" type="line"/>
      <point x="131" y="388" type="line"/>
    </contour>
    <contour>
      <point x="433" y="205" type="line"/>
      <point x="33" y="205" type="line"/>
      <point x="33" y="122" type="line"/>
      <point x="433" y="122" type="line"/>
    </contour>
  </outline>
</glyph>
<glyph name="greaterequal" format="1">
  <advance width="478"/>
  <unicode hex="2265"/>
  <outline>
    <contour>
      <point x="341" y="388" type="line"/>
      <point x="39" y="324" type="line"/>
      <point x="39" y="231" type="line"/>
      <point x="439" y="343" type="line"/>
      <point x="439" y="437" type="line"/>
      <point x="39" y="541" type="line"/>
      <point x="39" y="450" type="line"/>
    </contour>
    <contour>
      <point x="39" y="122" type="line"/>
      <point x="439" y="122" type="line"/>
      <point x="439" y="205" type="line"/>
      <point x="39" y="205" type="line"/>
    </contour>
  </outline>
</glyph>
<glyph name="lozenge" format="1">
  <advance width="557"/>
  <unicode hex="25CA"/>
  <outline>
    <contour>
      <point x="501" y="316" type="line"/>
      <point x="331" y="631" type="line"/>
      <point x="223" y="631" type="line"/>
      <point x="56" y="316" type="line"/>
      <point x="170" y="316" type="line"/>
      <point x="277" y="537" type="line"/>
      <point x="387" y="316" type="line"/>
    </contour>
    <contour>
      <point x="387" y="316" type="line"/>
      <point x="277" y="94" type="line"/>
      <point x="170" y="316" type="line"/>
      <point x="56" y="316" type="line"/>
      <point x="223" y="0" type="line"/>
      <point x="331" y="0" type="line"/>
      <point x="501" y="316" type="line"/>
    </contour>
  </outline>
</glyph>
